<?xml version="1.0" encoding="UTF-8"?><svg xmlns="http://www.w3.org/2000/svg" xmlns:xlink="http://www.w3.org/1999/xlink" fill-opacity="1" color-rendering="auto" color-interpolation="auto" text-rendering="auto" stroke="black" stroke-linecap="square" width="549" stroke-miterlimit="10" shape-rendering="auto" stroke-opacity="1" fill="black" stroke-dasharray="none" font-weight="normal" stroke-width="1" height="320" font-family="'Dialog'" font-style="normal" stroke-linejoin="miter" font-size="12px" stroke-dashoffset="0" image-rendering="auto">
  <!--Generated by ySVG 2.5-->
  <defs id="genericDefs"/>
  <g>
    <defs id="defs1">
      <clipPath clipPathUnits="userSpaceOnUse" id="clipPath1">
        <path d="M0 0 L549 0 L549 320 L0 320 L0 0 Z"/>
      </clipPath>
      <clipPath clipPathUnits="userSpaceOnUse" id="clipPath2">
        <path d="M145 235 L694 235 L694 555 L145 555 L145 235 Z"/>
      </clipPath>
    </defs>
    <g fill="rgb(255,255,153)" text-rendering="geometricPrecision" shape-rendering="geometricPrecision" transform="matrix(1,0,0,1,-145,-235)" stroke="rgb(255,255,153)">
      <rect x="288.07" width="74.8" height="66.92" y="310" clip-path="url(#clipPath2)" stroke="none"/>
    </g>
    <g text-rendering="geometricPrecision" stroke-miterlimit="1.45" shape-rendering="geometricPrecision" font-family="sans-serif" transform="matrix(1,0,0,1,-145,-235)" stroke-linecap="butt">
      <text x="299.6096" xml:space="preserve" y="347.6143" clip-path="url(#clipPath2)" stroke="none">Tracking</text>
      <rect fill="none" x="288.07" width="74.8" height="66.92" y="310" clip-path="url(#clipPath2)"/>
    </g>
    <g fill="rgb(255,255,153)" text-rendering="geometricPrecision" shape-rendering="geometricPrecision" transform="matrix(1,0,0,1,-145,-235)" stroke="rgb(255,255,153)">
      <rect x="488.92" width="74.8" height="66.92" y="306" clip-path="url(#clipPath2)" stroke="none"/>
    </g>
    <g text-rendering="geometricPrecision" stroke-miterlimit="1.45" shape-rendering="geometricPrecision" font-family="sans-serif" transform="matrix(1,0,0,1,-145,-235)" stroke-linecap="butt">
      <text x="508.7565" xml:space="preserve" y="336.6299" clip-path="url(#clipPath2)" stroke="none">Local </text>
      <text x="500.571" xml:space="preserve" y="350.5987" clip-path="url(#clipPath2)" stroke="none">Mapping</text>
      <rect fill="none" x="488.92" width="74.8" height="66.92" y="306" clip-path="url(#clipPath2)"/>
    </g>
    <g fill="rgb(255,255,153)" text-rendering="geometricPrecision" shape-rendering="geometricPrecision" transform="matrix(1,0,0,1,-145,-235)" stroke="rgb(255,255,153)">
      <rect x="160.8627" width="517.1936" height="82.4848" y="456.52" clip-path="url(#clipPath2)" stroke="none"/>
    </g>
    <g text-rendering="geometricPrecision" stroke-miterlimit="1.45" shape-rendering="geometricPrecision" font-family="sans-serif" transform="matrix(1,0,0,1,-145,-235)" stroke-linecap="butt">
      <text x="595.3922" xml:space="preserve" y="473.6587" clip-path="url(#clipPath2)" stroke="none">Loop Closing</text>
      <rect fill="none" x="160.8627" width="517.1936" height="82.4848" y="456.52" clip-path="url(#clipPath2)"/>
    </g>
    <g fill="rgb(153,153,153)" text-rendering="geometricPrecision" shape-rendering="geometricPrecision" transform="matrix(1,0,0,1,-145,-235)" stroke="rgb(153,153,153)">
      <path d="M387.68 386.84 C389.8172 376.92 456.7828 376.92 458.92 386.84 L458.92 416.6 C456.7828 426.52 389.8172 426.52 387.68 416.6 Z" stroke="none" clip-path="url(#clipPath2)"/>
    </g>
    <g text-rendering="geometricPrecision" stroke-miterlimit="1.45" shape-rendering="geometricPrecision" transform="matrix(1,0,0,1,-145,-235)" stroke-linecap="butt">
      <path fill="none" d="M387.68 386.84 C389.8172 376.92 456.7828 376.92 458.92 386.84 L458.92 416.6 C456.7828 426.52 389.8172 426.52 387.68 416.6 Z" clip-path="url(#clipPath2)"/>
      <path fill="none" d="M458.92 386.84 C456.7828 396.76 389.8172 396.76 387.68 386.84" clip-path="url(#clipPath2)"/>
      <text x="410.6379" xml:space="preserve" y="405.8743" clip-path="url(#clipPath2)" font-family="sans-serif" stroke="none">Map</text>
    </g>
    <g fill="rgb(153,204,255)" text-rendering="geometricPrecision" shape-rendering="geometricPrecision" transform="matrix(1,0,0,1,-145,-235)" stroke="rgb(153,204,255)">
      <path d="M492.248 397.88 L568.91 397.88 L560.392 416.36 L483.73 416.36 Z" fill-rule="evenodd" clip-path="url(#clipPath2)" stroke="none"/>
    </g>
    <g text-rendering="geometricPrecision" stroke-miterlimit="1.45" shape-rendering="geometricPrecision" font-family="sans-serif" transform="matrix(1,0,0,1,-145,-235)" stroke-linecap="butt">
      <text x="497.3513" xml:space="preserve" y="411.2743" clip-path="url(#clipPath2)" stroke="none">Keyframe</text>
      <path fill="none" d="M492.248 397.88 L568.91 397.88 L560.392 416.36 L483.73 416.36 Z" clip-path="url(#clipPath2)" fill-rule="evenodd"/>
    </g>
    <g fill="rgb(153,204,255)" text-rendering="geometricPrecision" shape-rendering="geometricPrecision" transform="matrix(1,0,0,1,-145,-235)" stroke="rgb(153,204,255)">
      <path d="M252.2394 250.2621 L332.1337 250.2621 L323.2566 279.7379 L243.3623 279.7379 Z" fill-rule="evenodd" clip-path="url(#clipPath2)" stroke="none"/>
    </g>
    <g text-rendering="geometricPrecision" stroke-miterlimit="1.45" shape-rendering="geometricPrecision" font-family="sans-serif" transform="matrix(1,0,0,1,-145,-235)" stroke-linecap="butt">
      <text x="255.5507" xml:space="preserve" y="269.1543" clip-path="url(#clipPath2)" stroke="none">Left Image</text>
      <path fill="none" d="M252.2394 250.2621 L332.1337 250.2621 L323.2566 279.7379 L243.3623 279.7379 Z" clip-path="url(#clipPath2)" fill-rule="evenodd"/>
    </g>
    <g fill="rgb(153,204,255)" text-rendering="geometricPrecision" shape-rendering="geometricPrecision" transform="matrix(1,0,0,1,-145,-235)" stroke="rgb(153,204,255)">
      <path d="M344.2394 250.2621 L424.1337 250.2621 L415.2566 279.7379 L335.3623 279.7379 Z" fill-rule="evenodd" clip-path="url(#clipPath2)" stroke="none"/>
    </g>
    <g text-rendering="geometricPrecision" stroke-miterlimit="1.45" shape-rendering="geometricPrecision" font-family="sans-serif" transform="matrix(1,0,0,1,-145,-235)" stroke-linecap="butt">
      <text x="343.2499" xml:space="preserve" y="269.1543" clip-path="url(#clipPath2)" stroke="none">Right Image</text>
      <path fill="none" d="M344.2394 250.2621 L424.1337 250.2621 L415.2566 279.7379 L335.3623 279.7379 Z" clip-path="url(#clipPath2)" fill-rule="evenodd"/>
    </g>
    <g fill="rgb(153,204,0)" text-rendering="geometricPrecision" shape-rendering="geometricPrecision" transform="matrix(1,0,0,1,-145,-235)" stroke="rgb(153,204,0)">
      <rect x="556.9648" y="480.3048" clip-path="url(#clipPath2)" width="103.728" rx="4" ry="4" height="34.9152" stroke="none"/>
    </g>
    <g text-rendering="geometricPrecision" stroke-miterlimit="1.45" shape-rendering="geometricPrecision" font-family="sans-serif" transform="matrix(1,0,0,1,-145,-235)" stroke-linecap="butt">
      <text x="563.2809" xml:space="preserve" y="501.9167" clip-path="url(#clipPath2)" stroke="none">Loop Detection</text>
      <rect x="556.9648" y="480.3048" clip-path="url(#clipPath2)" fill="none" width="103.728" rx="4" ry="4" height="34.9152"/>
    </g>
    <g fill="rgb(153,204,0)" text-rendering="geometricPrecision" shape-rendering="geometricPrecision" transform="matrix(1,0,0,1,-145,-235)" stroke="rgb(153,204,0)">
      <rect x="412.5024" y="480.3048" clip-path="url(#clipPath2)" width="113.8224" rx="4" ry="4" height="34.9152" stroke="none"/>
    </g>
    <g text-rendering="geometricPrecision" stroke-miterlimit="1.45" shape-rendering="geometricPrecision" font-family="sans-serif" transform="matrix(1,0,0,1,-145,-235)" stroke-linecap="butt">
      <text x="415.6802" xml:space="preserve" y="494.9323" clip-path="url(#clipPath2)" stroke="none">Compute Relative</text>
      <text x="423.4117" xml:space="preserve" y="508.9011" clip-path="url(#clipPath2)" stroke="none">Transformation</text>
      <rect x="412.5024" y="480.3048" clip-path="url(#clipPath2)" fill="none" width="113.8224" rx="4" ry="4" height="34.9152"/>
    </g>
    <g fill="rgb(153,102,255)" text-rendering="geometricPrecision" shape-rendering="geometricPrecision" transform="matrix(1,0,0,1,-145,-235)" stroke="rgb(153,102,255)">
      <path d="M312.1448 497.7624 L349.5448 464.3024 L386.9448 497.7624 L349.5448 531.2224 Z" fill-rule="evenodd" clip-path="url(#clipPath2)" stroke="none"/>
    </g>
    <g font-size="10px" stroke-linecap="butt" transform="matrix(1,0,0,1,-145,-235)" text-rendering="geometricPrecision" font-family="sans-serif" shape-rendering="geometricPrecision" stroke-miterlimit="1.45">
      <text x="337.4672" xml:space="preserve" y="495.404" clip-path="url(#clipPath2)" stroke="none">Loop</text>
      <text x="324.4667" xml:space="preserve" y="507.0446" clip-path="url(#clipPath2)" stroke="none">Validation</text>
      <path fill="none" d="M312.1448 497.7624 L349.5448 464.3024 L386.9448 497.7624 L349.5448 531.2224 Z" fill-rule="evenodd" clip-path="url(#clipPath2)"/>
    </g>
    <g fill="rgb(153,204,0)" text-rendering="geometricPrecision" shape-rendering="geometricPrecision" transform="matrix(1,0,0,1,-145,-235)" stroke="rgb(153,204,0)">
      <rect x="172.7648" y="480.5648" clip-path="url(#clipPath2)" width="113.8224" rx="4" ry="4" height="34.3952" stroke="none"/>
    </g>
    <g text-rendering="geometricPrecision" stroke-miterlimit="1.45" shape-rendering="geometricPrecision" font-family="sans-serif" transform="matrix(1,0,0,1,-145,-235)" stroke-linecap="butt">
      <text x="181.9983" xml:space="preserve" y="501.9167" clip-path="url(#clipPath2)" stroke="none">Loop Correction</text>
      <rect x="172.7648" y="480.5648" clip-path="url(#clipPath2)" fill="none" width="113.8224" rx="4" ry="4" height="34.3952"/>
      <path fill="none" d="M362.87 342.7152 L480.9216 340.3641" clip-path="url(#clipPath2)"/>
      <path d="M488.92 340.2048 L476.8228 335.4448 L479.9218 340.3841 L477.0219 345.4428 Z" clip-path="url(#clipPath2)" stroke="none"/>
      <path fill="none" d="M232.3087 456.4943 L232.3087 343.46 L280.07 343.46" clip-path="url(#clipPath2)"/>
      <path d="M288.07 343.46 L276.07 338.46 L279.07 343.46 L276.07 348.46 Z" clip-path="url(#clipPath2)" stroke="none"/>
      <path fill="none" d="M325.47 376.92 L325.47 401.72 L379.7124 401.72" clip-path="url(#clipPath2)"/>
      <path d="M387.7124 401.72 L375.7124 396.72 L378.7124 401.72 L375.7124 406.72 Z" clip-path="url(#clipPath2)" stroke="none"/>
      <path fill="none" d="M480.8786 359.7469 L423.3 359.7469 L423.3 371.3808" clip-path="url(#clipPath2)"/>
      <path d="M488.8786 359.7469 L476.8786 354.7469 L479.8786 359.7469 L476.8786 364.7469 Z" clip-path="url(#clipPath2)" stroke="none"/>
      <path d="M423.3 379.3808 L428.3 367.3808 L423.3 370.3808 L418.3 367.3808 Z" clip-path="url(#clipPath2)" stroke="none"/>
      <path fill="none" d="M423.563 448.4982 L423.4706 432.0537" clip-path="url(#clipPath2)"/>
      <path d="M423.608 456.4981 L428.5404 444.4702 L423.5574 447.4983 L418.5406 444.5264 Z" clip-path="url(#clipPath2)" stroke="none"/>
      <path d="M423.4256 424.0538 L418.4931 436.0818 L423.4762 433.0537 L428.493 436.0255 Z" clip-path="url(#clipPath2)" stroke="none"/>
      <path fill="none" d="M526.32 372.92 L526.32 389.8686" clip-path="url(#clipPath2)"/>
      <path d="M526.32 397.8686 L531.32 385.8686 L526.32 388.8686 L521.32 385.8686 Z" clip-path="url(#clipPath2)" stroke="none"/>
      <path fill="none" d="M526.32 416.3339 L526.32 448.5181" clip-path="url(#clipPath2)"/>
      <path d="M526.32 456.5181 L531.32 444.5181 L526.32 447.5181 L521.32 444.5181 Z" clip-path="url(#clipPath2)" stroke="none"/>
      <path fill="none" d="M287.748 279.7264 L287.748 294.168 L379.748 294.168 L379.748 279.7264" clip-path="url(#clipPath2)"/>
      <path fill="none" d="M325.47 294.1403 L325.47 302" clip-path="url(#clipPath2)"/>
      <path d="M325.47 310 L330.47 298 L325.47 301 L320.47 298 Z" clip-path="url(#clipPath2)" stroke="none"/>
      <path fill="none" d="M556.9906 497.7624 L534.3301 497.7624" clip-path="url(#clipPath2)"/>
      <path d="M526.3301 497.7624 L538.3301 502.7624 L535.3301 497.7624 L538.3301 492.7624 Z" clip-path="url(#clipPath2)" stroke="none"/>
      <path fill="none" d="M412.4935 497.7624 L394.9513 497.7624" clip-path="url(#clipPath2)"/>
      <path d="M386.9513 497.7624 L398.9513 502.7624 L395.9513 497.7624 L398.9513 492.7624 Z" clip-path="url(#clipPath2)" stroke="none"/>
      <path fill="none" d="M312.1736 497.7624 L294.5945 497.7624" clip-path="url(#clipPath2)"/>
      <path d="M286.5945 497.7624 L298.5945 502.7624 L295.5945 497.7624 L298.5945 492.7624 Z" clip-path="url(#clipPath2)" stroke="none"/>
    </g>
  </g>
</svg>
