<?xml version="1.0" encoding="UTF-8" standalone="no"?>
<!-- Created with Inkscape (http://www.inkscape.org/) -->

<svg
   xmlns:ns0="http://www.iki.fi/pav/software/textext/"
   xmlns:dc="http://purl.org/dc/elements/1.1/"
   xmlns:cc="http://creativecommons.org/ns#"
   xmlns:rdf="http://www.w3.org/1999/02/22-rdf-syntax-ns#"
   xmlns:svg="http://www.w3.org/2000/svg"
   xmlns="http://www.w3.org/2000/svg"
   xmlns:sodipodi="http://sodipodi.sourceforge.net/DTD/sodipodi-0.dtd"
   xmlns:inkscape="http://www.inkscape.org/namespaces/inkscape"
   width="483.51874"
   height="291.9375"
   id="svg3230"
   version="1.1"
   inkscape:version="0.48.4 r9939"
   sodipodi:docname="pencil_of_planes.svg">
  <sodipodi:namedview
     id="base"
     pagecolor="#ffffff"
     bordercolor="#666666"
     borderopacity="1.0"
     inkscape:pageopacity="0.0"
     inkscape:pageshadow="2"
     inkscape:zoom="1.4"
     inkscape:cx="238.55128"
     inkscape:cy="141.12707"
     inkscape:document-units="px"
     inkscape:current-layer="layer1"
     showgrid="false"
     inkscape:window-width="1366"
     inkscape:window-height="744"
     inkscape:window-x="0"
     inkscape:window-y="24"
     inkscape:window-maximized="1"
     fit-margin-top="0"
     fit-margin-left="0"
     fit-margin-right="0"
     fit-margin-bottom="0" />
  <defs
     id="defs3232">
    <clipPath
       id="clipPath20"
       clipPathUnits="userSpaceOnUse">
      <path
         inkscape:connector-curvature="0"
         id="path22"
         d="m 0,236.04 389.04,0 L 389.04,0 0,0 0,236.04 z" />
    </clipPath>
  </defs>
  <metadata
     id="metadata3235">
    <rdf:RDF>
      <cc:Work
         rdf:about="">
        <dc:format>image/svg+xml</dc:format>
        <dc:type
           rdf:resource="http://purl.org/dc/dcmitype/StillImage" />
        <dc:title></dc:title>
      </cc:Work>
    </rdf:RDF>
  </metadata>
  <g
     inkscape:label="Layer 1"
     inkscape:groupmode="layer"
     id="layer1"
     transform="translate(-129.37184,-90.661732)">
    <g
       transform="matrix(1.25,0,0,-1.25,138.65309,294.56798)"
       id="g12">
      <path
         inkscape:connector-curvature="0"
         id="path14"
         style="fill:#000000;fill-opacity:1;fill-rule:evenodd;stroke:none"
         d="m 0,0 c 0,-1.987 -1.6128,-3.6 -3.6,-3.6 -1.9872,0 -3.6,1.613 -3.6,3.6 0,1.987 1.6128,3.6 3.6,3.6 C -1.6128,3.6 0,1.987 0,0" />
    </g>
    <g
       transform="matrix(1.25,0,0,-1.25,128.07809,383.81798)"
       id="g16">
      <g
         clip-path="url(#clipPath20)"
         id="g18">
        <g
           transform="translate(8.46,71.4)"
           id="g24">
          <path
             inkscape:connector-curvature="0"
             id="path26"
             style="fill:none;stroke:#000000;stroke-width:0.44999999;stroke-linecap:butt;stroke-linejoin:miter;stroke-miterlimit:10;stroke-opacity:1;stroke-dasharray:none"
             d="m 0,0 c 0,-1.987 -1.6128,-3.6 -3.6,-3.6 -1.9872,0 -3.6,1.613 -3.6,3.6 0,1.987 1.6128,3.6 3.6,3.6 C -1.6128,3.6 0,1.987 0,0 z" />
        </g>
      </g>
    </g>
    <g
       transform="matrix(1.25,0,0,-1.25,239.90309,294.56798)"
       id="g28">
      <path
         inkscape:connector-curvature="0"
         id="path30"
         style="fill:#000000;fill-opacity:1;fill-rule:evenodd;stroke:#000000;stroke-width:0.44999999;stroke-linecap:butt;stroke-linejoin:miter;stroke-miterlimit:10;stroke-opacity:1;stroke-dasharray:none"
         d="m 0,0 c 0,-1.49 -1.21,-2.7 -2.7,-2.7 -1.49,0 -2.7,1.21 -2.7,2.7 0,1.49 1.21,2.7 2.7,2.7 C -1.21,2.7 0,1.49 0,0 z" />
    </g>
    <g
       transform="matrix(1.25,0,0,-1.25,530.15309,294.56798)"
       id="g32">
      <path
         inkscape:connector-curvature="0"
         id="path34"
         style="fill:#000000;fill-opacity:1;fill-rule:evenodd;stroke:#000000;stroke-width:0.44999999;stroke-linecap:butt;stroke-linejoin:miter;stroke-miterlimit:10;stroke-opacity:1;stroke-dasharray:none"
         d="m 0,0 c 0,-1.49 -1.21,-2.7 -2.7,-2.7 -1.49,0 -2.7,1.21 -2.7,2.7 0,1.49 1.21,2.7 2.7,2.7 C -1.21,2.7 0,1.49 0,0 z" />
    </g>
    <g
       transform="matrix(1.25,0,0,-1.25,565.10309,294.56798)"
       id="g36">
      <path
         inkscape:connector-curvature="0"
         id="path38"
         style="fill:#000000;fill-opacity:1;fill-rule:evenodd;stroke:#000000;stroke-width:0.44999999;stroke-linecap:butt;stroke-linejoin:miter;stroke-miterlimit:10;stroke-opacity:1;stroke-dasharray:none"
         d="m 0,0 c 0,-1.987 -1.613,-3.6 -3.6,-3.6 -1.987,0 -3.6,1.613 -3.6,3.6 0,1.987 1.613,3.6 3.6,3.6 C -1.613,3.6 0,1.987 0,0 z" />
    </g>
    <g
       transform="matrix(1.25,0,0,-1.25,151.07809,90.942982)"
       id="g40">
      <path
         inkscape:connector-curvature="0"
         id="path42"
         style="fill:none;stroke:#000000;stroke-width:0.44999999;stroke-linecap:butt;stroke-linejoin:miter;stroke-miterlimit:10;stroke-opacity:1;stroke-dasharray:none"
         d="m 0,0 0,-123.3 96.3,-108 0,135.9 L 0,0 z" />
      <g
         transform="translate(-13.5,-162.9)"
         id="g44">
        <path
           inkscape:connector-curvature="0"
           id="path46"
           style="fill:none;stroke:#000000;stroke-width:0.44999999;stroke-linecap:butt;stroke-linejoin:miter;stroke-miterlimit:10;stroke-opacity:1;stroke-dasharray:none"
           d="M 0,0 341.1,0" />
      </g>
    </g>
    <path
       inkscape:connector-curvature="0"
       id="path48"
       style="fill:none;stroke:#000000;stroke-width:0.5625;stroke-linecap:butt;stroke-linejoin:miter;stroke-miterlimit:10;stroke-opacity:1;stroke-dasharray:4.5;stroke-dashoffset:0"
       d="m 594.32809,227.06798 -391.5,0 -68.625,67.5" />
    <g
       transform="matrix(1.25,0,0,-1.25,236.57809,295.69298)"
       id="g50">
      <path
         inkscape:connector-curvature="0"
         id="path52"
         style="fill:none;stroke:#000000;stroke-width:0.89999998;stroke-linecap:butt;stroke-linejoin:miter;stroke-miterlimit:10;stroke-opacity:1;stroke-dasharray:none"
         d="M 0,0 -40.5,20.7" />
      <g
         transform="translate(0,0.9)"
         id="g54">
        <path
           inkscape:connector-curvature="0"
           id="path56"
           style="fill:none;stroke:#000000;stroke-width:0.89999998;stroke-linecap:butt;stroke-linejoin:miter;stroke-miterlimit:10;stroke-opacity:1;stroke-dasharray:none"
           d="M 0,0 -40.5,39.6" />
        <g
           id="g58">
          <path
             inkscape:connector-curvature="0"
             id="path60"
             style="fill:none;stroke:#000000;stroke-width:0.89999998;stroke-linecap:butt;stroke-linejoin:miter;stroke-miterlimit:10;stroke-opacity:1;stroke-dasharray:none"
             d="M 0,0 -40.5,81" />
          <g
             transform="translate(231.3,0)"
             id="g62">
            <path
               inkscape:connector-curvature="0"
               id="path64"
               style="fill:none;stroke:#000000;stroke-width:0.89999998;stroke-linecap:butt;stroke-linejoin:miter;stroke-miterlimit:10;stroke-opacity:1;stroke-dasharray:none"
               d="m 0,0 69.3,108 -1.8,0" />
            <g
               id="g66">
              <path
                 inkscape:connector-curvature="0"
                 id="path68"
                 style="fill:none;stroke:#000000;stroke-width:0.89999998;stroke-linecap:butt;stroke-linejoin:miter;stroke-miterlimit:10;stroke-opacity:1;stroke-dasharray:none"
                 d="M 0,0 54.9,54" />
              <g
                 id="g70">
                <path
                   inkscape:connector-curvature="0"
                   id="path72"
                   style="fill:none;stroke:#000000;stroke-width:0.89999998;stroke-linecap:butt;stroke-linejoin:miter;stroke-miterlimit:10;stroke-opacity:1;stroke-dasharray:none"
                   d="M 0,0 42.3,29.7" />
              </g>
            </g>
          </g>
        </g>
      </g>
    </g>
    <g
       transform="matrix(1.25,0,0,-1.25,612.32809,94.317982)"
       id="g74">
      <path
         inkscape:connector-curvature="0"
         id="path76"
         style="fill:none;stroke:#000000;stroke-width:0.44999999;stroke-linecap:butt;stroke-linejoin:miter;stroke-miterlimit:10;stroke-opacity:1;stroke-dasharray:none"
         d="M 0,0 -0.06,-120.6" />
      <g
         id="g78">
        <path
           inkscape:connector-curvature="0"
           id="path80"
           style="fill:none;stroke:#000000;stroke-width:0.44999999;stroke-linecap:butt;stroke-linejoin:miter;stroke-miterlimit:10;stroke-opacity:1;stroke-dasharray:none"
           d="m 0,0 -95.4,-93.6 0,-136.8 95.34,109.8" />
        <g
           transform="translate(-0.06,-52.2)"
           id="g82">
          <path
             inkscape:connector-curvature="0"
             id="path84"
             style="fill:none;stroke:#000000;stroke-width:0.44999999;stroke-linecap:butt;stroke-linejoin:miter;stroke-miterlimit:10;stroke-opacity:1;stroke-dasharray:none"
             d="m 0,0 -327.54,0 -54.9,-108" />
        </g>
      </g>
    </g>
    <path
       inkscape:connector-curvature="0"
       id="path86"
       style="fill:none;stroke:#000000;stroke-width:0.5625;stroke-linecap:butt;stroke-linejoin:miter;stroke-miterlimit:10;stroke-opacity:1;stroke-dasharray:1.125, 3.375;stroke-dashoffset:3.375"
       d="m 579.70309,257.44298 -371.25,0 -74.25,37.125" />
    <g
       style="font-style:normal;font-variant:normal;font-weight:normal;font-stretch:normal;letter-spacing:normal;word-spacing:normal;text-anchor:start;fill:none;stroke:#000000;stroke-linecap:butt;stroke-linejoin:miter;stroke-miterlimit:10.43299961;stroke-opacity:1;stroke-dasharray:none;stroke-dashoffset:0"
       id="content"
       transform="matrix(1.931677,0,0,-1.931677,-192.74845,1675.8572)"
       xml:space="preserve"
       stroke-miterlimit="10.433"
       font-style="normal"
       font-variant="normal"
       font-weight="normal"
       font-stretch="normal"
       font-size-adjust="none"
       letter-spacing="normal"
       word-spacing="normal"
       ns0:text="$\\vec{e}$"
       ns0:preamble="/home/taihu/Documents/tesis/inkscape_preamble.tex"><path
         style="fill:#000000;stroke-width:0"
         inkscape:connector-curvature="0"
         d="m 228.03,709.29 0.02,0 0.02,0 0.02,0 0.02,0 0.01,0 0.02,0 0.02,0 0.01,0.01 0.02,0 0.01,0 0.01,0 0.02,0.01 0.01,0 0.01,0 0.01,0.01 0.01,0 0.01,0.01 0.01,0.01 0.01,0.01 0,0.01 0.01,0.01 0.01,0.01 0,0 0,0.01 0.01,0.01 0,0 0,0.01 0,0.01 0,0.01 0.01,0 0,0.01 0,0.01 0,0.01 0,0.01 0,0.01 0,0.01 0.01,0.01 0,0.01 0,0.01 0,0.01 0,0.02 0,0.01 c 0,0.31 -0.06,1.03 -0.56,1.53 -0.37,0.36 -0.9,0.53 -1.58,0.53 -1.59,0 -2.46,-1.02 -2.46,-2.26 0,-1.33 0.99,-2.29 2.6,-2.29 1.57,0 2,1.05 2,1.22 0,0.18 -0.19,0.18 -0.24,0.18 -0.17,0 -0.19,-0.05 -0.25,-0.21 -0.21,-0.48 -0.78,-0.8 -1.42,-0.8 -1.41,0 -1.42,1.32 -1.42,1.83 v 0.33 c 0.02,0.39 0.03,0.8 0.24,1.13 0.26,0.4 0.66,0.52 0.95,0.52 1.16,0 1.18,-1.3 1.19,-1.65 h -2.38 v -0.33 z"
         id="path3367" /></g>    <g
       style="font-style:normal;font-variant:normal;font-weight:normal;font-stretch:normal;letter-spacing:normal;word-spacing:normal;text-anchor:start;fill:none;stroke:#000000;stroke-linecap:butt;stroke-linejoin:miter;stroke-miterlimit:10.43299961;stroke-opacity:1;stroke-dasharray:none;stroke-dashoffset:0"
       ns0:preamble="/home/taihu/Documents/tesis/inkscape_preamble.tex"
       ns0:text="$\\vec{e}^\\prime$"
       word-spacing="normal"
       letter-spacing="normal"
       font-size-adjust="none"
       font-stretch="normal"
       font-weight="normal"
       font-variant="normal"
       font-style="normal"
       stroke-miterlimit="10.433"
       xml:space="preserve"
       transform="matrix(1.931677,0,0,-1.931677,73.344414,1677.5877)"
       id="g3478"><path
         id="path3480"
         d="m 228.03,709.29 0.02,0 0.02,0 0.02,0 0.02,0 0.01,0 0.02,0 0.02,0 0.01,0.01 0.02,0 0.01,0 0.01,0 0.02,0.01 0.01,0 0.01,0 0.01,0.01 0.01,0 0.01,0.01 0.01,0.01 0.01,0.01 0,0.01 0.01,0.01 0.01,0.01 0,0 0,0.01 0.01,0.01 0,0 0,0.01 0,0.01 0,0.01 0.01,0 0,0.01 0,0.01 0,0.01 0,0.01 0,0.01 0,0.01 0.01,0.01 0,0.01 0,0.01 0,0.01 0,0.02 0,0.01 c 0,0.31 -0.06,1.03 -0.56,1.53 -0.37,0.36 -0.9,0.53 -1.58,0.53 -1.59,0 -2.46,-1.02 -2.46,-2.26 0,-1.33 0.99,-2.29 2.6,-2.29 1.57,0 2,1.05 2,1.22 0,0.18 -0.19,0.18 -0.24,0.18 -0.17,0 -0.19,-0.05 -0.25,-0.21 -0.21,-0.48 -0.78,-0.8 -1.42,-0.8 -1.41,0 -1.42,1.32 -1.42,1.83 v 0.33 c 0.02,0.39 0.03,0.8 0.24,1.13 0.26,0.4 0.66,0.52 0.95,0.52 1.16,0 1.18,-1.3 1.19,-1.65 h -2.38 v -0.33 z"
         inkscape:connector-curvature="0"
         style="fill:#000000;stroke-width:0" /><path
         id="path3482"
         d="m 230.7,714.02 0.01,0.01 0,0.01 0.01,0.01 0,0.01 0.01,0.01 0,0.01 0,0.01 0.01,0.01 0,0.01 0,0.01 0,0 0.01,0.01 0,0.01 0,0.01 0,0 0,0.01 0.01,0.01 0,0 0,0.01 0,0 0,0.01 0,0.01 0,0 0,0.01 0,0.01 0,0.01 0,0.01 0,0 c 0,0.22 -0.19,0.39 -0.41,0.39 -0.26,0 -0.34,-0.22 -0.38,-0.33 l -0.92,-3.01 c -0.01,-0.01 -0.03,-0.11 -0.03,-0.11 0,-0.09 0.21,-0.15 0.27,-0.15 0.05,0 0.06,0.01 0.1,0.11 z"
         inkscape:connector-curvature="0"
         style="fill:#000000;stroke-width:0" /></g>  </g>
</svg>
