<?xml version="1.0" encoding="UTF-8" standalone="no"?>
<!-- Created with Inkscape (http://www.inkscape.org/) -->

<svg
   xmlns:dc="http://purl.org/dc/elements/1.1/"
   xmlns:cc="http://creativecommons.org/ns#"
   xmlns:rdf="http://www.w3.org/1999/02/22-rdf-syntax-ns#"
   xmlns:svg="http://www.w3.org/2000/svg"
   xmlns="http://www.w3.org/2000/svg"
   xmlns:sodipodi="http://sodipodi.sourceforge.net/DTD/sodipodi-0.dtd"
   xmlns:inkscape="http://www.inkscape.org/namespaces/inkscape"
   width="509.51999"
   height="311.94"
   id="svg3230"
   version="1.1"
   inkscape:version="0.48.4 r9939"
   sodipodi:docname="pencil_of_planes.svg">
  <sodipodi:namedview
     id="base"
     pagecolor="#ffffff"
     bordercolor="#666666"
     borderopacity="1.0"
     inkscape:pageopacity="0.0"
     inkscape:pageshadow="2"
     inkscape:zoom="1.4088798"
     inkscape:cx="240.83362"
     inkscape:cy="177.06504"
     inkscape:document-units="px"
     inkscape:current-layer="layer1"
     showgrid="false"
     inkscape:window-width="1366"
     inkscape:window-height="743"
     inkscape:window-x="1920"
     inkscape:window-y="0"
     inkscape:window-maximized="1"
     fit-margin-top="0"
     fit-margin-left="0"
     fit-margin-right="0"
     fit-margin-bottom="0" />
  <defs
     id="defs3232">
    <marker
       inkscape:stockid="Arrow1Lend"
       orient="auto"
       refY="0.0"
       refX="0.0"
       id="Arrow1Lend"
       style="overflow:visible;">
      <path
         id="path3885"
         d="M 0.0,0.0 L 5.0,-5.0 L -12.5,0.0 L 5.0,5.0 L 0.0,0.0 z "
         style="fill-rule:evenodd;stroke:#000000;stroke-width:1.0pt;"
         transform="scale(0.8) rotate(180) translate(12.5,0)" />
    </marker>
    <marker
       inkscape:stockid="DotS"
       orient="auto"
       refY="0"
       refX="0"
       id="DotS"
       style="overflow:visible">
      <path
         id="path3949"
         d="m -2.5,-1 c 0,2.76 -2.24,5 -5,5 -2.76,0 -5,-2.24 -5,-5 0,-2.76 2.24,-5 5,-5 2.76,0 5,2.24 5,5 z"
         style="fill-rule:evenodd;stroke:#000000;stroke-width:1pt"
         transform="matrix(0.2,0,0,0.2,1.48,0.2)"
         inkscape:connector-curvature="0" />
    </marker>
    <marker
       inkscape:stockid="DotM"
       orient="auto"
       refY="0"
       refX="0"
       id="DotM"
       style="overflow:visible">
      <path
         id="path3946"
         d="m -2.5,-1 c 0,2.76 -2.24,5 -5,5 -2.76,0 -5,-2.24 -5,-5 0,-2.76 2.24,-5 5,-5 2.76,0 5,2.24 5,5 z"
         style="fill-rule:evenodd;stroke:#000000;stroke-width:1pt"
         transform="matrix(0.4,0,0,0.4,2.96,0.4)"
         inkscape:connector-curvature="0" />
    </marker>
    <clipPath
       id="clipPath20"
       clipPathUnits="userSpaceOnUse">
      <path
         inkscape:connector-curvature="0"
         id="path22"
         d="m 0,236.04 389.04,0 L 389.04,0 0,0 0,236.04 z" />
    </clipPath>
  </defs>
  <metadata
     id="metadata3235">
    <rdf:RDF>
      <cc:Work
         rdf:about="">
        <dc:format>image/svg+xml</dc:format>
        <dc:type
           rdf:resource="http://purl.org/dc/dcmitype/StillImage" />
        <dc:title />
      </cc:Work>
    </rdf:RDF>
  </metadata>
  <g
     inkscape:label="Layer 1"
     inkscape:groupmode="layer"
     id="layer1"
     transform="translate(-129.37184,-70.659272)">
    <g
       transform="matrix(1.25,0,0,-1.25,150.65309,280.56798)"
       id="g12">
      <path
         inkscape:connector-curvature="0"
         id="path14"
         style="fill:#000000;fill-opacity:1;fill-rule:evenodd;stroke:none"
         d="m 0,0 c 0,-1.987 -1.6128,-3.6 -3.6,-3.6 -1.9872,0 -3.6,1.613 -3.6,3.6 0,1.987 1.6128,3.6 3.6,3.6 C -1.6128,3.6 0,1.987 0,0" />
    </g>
    <g
       transform="matrix(1.25,0,0,-1.25,140.07809,369.81798)"
       id="g16">
      <g
         clip-path="url(#clipPath20)"
         id="g18">
        <g
           transform="translate(8.46,71.4)"
           id="g24">
          <path
             inkscape:connector-curvature="0"
             id="path26"
             style="fill:none;stroke:#000000;stroke-width:0.44999999;stroke-linecap:butt;stroke-linejoin:miter;stroke-miterlimit:10;stroke-opacity:1;stroke-dasharray:none"
             d="m 0,0 c 0,-1.987 -1.6128,-3.6 -3.6,-3.6 -1.9872,0 -3.6,1.613 -3.6,3.6 0,1.987 1.6128,3.6 3.6,3.6 C -1.6128,3.6 0,1.987 0,0 z" />
        </g>
      </g>
    </g>
    <g
       transform="matrix(1.25,0,0,-1.25,611.10309,280.56798)"
       id="g36">
      <path
         inkscape:connector-curvature="0"
         id="path38"
         style="fill:#000000;fill-opacity:1;fill-rule:evenodd;stroke:#000000;stroke-width:0.44999999;stroke-linecap:butt;stroke-linejoin:miter;stroke-miterlimit:10;stroke-opacity:1;stroke-dasharray:none"
         d="m 0,0 c 0,-1.987 -1.613,-3.6 -3.6,-3.6 -1.987,0 -3.6,1.613 -3.6,3.6 0,1.987 1.613,3.6 3.6,3.6 C -1.613,3.6 0,1.987 0,0 z" />
    </g>
    <path
       d="m 163.07809,76.942982 0,154.124998 120.375,135 0,-169.875 -120.375,-119.249998 z"
       style="fill:none;stroke:#000000;stroke-width:1.5;stroke-linecap:butt;stroke-linejoin:miter;stroke-miterlimit:10;stroke-opacity:1;stroke-dasharray:none"
       id="path42"
       inkscape:connector-curvature="0" />
    <path
       inkscape:connector-curvature="0"
       id="path46"
       style="fill:none;stroke:#000000;stroke-width:0.58176976;stroke-linecap:butt;stroke-linejoin:miter;stroke-miterlimit:10;stroke-opacity:1;stroke-dasharray:none"
       d="m 146.22257,280.56798 456.08835,0" />
    <path
       inkscape:connector-curvature="0"
       id="path48"
       style="fill:none;stroke:#000000;stroke-width:0.5;stroke-linecap:butt;stroke-linejoin:miter;stroke-miterlimit:10;stroke-opacity:1;stroke-dasharray:3, 3;stroke-dashoffset:0"
       d="m 606.32809,213.06798 -391.5,0 -68.625,67.5" />
    <path
       d="M 247.23635,279.85234 198.65502,255.02188"
       style="fill:none;stroke:#000000;stroke-width:1.91926253;stroke-linecap:round;stroke-linejoin:miter;stroke-miterlimit:10;stroke-opacity:1;stroke-dasharray:none;stroke-dashoffset:0"
       id="path52"
       inkscape:connector-curvature="0" />
    <path
       inkscape:connector-curvature="0"
       id="path56"
       style="fill:none;stroke:#000000;stroke-width:1.96789014;stroke-linecap:round;stroke-linejoin:miter;stroke-miterlimit:10;stroke-opacity:1;stroke-dasharray:none"
       d="M 247.67997,279.68941 197.86776,230.98413" />
    <path
       d="M 248.14452,279.7041 198.21495,179.84497"
       style="fill:none;stroke:#000000;stroke-width:1.97252595;stroke-linecap:round;stroke-linejoin:miter;stroke-miterlimit:10;stroke-opacity:1;stroke-dasharray:none;marker-end:none"
       id="path60"
       inkscape:connector-curvature="0" />
    <path
       inkscape:connector-curvature="0"
       id="path64"
       style="fill:none;stroke:#000000;stroke-width:1.97118914;stroke-linecap:round;stroke-linejoin:miter;stroke-miterlimit:10;stroke-opacity:1;stroke-dasharray:none;marker-mid:none"
       d="M 538.35876,279.80062 623.56,146.47066"
       sodipodi:nodetypes="cc" />
    <path
       d="m 538.30103,279.69083 67.97957,-65.9374"
       style="fill:none;stroke:#000000;stroke-width:1.96739709;stroke-linecap:round;stroke-linejoin:miter;stroke-miterlimit:10;stroke-opacity:1;stroke-dasharray:none"
       id="path68"
       inkscape:connector-curvature="0" />
    <path
       inkscape:connector-curvature="0"
       id="path72"
       style="fill:none;stroke:#000000;stroke-width:1.9534725;stroke-linecap:round;stroke-linejoin:miter;stroke-miterlimit:10;stroke-opacity:1;stroke-dasharray:none"
       d="m 538.74079,279.53028 51.86056,-36.11056" />
    <path
       d="m 624.32809,80.317982 -0.075,150.749998"
       style="fill:none;stroke:#000000;stroke-width:1.5;stroke-linecap:butt;stroke-linejoin:miter;stroke-miterlimit:10;stroke-opacity:1;stroke-dasharray:none"
       id="path76"
       inkscape:connector-curvature="0" />
    <path
       inkscape:connector-curvature="0"
       id="path80"
       style="fill:none;stroke:#000000;stroke-width:1.49490714;stroke-linecap:round;stroke-linejoin:miter;stroke-miterlimit:10;stroke-opacity:1;stroke-dasharray:none"
       d="M 623.84484,81.115092 505.07555,197.7923 l 0,170.52822 118.69459,-136.87134" />
    <path
       d="m 624.25309,145.56798 -409.425,0 -68.625,135"
       style="fill:none;stroke:#000000;stroke-width:0.5;stroke-linecap:butt;stroke-linejoin:miter;stroke-miterlimit:10;stroke-opacity:1;stroke-dasharray:none"
       id="path84"
       inkscape:connector-curvature="0" />
    <path
       inkscape:connector-curvature="0"
       id="path86"
       style="fill:none;stroke:#000000;stroke-width:1;stroke-linecap:butt;stroke-linejoin:miter;stroke-miterlimit:10;stroke-opacity:1;stroke-dasharray:1, 6;stroke-dashoffset:6.0000002"
       d="m 591.70309,243.44298 -371.25,0 -74.25,37.125" />
    <flowRoot
       xml:space="preserve"
       id="flowRoot5079-7"
       style="font-size:20px;font-style:normal;font-weight:normal;line-height:125%;letter-spacing:0px;word-spacing:0px;fill:#000000;fill-opacity:1;stroke:none;font-family:Sans"
       transform="matrix(1.4871065,0,0,1.4871065,81.032458,-141.97759)"><flowRegion
         id="flowRegion5081-7"><rect
           id="rect5083-2"
           width="31.283066"
           height="24.322916"
           x="35.932289"
           y="280.34436"
           style="font-size:20px" /></flowRegion><flowPara
         id="flowPara5085-3"
         style="font-size:20px;font-style:normal;font-variant:normal;font-weight:bold;font-stretch:normal;font-family:Latin Modern Roman;-inkscape-font-specification:Latin Modern Roman">o</flowPara></flowRoot>    <g
       id="g5219"
       transform="matrix(1.4245762,0,0,1.4245762,-269.77628,-120.2654)">
      <flowRoot
         transform="translate(575.27094,-2.0598393)"
         style="font-size:20px;font-style:normal;font-weight:normal;line-height:125%;letter-spacing:0px;word-spacing:0px;fill:#000000;fill-opacity:1;stroke:none;font-family:Sans"
         id="flowRoot5079-7-7"
         xml:space="preserve"><flowRegion
           id="flowRegion5081-7-2"><rect
             style="font-size:20px"
             y="280.34436"
             x="35.932289"
             height="24.322916"
             width="31.283066"
             id="rect5083-2-5" /></flowRegion><flowPara
           style="font-size:20px;font-style:normal;font-variant:normal;font-weight:bold;font-stretch:normal;font-family:Latin Modern Roman;-inkscape-font-specification:Latin Modern Roman"
           id="flowPara5085-3-3">o</flowPara></flowRoot>      <path
         style="font-style:normal;font-variant:normal;font-weight:normal;font-stretch:normal;letter-spacing:normal;word-spacing:normal;text-anchor:start;fill:#000000;stroke:#000000;stroke-width:0;stroke-linecap:butt;stroke-linejoin:miter;stroke-miterlimit:10.43299961;stroke-opacity:1;stroke-dasharray:none;stroke-dashoffset:0"
         inkscape:connector-curvature="0"
         d="m 627.39474,283.06458 0,-0.0253 0.0253,-0.0253 0,-0.0253 0.0253,-0.0253 0,-0.0253 0,-0.0253 0.0253,-0.0253 0,-0.0253 0,-0.0253 0.0253,-0.0253 0,0 0,-0.0253 0,-0.0253 0.0253,-0.0253 0,0 0,-0.0253 0,-0.0253 0,0 0,-0.0253 0,0 0,-0.0253 0.0253,-0.0253 0,0 0,-0.0253 0,-0.0253 0,-0.0253 0,-0.0253 0,0 c 0,-0.55626 -0.50569,-0.9861 -1.03667,-0.9861 -0.68268,0 -0.88496,0.55626 -0.96081,0.83439 l -2.32617,7.61063 c -0.0253,0.0253 -0.10114,0.27813 -0.10114,0.27813 0,0.22756 0.55626,0.37927 0.68268,0.37927 0.12642,0 0.15171,-0.0253 0.27813,-0.27813 z"
         id="path3477-3" />
    </g>
    <flowRoot
       xml:space="preserve"
       id="flowRoot5226"
       style="fill:black;stroke:none;stroke-opacity:1;stroke-width:1px;stroke-linejoin:miter;stroke-linecap:butt;fill-opacity:1;font-family:Sans;font-style:normal;font-weight:normal;font-size:40px;line-height:125%;letter-spacing:0px;word-spacing:0px"><flowRegion
         id="flowRegion5228"><rect
           id="rect5230"
           width="138.95354"
           height="79.171204"
           x="189.04144"
           y="228.46016" /></flowRegion><flowPara
         id="flowPara5232" /></flowRoot>    <flowRoot
       xml:space="preserve"
       id="flowRoot5079-7-6"
       style="font-size:20px;font-style:normal;font-weight:normal;line-height:125%;letter-spacing:0px;word-spacing:0px;fill:#000000;fill-opacity:1;stroke:none;font-family:Sans"
       transform="matrix(1.3298571,0,0,1.3298571,295.49308,-96.052063)"><flowRegion
         id="flowRegion5081-7-4"><rect
           id="rect5083-2-0"
           width="101.837"
           height="22.707167"
           x="35.932289"
           y="280.34436"
           style="font-size:20px" /></flowRegion><flowPara
         id="flowPara5085-3-35"
         style="font-size:16px;font-style:normal;font-variant:normal;font-weight:bold;font-stretch:normal;font-family:Latin Modern Roman;-inkscape-font-specification:Latin Modern Roman">línea base</flowPara></flowRoot>  </g>
</svg>
