<?xml version="1.0" encoding="UTF-8" standalone="no"?>
<!-- Created with Inkscape (http://www.inkscape.org/) -->

<svg
   xmlns:ns0="http://www.iki.fi/pav/software/textext/"
   xmlns:dc="http://purl.org/dc/elements/1.1/"
   xmlns:cc="http://creativecommons.org/ns#"
   xmlns:rdf="http://www.w3.org/1999/02/22-rdf-syntax-ns#"
   xmlns:svg="http://www.w3.org/2000/svg"
   xmlns="http://www.w3.org/2000/svg"
   xmlns:sodipodi="http://sodipodi.sourceforge.net/DTD/sodipodi-0.dtd"
   xmlns:inkscape="http://www.inkscape.org/namespaces/inkscape"
   width="290.95001"
   height="213.55"
   id="svg4477"
   version="1.1"
   inkscape:version="0.48.4 r9939"
   sodipodi:docname="stereo_triangulation2.svg">
  <sodipodi:namedview
     id="base"
     pagecolor="#ffffff"
     bordercolor="#666666"
     borderopacity="1.0"
     inkscape:pageopacity="0.0"
     inkscape:pageshadow="2"
     inkscape:zoom="1.88"
     inkscape:cx="97.392499"
     inkscape:cy="90.884154"
     inkscape:document-units="px"
     inkscape:current-layer="layer2"
     showgrid="false"
     inkscape:window-width="1366"
     inkscape:window-height="743"
     inkscape:window-x="1920"
     inkscape:window-y="0"
     inkscape:window-maximized="1"
     showborder="true"
     inkscape:showpageshadow="true"
     fit-margin-top="0"
     fit-margin-left="0"
     fit-margin-right="0"
     fit-margin-bottom="0"
     showguides="true"
     inkscape:guide-bbox="true" />
  <defs
     id="defs4479">
    <marker
       style="overflow:visible"
       id="StopM"
       refX="0"
       refY="0"
       orient="auto"
       inkscape:stockid="StopM">
      <path
         transform="scale(0.4,0.4)"
         style="fill:none;stroke:#000000;stroke-width:1pt"
         d="M 0,5.65 0,-5.65"
         id="path4003"
         inkscape:connector-curvature="0" />
    </marker>
    <marker
       style="overflow:visible"
       id="StopS"
       refX="0"
       refY="0"
       orient="auto"
       inkscape:stockid="StopS">
      <path
         transform="scale(0.2,0.2)"
         style="fill:none;stroke:#000000;stroke-width:1pt"
         d="M 0,5.65 0,-5.65"
         id="path4006"
         inkscape:connector-curvature="0" />
    </marker>
    <marker
       inkscape:stockid="Arrow1Mstart"
       orient="auto"
       refY="0"
       refX="0"
       id="Arrow1Mstart"
       style="overflow:visible">
      <path
         id="path6934"
         d="M 0,0 5,-5 -12.5,0 5,5 0,0 z"
         style="fill-rule:evenodd;stroke:#000000;stroke-width:1pt"
         transform="matrix(0.4,0,0,0.4,4,0)"
         inkscape:connector-curvature="0" />
    </marker>
    <marker
       inkscape:stockid="Arrow1Mend"
       orient="auto"
       refY="0"
       refX="0"
       id="Arrow1Mend"
       style="overflow:visible">
      <path
         id="path6937"
         d="M 0,0 5,-5 -12.5,0 5,5 0,0 z"
         style="fill-rule:evenodd;stroke:#000000;stroke-width:1pt"
         transform="matrix(-0.4,0,0,-0.4,-4,0)"
         inkscape:connector-curvature="0" />
    </marker>
    <marker
       inkscape:stockid="Arrow1Mstart"
       orient="auto"
       refY="0"
       refX="0"
       id="Arrow1Mstart-6"
       style="overflow:visible">
      <path
         inkscape:connector-curvature="0"
         id="path6934-2"
         d="M 0,0 5,-5 -12.5,0 5,5 0,0 z"
         style="fill-rule:evenodd;stroke:#000000;stroke-width:1pt"
         transform="matrix(0.4,0,0,0.4,4,0)" />
    </marker>
    <marker
       style="overflow:visible"
       id="StopM-3"
       refX="0"
       refY="0"
       orient="auto"
       inkscape:stockid="StopM">
      <path
         transform="scale(0.4,0.4)"
         style="fill:none;stroke:#000000;stroke-width:1pt"
         d="M 0,5.65 0,-5.65"
         id="path4003-6"
         inkscape:connector-curvature="0" />
    </marker>
    <marker
       style="overflow:visible"
       id="marker4867"
       refX="0"
       refY="0"
       orient="auto"
       inkscape:stockid="StopM">
      <path
         transform="scale(0.4,0.4)"
         style="fill:none;stroke:#000000;stroke-width:1pt"
         d="M 0,5.65 0,-5.65"
         id="path4869"
         inkscape:connector-curvature="0" />
    </marker>
    <marker
       style="overflow:visible"
       id="StopMH"
       refX="0"
       refY="0"
       orient="auto"
       inkscape:stockid="StopMH">
      <path
         transform="scale(0.4,0.4)"
         style="fill:none;stroke:#969696;stroke-width:1pt"
         d="M 0,5.65 0,-5.65"
         id="path5021"
         inkscape:connector-curvature="0" />
    </marker>
    <marker
       style="overflow:visible"
       id="StopMl"
       refX="0"
       refY="0"
       orient="auto"
       inkscape:stockid="StopMl">
      <path
         transform="scale(0.4,0.4)"
         style="fill:none;stroke:#969696;stroke-width:1pt"
         d="M 0,5.65 0,-5.65"
         id="path5024"
         inkscape:connector-curvature="0" />
    </marker>
    <marker
       style="overflow:visible"
       id="StopMu"
       refX="0"
       refY="0"
       orient="auto"
       inkscape:stockid="StopMu">
      <path
         transform="scale(0.4,0.4)"
         style="fill:none;stroke:#969696;stroke-width:1pt"
         d="M 0,5.65 0,-5.65"
         id="path5151"
         inkscape:connector-curvature="0" />
    </marker>
    <marker
       style="overflow:visible"
       id="StopMG"
       refX="0"
       refY="0"
       orient="auto"
       inkscape:stockid="StopMG">
      <path
         transform="scale(0.4,0.4)"
         style="fill:none;stroke:#969696;stroke-width:1pt"
         d="M 0,5.65 0,-5.65"
         id="path5154"
         inkscape:connector-curvature="0" />
    </marker>
    <marker
       style="overflow:visible"
       id="StopMu-1"
       refX="0"
       refY="0"
       orient="auto"
       inkscape:stockid="StopMu">
      <path
         inkscape:connector-curvature="0"
         transform="scale(0.4,0.4)"
         style="fill:none;stroke:#969696;stroke-width:1pt"
         d="M 0,5.65 0,-5.65"
         id="path5151-2" />
    </marker>
    <marker
       style="overflow:visible"
       id="StopMG-7"
       refX="0"
       refY="0"
       orient="auto"
       inkscape:stockid="StopMG">
      <path
         inkscape:connector-curvature="0"
         transform="scale(0.4,0.4)"
         style="fill:none;stroke:#969696;stroke-width:1pt"
         d="M 0,5.65 0,-5.65"
         id="path5154-0" />
    </marker>
    <marker
       style="overflow:visible"
       id="StopMu-12"
       refX="0"
       refY="0"
       orient="auto"
       inkscape:stockid="StopMu">
      <path
         transform="scale(0.4,0.4)"
         style="fill:none;stroke:#969696;stroke-width:1pt"
         d="M 0,5.65 0,-5.65"
         id="path5151-7"
         inkscape:connector-curvature="0" />
    </marker>
    <marker
       style="overflow:visible"
       id="StopMG-0"
       refX="0"
       refY="0"
       orient="auto"
       inkscape:stockid="StopMG">
      <path
         transform="scale(0.4,0.4)"
         style="fill:none;stroke:#969696;stroke-width:1pt"
         d="M 0,5.65 0,-5.65"
         id="path5154-9"
         inkscape:connector-curvature="0" />
    </marker>
    <marker
       style="overflow:visible"
       id="StopMu-6"
       refX="0"
       refY="0"
       orient="auto"
       inkscape:stockid="StopMu">
      <path
         transform="scale(0.4,0.4)"
         style="fill:none;stroke:#969696;stroke-width:1pt"
         d="M 0,5.65 0,-5.65"
         id="path5151-1"
         inkscape:connector-curvature="0" />
    </marker>
    <marker
       style="overflow:visible"
       id="StopMG-8"
       refX="0"
       refY="0"
       orient="auto"
       inkscape:stockid="StopMG">
      <path
         transform="scale(0.4,0.4)"
         style="fill:none;stroke:#969696;stroke-width:1pt"
         d="M 0,5.65 0,-5.65"
         id="path5154-7"
         inkscape:connector-curvature="0" />
    </marker>
  </defs>
  <metadata
     id="metadata4482">
    <rdf:RDF>
      <cc:Work
         rdf:about="">
        <dc:format>image/svg+xml</dc:format>
        <dc:type
           rdf:resource="http://purl.org/dc/dcmitype/StillImage" />
        <dc:title />
      </cc:Work>
    </rdf:RDF>
  </metadata>
  <g
     style="display:inline"
     inkscape:label="principal"
     id="layer2"
     inkscape:groupmode="layer"
     transform="translate(-101.77374,46.239961)">
    <path
       sodipodi:nodetypes="cccc"
       style="opacity:0.6;fill:none;stroke:#ff0000;stroke-width:3.55907369;stroke-linecap:butt;stroke-linejoin:miter;stroke-miterlimit:4;stroke-opacity:1;stroke-dasharray:none;display:inline"
       d="m 195.23079,56.718522 -66.04138,38.118818 66.05444,-0.0639 z"
       id="path3087-3-5"
       inkscape:connector-curvature="0" />
    <g
       id="g8502"
       transform="matrix(0,1,-1,0,401.04678,-442.31051)">
      <path
         style="fill:none;stroke:#000000;stroke-width:1px;stroke-linecap:butt;stroke-linejoin:miter;stroke-opacity:1"
         d="m 472.81065,205.71315 128.16309,0"
         id="path3930"
         inkscape:connector-curvature="0" />
      <path
         style="fill:none;stroke:#000000;stroke-width:1px;stroke-linecap:butt;stroke-linejoin:miter;stroke-opacity:1;marker-start:url(#Arrow1Mstart)"
         d="m 537.99704,14.573339 0,261.850491"
         id="path3932"
         inkscape:connector-curvature="0" />
    </g>
    <path
       transform="matrix(0,0.54819277,-0.54819277,0,367.41839,-249.42909)"
       d="m 561.71875,314.03766 a 4.6875,4.6875 0 1 1 -9.375,0 4.6875,4.6875 0 1 1 9.375,0 z"
       sodipodi:ry="4.6875"
       sodipodi:rx="4.6875"
       sodipodi:cy="314.03766"
       sodipodi:cx="557.03125"
       id="path3165-7"
       style="fill:#000000;fill-opacity:1;stroke:#000000;stroke-width:1;stroke-linecap:round;stroke-miterlimit:4;stroke-opacity:1;stroke-dasharray:none;stroke-dashoffset:0"
       sodipodi:type="arc" />
    <g
       id="g6271"
       transform="matrix(1.668513,0,0,-1.668513,-266.50305,1278.6473)"
       xml:space="preserve"
       stroke-miterlimit="10.433"
       font-style="normal"
       font-variant="normal"
       font-weight="normal"
       font-stretch="normal"
       font-size-adjust="none"
       letter-spacing="normal"
       word-spacing="normal"
       ns0:text="$\\cameraCenter_{l}$"
       ns0:preamble="/home/taihu/Documents/tesis/inkscape_preamble.tex"
       style="font-style:normal;font-variant:normal;font-weight:normal;font-stretch:normal;letter-spacing:normal;word-spacing:normal;text-anchor:start;fill:none;stroke:#000000;stroke-linecap:butt;stroke-linejoin:miter;stroke-miterlimit:10.43299961;stroke-opacity:1;stroke-dasharray:none;stroke-dashoffset:0"><path
         d="m 228.82,709.29 0,0.12 -0.01,0.13 -0.01,0.12 -0.02,0.11 -0.02,0.12 -0.03,0.11 -0.03,0.11 -0.04,0.11 -0.05,0.1 -0.05,0.1 -0.05,0.1 -0.06,0.09 -0.06,0.1 -0.07,0.08 -0.08,0.09 -0.08,0.08 -0.08,0.07 -0.09,0.08 -0.09,0.06 -0.1,0.07 -0.1,0.06 -0.11,0.05 -0.11,0.05 -0.11,0.05 -0.12,0.04 -0.13,0.03 -0.13,0.03 -0.13,0.03 -0.14,0.02 -0.14,0.01 -0.14,0.01 -0.15,0 v -0.35 c 0.42,0 0.83,-0.16 1.05,-0.51 0.21,-0.34 0.21,-0.88 0.21,-1.36 0,-0.86 0,-1.94 -1.26,-1.94 h 0 c -1.27,0 -1.27,1.08 -1.27,1.94 0,0.45 0,0.95 0.17,1.29 0.19,0.37 0.61,0.58 1.1,0.58 v 0.35 c -1.63,0 -2.54,-1.01 -2.54,-2.33 0,-1.23 0.88,-2.22 2.54,-2.22 1.67,0 2.53,1 2.53,2.22 z"
         id="path6273"
         inkscape:connector-curvature="0"
         style="fill:#000000;stroke-width:0" /><path
         d="m 231.12,710.25 0.01,0 0,0 0,0 0,0 0,0 0,0 0,0.01 0,0 0,0 0,0 0,0.01 0,0 0,0 0,0.01 0.01,0 0,0.01 0,0 0,0.01 0,0.01 0,0 0,0.01 0,0 0.01,0 0,0.01 0,0 0,0.01 0,0 0,0 0,0.01 0,0 0,0 0,0 0,0 0,0 0,0.01 0,0 0,0 0,0 0,0 0,0 0,0 c 0,0.03 -0.03,0.1 -0.11,0.1 -0.14,0 -0.72,-0.06 -0.89,-0.07 -0.05,-0.01 -0.15,-0.02 -0.15,-0.16 0,-0.1 0.1,-0.1 0.18,-0.1 0.33,0 0.33,-0.05 0.33,-0.1 0,-0.05 -0.01,-0.1 -0.03,-0.16 l -0.86,-3.43 c -0.02,-0.07 -0.03,-0.15 -0.03,-0.22 0,-0.44 0.4,-0.66 0.73,-0.66 0.17,0 0.38,0.06 0.56,0.37 0.15,0.26 0.24,0.67 0.24,0.69 0,0.1 -0.09,0.1 -0.11,0.1 -0.09,0 -0.11,-0.05 -0.14,-0.17 -0.09,-0.35 -0.22,-0.79 -0.52,-0.79 -0.19,0 -0.23,0.17 -0.23,0.34 0,0.07 0.02,0.2 0.04,0.28 z"
         id="path6275"
         inkscape:connector-curvature="0"
         style="fill:#000000;stroke-width:0" /></g>    <g
       id="g8933"
       transform="matrix(2.5440405,0,0,-2.5440405,-240.6997,1910.1785)"
       xml:space="preserve"
       stroke-miterlimit="10.433"
       font-style="normal"
       font-variant="normal"
       font-weight="normal"
       font-stretch="normal"
       font-size-adjust="none"
       letter-spacing="normal"
       word-spacing="normal"
       ns0:text="$z$"
       ns0:preamble="/home/taihu/Documents/tesis/inkscape_preamble.tex"
       style="font-style:normal;font-variant:normal;font-weight:normal;font-stretch:normal;letter-spacing:normal;word-spacing:normal;text-anchor:start;fill:none;stroke:#000000;stroke-linecap:butt;stroke-linejoin:miter;stroke-miterlimit:10.43299961;stroke-opacity:1;stroke-dasharray:none;stroke-dashoffset:0"><path
         style="fill:#000000;stroke-width:0"
         inkscape:connector-curvature="0"
         d="m 224.76,707.95 0.04,0.05 0.05,0.05 0.05,0.05 0.05,0.05 0.04,0.05 0.04,0.04 0.05,0.04 0.04,0.05 0.04,0.04 0.04,0.04 0.03,0.03 0.04,0.04 0.04,0.04 0.03,0.03 0.07,0.07 0.07,0.06 0.07,0.06 0.06,0.06 0.07,0.06 0.13,0.11 0.06,0.05 0.07,0.06 c 0,0.01 0.62,0.54 0.97,0.9 0.95,0.92 1.17,1.4 1.17,1.44 0,0.1 -0.09,0.1 -0.11,0.1 -0.07,0 -0.1,-0.02 -0.15,-0.11 -0.3,-0.48 -0.51,-0.64 -0.75,-0.64 -0.23,0 -0.36,0.15 -0.5,0.32 -0.19,0.23 -0.36,0.43 -0.69,0.43 -0.75,0 -1.2,-0.93 -1.2,-1.14 0,-0.05 0.03,-0.11 0.11,-0.11 0.09,0 0.11,0.05 0.13,0.11 0.19,0.46 0.77,0.47 0.85,0.47 0.21,0 0.4,-0.07 0.63,-0.15 0.39,-0.15 0.5,-0.15 0.76,-0.15 -0.36,-0.43 -1.19,-1.14 -1.38,-1.3 l -0.9,-0.83 c -0.67,-0.67 -1.02,-1.24 -1.02,-1.31 0,-0.09 0.1,-0.09 0.12,-0.09 0.08,0 0.1,0.02 0.16,0.13 0.23,0.34 0.53,0.61 0.84,0.61 0.23,0 0.33,-0.09 0.58,-0.38 0.17,-0.21 0.35,-0.36 0.64,-0.36 0.98,0 1.56,1.26 1.56,1.53 0,0.04 -0.04,0.1 -0.12,0.1 -0.09,0 -0.11,-0.06 -0.14,-0.13 -0.23,-0.65 -0.86,-0.84 -1.19,-0.84 -0.2,0 -0.38,0.06 -0.59,0.13 -0.34,0.13 -0.49,0.17 -0.7,0.17 -0.02,0 -0.17,0 -0.26,-0.03 z"
         id="path8935" /></g>    <g
       id="content-9"
       transform="matrix(1.7575367,0,0,-1.7575367,-236.98969,1353.8158)"
       xml:space="preserve"
       stroke-miterlimit="10.433"
       font-style="normal"
       font-variant="normal"
       font-weight="normal"
       font-stretch="normal"
       font-size-adjust="none"
       letter-spacing="normal"
       word-spacing="normal"
       ns0:text="$f$"
       ns0:preamble="/home/taihu/Documents/tesis/inkscape_preamble.tex"
       style="font-style:normal;font-variant:normal;font-weight:normal;font-stretch:normal;letter-spacing:normal;word-spacing:normal;text-anchor:start;fill:none;stroke:#000000;stroke-linecap:butt;stroke-linejoin:miter;stroke-miterlimit:10.43299961;stroke-opacity:1;stroke-dasharray:none;stroke-dashoffset:0"><path
         style="fill:#000000;stroke-width:0"
         inkscape:connector-curvature="0"
         d="m 227.08,711.1 h 0.86 c 0.2,0 0.3,0 0.3,0.2 0,0.11 -0.1,0.11 -0.27,0.11 h -0.83 l 0.21,1.13 c 0.04,0.21 0.18,0.91 0.24,1.03 0.09,0.19 0.26,0.34 0.47,0.34 0.04,0 0.3,0 0.49,-0.18 -0.44,-0.04 -0.54,-0.39 -0.54,-0.53 0,-0.23 0.18,-0.35 0.37,-0.35 0.25,0 0.54,0.22 0.54,0.59 0,0.46 -0.45,0.69 -0.86,0.69 -0.34,0 -0.97,-0.18 -1.27,-1.16 -0.05,-0.21 -0.08,-0.31 -0.32,-1.56 h -0.69 c -0.19,0 -0.3,0 -0.3,-0.19 0,-0.12 0.09,-0.12 0.28,-0.12 h 0.66 l -0.75,-3.93 c -0.18,-0.96 -0.35,-1.86 -0.87,-1.86 -0.04,0 -0.28,0 -0.47,0.18 0.46,0.03 0.55,0.38 0.55,0.53 0,0.23 -0.18,0.35 -0.37,0.35 -0.26,0 -0.55,-0.22 -0.55,-0.6 0,-0.44 0.44,-0.68 0.84,-0.68 0.55,0 0.95,0.58 1.13,0.96 0.32,0.63 0.55,1.83 0.56,1.9 z"
         id="path4589-2" /></g>    <path
       sodipodi:nodetypes="cc"
       inkscape:connector-curvature="0"
       id="path3039"
       d="m 186.54455,55.242304 0,103.567696"
       style="fill:none;stroke:#969696;stroke-width:1;stroke-linecap:butt;stroke-linejoin:miter;stroke-miterlimit:4;stroke-opacity:1;stroke-dasharray:none;marker-start:url(#StopMu);marker-end:url(#StopMG)" />
    <path
       style="fill:none;stroke:#000000;stroke-width:1;stroke-linecap:butt;stroke-linejoin:miter;stroke-miterlimit:4;stroke-opacity:1;stroke-dasharray:3, 1;stroke-dashoffset:0"
       d="M 124.88877,96.77192 331.90861,-22.751038"
       id="path3087"
       inkscape:connector-curvature="0" />
    <g
       id="g4235"
       transform="matrix(2.6939322,0,0,-2.6939322,-264.53151,1876.5998)"
       xml:space="preserve"
       stroke-miterlimit="10.433"
       font-style="normal"
       font-variant="normal"
       font-weight="normal"
       font-stretch="normal"
       font-size-adjust="none"
       letter-spacing="normal"
       word-spacing="normal"
       ns0:text="$\\point$"
       ns0:preamble="/home/taihu/Documents/tesis/inkscape_preamble.tex"
       style="font-style:normal;font-variant:normal;font-weight:normal;font-stretch:normal;letter-spacing:normal;word-spacing:normal;text-anchor:start;fill:none;stroke:#000000;stroke-linecap:butt;stroke-linejoin:miter;stroke-miterlimit:10.43299961;stroke-opacity:1;stroke-dasharray:none;stroke-dashoffset:0"><path
         style="fill:#000000;stroke-width:0"
         inkscape:connector-curvature="0"
         d="m 226.87,709.57 1.17,1.29 c 0.13,0.14 0.19,0.21 1.01,0.21 v 0.47 c -0.34,-0.02 -0.86,-0.03 -0.91,-0.03 -0.25,0 -0.75,0.02 -1.03,0.03 v -0.47 c 0.14,0 0.26,-0.02 0.38,-0.09 -0.04,-0.06 -0.04,-0.08 -0.08,-0.12 l -0.83,-0.93 -0.98,1.14 h 0.4 v 0.47 c -0.26,-0.01 -0.89,-0.03 -1.21,-0.03 -0.31,0 -0.76,0.02 -1.09,0.03 v -0.47 h 0.71 l 1.55,-1.83 -1.3,-1.46 c -0.17,-0.19 -0.53,-0.19 -1.01,-0.19 v -0.47 c 0.35,0.03 0.87,0.04 0.92,0.04 0.25,0 0.82,-0.02 1.02,-0.04 v 0.47 c -0.18,0 -0.37,0.05 -0.37,0.11 0,0.01 0,0.02 0.07,0.1 l 0.97,1.08 1.09,-1.29 h -0.39 v -0.47 c 0.26,0.02 0.87,0.04 1.2,0.04 0.32,0 0.76,-0.02 1.09,-0.04 v 0.47 h -0.7 z"
         id="path4237" /></g>    <path
       transform="matrix(0,0.54819277,-0.54819277,0,297.95945,-209.47101)"
       d="m 561.71875,314.03766 a 4.6875,4.6875 0 1 1 -9.375,0 4.6875,4.6875 0 1 1 9.375,0 z"
       sodipodi:ry="4.6875"
       sodipodi:rx="4.6875"
       sodipodi:cy="314.03766"
       sodipodi:cx="557.03125"
       id="path3165-7-2"
       style="fill:#000000;fill-opacity:1;stroke:#000000;stroke-width:1;stroke-linecap:round;stroke-miterlimit:4;stroke-opacity:1;stroke-dasharray:none;stroke-dashoffset:0;display:inline"
       sodipodi:type="arc" />
    <path
       transform="matrix(0,0.54819277,-0.54819277,0,504.99947,-328.66698)"
       d="m 561.71875,314.03766 a 4.6875,4.6875 0 1 1 -9.375,0 4.6875,4.6875 0 1 1 9.375,0 z"
       sodipodi:ry="4.6875"
       sodipodi:rx="4.6875"
       sodipodi:cy="314.03766"
       sodipodi:cx="557.03125"
       id="path3165-7-9"
       style="fill:#000000;fill-opacity:1;stroke:#000000;stroke-width:1;stroke-linecap:round;stroke-miterlimit:4;stroke-opacity:1;stroke-dasharray:none;stroke-dashoffset:0;display:inline"
       sodipodi:type="arc" />
    <path
       sodipodi:nodetypes="cc"
       inkscape:connector-curvature="0"
       id="path3039-3"
       d="m 333.24267,-24.318723 0,119.434883"
       style="fill:none;stroke:#969696;stroke-width:1;stroke-linecap:butt;stroke-linejoin:miter;stroke-miterlimit:4;stroke-opacity:1;stroke-dasharray:none;marker-start:url(#StopMu);marker-end:url(#StopMG);display:inline" />
    <g
       id="g4556"
       transform="matrix(1.7120875,0,0,-1.7120875,-183.62896,1316.6183)"
       xml:space="preserve"
       stroke-miterlimit="10.433"
       font-style="normal"
       font-variant="normal"
       font-weight="normal"
       font-stretch="normal"
       font-size-adjust="none"
       letter-spacing="normal"
       word-spacing="normal"
       ns0:text="$c_{u}$"
       ns0:preamble="/home/taihu/Documents/tesis/inkscape_preamble.tex"
       style="font-style:normal;font-variant:normal;font-weight:normal;font-stretch:normal;letter-spacing:normal;word-spacing:normal;text-anchor:start;fill:none;stroke:#000000;stroke-linecap:butt;stroke-linejoin:miter;stroke-miterlimit:10.43299961;stroke-opacity:1;stroke-dasharray:none;stroke-dashoffset:0;display:inline"><path
         style="fill:#000000;stroke-width:0"
         inkscape:connector-curvature="0"
         d="m 227.37,710.9 -0.03,0 -0.03,0 -0.03,0 -0.02,0 -0.03,0 -0.03,-0.01 -0.01,0 -0.02,0 -0.01,0 -0.01,-0.01 -0.02,0 -0.01,0 -0.01,-0.01 -0.02,0 -0.01,-0.01 -0.01,-0.01 -0.02,0 -0.01,-0.01 -0.01,-0.01 -0.02,0 -0.01,-0.01 -0.01,-0.01 -0.02,-0.01 -0.01,-0.01 -0.01,-0.02 -0.02,-0.01 c -0.16,-0.15 -0.17,-0.32 -0.17,-0.39 0,-0.23 0.17,-0.34 0.36,-0.34 0.29,0 0.56,0.23 0.56,0.63 0,0.49 -0.47,0.86 -1.17,0.86 -1.35,0 -2.67,-1.43 -2.67,-2.83 0,-0.89 0.58,-1.67 1.61,-1.67 1.42,0 2.26,1.05 2.26,1.17 0,0.06 -0.06,0.13 -0.12,0.13 -0.05,0 -0.07,-0.02 -0.13,-0.1 -0.78,-0.99 -1.87,-0.99 -1.99,-0.99 -0.62,0 -0.89,0.49 -0.89,1.09 0,0.4 0.19,1.37 0.53,1.98 0.31,0.57 0.86,1 1.41,1 0.33,0 0.71,-0.13 0.85,-0.4 z"
         id="path4558" /><path
         style="fill:#000000;stroke-width:0"
         inkscape:connector-curvature="0"
         d="m 230.69,706.76 0,-0.02 -0.01,-0.01 0,-0.01 -0.01,-0.02 0,-0.02 0,-0.01 -0.01,-0.03 -0.01,-0.04 -0.01,-0.03 -0.01,-0.04 0,-0.01 0,-0.02 -0.01,-0.01 0,-0.02 -0.01,-0.01 0,-0.02 0,-0.01 -0.01,-0.01 0,-0.01 0,-0.02 -0.01,-0.01 0,0 0,-0.01 0,-0.01 -0.01,0 0,0 0,-0.01 0,0 0,0 0,0 0,0 0,0 c -0.13,-0.22 -0.41,-0.59 -0.84,-0.59 -0.49,0 -0.49,0.45 -0.49,0.57 0,0.41 0.2,0.91 0.39,1.41 0.06,0.14 0.1,0.25 0.1,0.36 0,0.36 -0.31,0.6 -0.66,0.6 -0.7,0 -1.01,-0.96 -1.01,-1.07 0,-0.09 0.1,-0.09 0.12,-0.09 0.1,0 0.1,0.04 0.12,0.11 0.17,0.57 0.48,0.85 0.75,0.85 0.12,0 0.17,-0.07 0.17,-0.24 0,-0.16 -0.05,-0.31 -0.12,-0.47 -0.38,-0.96 -0.38,-1.16 -0.38,-1.34 0,-0.12 0,-0.44 0.26,-0.67 0.2,-0.16 0.47,-0.22 0.72,-0.22 0.44,0 0.67,0.24 0.9,0.46 0.16,-0.44 0.62,-0.46 0.71,-0.46 0.23,0 0.41,0.14 0.55,0.37 0.15,0.27 0.25,0.67 0.25,0.69 0,0.1 -0.1,0.1 -0.12,0.1 -0.1,0 -0.11,-0.03 -0.15,-0.22 -0.09,-0.33 -0.22,-0.74 -0.51,-0.74 -0.18,0 -0.23,0.16 -0.23,0.34 0,0.12 0.05,0.37 0.1,0.55 0.05,0.18 0.12,0.47 0.16,0.62 l 0.15,0.62 c 0.05,0.18 0.12,0.48 0.12,0.52 0,0.13 -0.11,0.22 -0.23,0.22 -0.25,0 -0.3,-0.2 -0.36,-0.43 z"
         id="path4560" /></g>    <g
       style="font-style:normal;font-variant:normal;font-weight:normal;font-stretch:normal;letter-spacing:normal;word-spacing:normal;text-anchor:start;fill:none;stroke:#000000;stroke-linecap:butt;stroke-linejoin:miter;stroke-miterlimit:10.43299961;stroke-opacity:1;stroke-dasharray:none;stroke-dashoffset:0"
       ns0:preamble="/home/taihu/Documents/tesis/inkscape_preamble.tex"
       ns0:text="$u_{l}$"
       word-spacing="normal"
       letter-spacing="normal"
       font-size-adjust="none"
       font-stretch="normal"
       font-weight="normal"
       font-variant="normal"
       font-style="normal"
       stroke-miterlimit="10.433"
       xml:space="preserve"
       transform="matrix(1.6896548,0,0,-1.6896548,-206.75393,1312.3445)"
       id="g4681"><path
         style="fill:#000000;stroke-width:0"
         inkscape:connector-curvature="0"
         id="path4683"
         d="m 226.91,707.68 0.02,-0.04 0.01,-0.03 0.01,-0.04 0.02,-0.03 0.01,-0.04 0.02,-0.03 0.02,-0.03 0.02,-0.03 0.02,-0.03 0.02,-0.03 0.03,-0.03 0.02,-0.03 0.03,-0.02 0.02,-0.03 0.03,-0.02 0.03,-0.02 0.03,-0.03 0.03,-0.01 0.03,-0.02 0.03,-0.02 0.03,-0.02 0.04,-0.01 0.03,-0.02 0.04,-0.01 0.03,-0.01 0.04,-0.01 0.04,-0.01 0.03,0 0.04,-0.01 0.04,0 0.04,0 0.04,0 c 0.35,0 0.58,0.22 0.74,0.54 0.17,0.36 0.29,0.97 0.29,0.99 0,0.1 -0.09,0.1 -0.12,0.1 -0.09,0 -0.1,-0.05 -0.13,-0.18 -0.14,-0.56 -0.33,-1.24 -0.75,-1.24 -0.21,0 -0.31,0.13 -0.31,0.46 0,0.22 0.12,0.69 0.2,1.03 l 0.28,1.08 c 0.03,0.15 0.13,0.52 0.17,0.67 0.05,0.23 0.15,0.61 0.15,0.67 0,0.18 -0.14,0.27 -0.29,0.27 -0.05,0 -0.31,-0.01 -0.39,-0.35 -0.19,-0.73 -0.63,-2.47 -0.75,-2.99 -0.01,-0.04 -0.4,-0.84 -1.13,-0.84 -0.52,0 -0.62,0.45 -0.62,0.82 0,0.55 0.28,1.34 0.54,2.03 0.12,0.29 0.17,0.43 0.17,0.62 0,0.45 -0.32,0.82 -0.82,0.82 -0.94,0 -1.31,-1.44 -1.31,-1.53 0,-0.1 0.1,-0.1 0.12,-0.1 0.1,0 0.11,0.02 0.16,0.18 0.25,0.86 0.63,1.23 1,1.23 0.09,0 0.25,-0.01 0.25,-0.33 0,-0.24 -0.11,-0.53 -0.17,-0.68 -0.37,-0.98 -0.57,-1.6 -0.57,-2.08 0,-0.95 0.68,-1.19 1.22,-1.19 0.66,0 1.01,0.44 1.18,0.66 z" /><path
         style="fill:#000000;stroke-width:0"
         inkscape:connector-curvature="0"
         id="path4685"
         d="m 231.1,710.25 0,0 0,0 0,0 0,0 0,0 0,0 0,0.01 0,0 0,0 0,0 0.01,0.01 0,0 0,0 0,0.01 0,0 0,0.01 0,0 0,0.01 0.01,0.01 0,0 0,0.01 0,0 0,0 0,0.01 0,0 0,0.01 0,0 0,0 0.01,0.01 0,0 0,0 0,0 0,0 0,0 0,0.01 0,0 0,0 0,0 0,0 0,0 0,0 c 0,0.03 -0.03,0.1 -0.12,0.1 -0.13,0 -0.71,-0.06 -0.89,-0.07 -0.05,-0.01 -0.14,-0.02 -0.14,-0.16 0,-0.1 0.09,-0.1 0.17,-0.1 0.34,0 0.34,-0.05 0.34,-0.1 0,-0.05 -0.02,-0.1 -0.03,-0.16 l -0.86,-3.43 c -0.03,-0.07 -0.03,-0.15 -0.03,-0.22 0,-0.44 0.39,-0.66 0.73,-0.66 0.16,0 0.37,0.06 0.55,0.37 0.15,0.26 0.25,0.67 0.25,0.69 0,0.1 -0.09,0.1 -0.11,0.1 -0.1,0 -0.11,-0.05 -0.14,-0.17 -0.09,-0.35 -0.23,-0.79 -0.52,-0.79 -0.19,0 -0.24,0.17 -0.24,0.34 0,0.07 0.02,0.2 0.04,0.28 z" /></g>    <g
       id="content"
       transform="matrix(1.5807383,0,0,-1.5807383,-154.09212,1179.2451)"
       xml:space="preserve"
       stroke-miterlimit="10.433"
       font-style="normal"
       font-variant="normal"
       font-weight="normal"
       font-stretch="normal"
       font-size-adjust="none"
       letter-spacing="normal"
       word-spacing="normal"
       ns0:text="$\\imagePoint_{l}$"
       ns0:preamble="/home/taihu/Documents/tesis/inkscape_preamble.tex"
       style="font-style:normal;font-variant:normal;font-weight:normal;font-stretch:normal;letter-spacing:normal;word-spacing:normal;text-anchor:start;fill:none;stroke:#000000;stroke-linecap:butt;stroke-linejoin:miter;stroke-miterlimit:10.43299961;stroke-opacity:1;stroke-dasharray:none;stroke-dashoffset:0"><path
         style="fill:#000000;stroke-width:0"
         inkscape:connector-curvature="0"
         d="m 227.79,707.84 v -0.77 l 1.76,0.05 v 0.47 c -0.62,0 -0.69,0 -0.69,0.39 v 3.61 l -1.82,-0.07 v -0.47 c 0.62,0 0.69,0 0.69,-0.39 v -1.9 c 0,-0.81 -0.51,-1.34 -1.23,-1.34 -0.77,0 -0.8,0.25 -0.8,0.79 v 3.38 l -1.82,-0.07 v -0.47 c 0.62,0 0.69,0 0.69,-0.39 v -2.31 c 0,-1.07 0.8,-1.28 1.79,-1.28 0.26,0 0.97,0 1.43,0.77 z"
         id="path4807" /><path
         style="fill:#000000;stroke-width:0"
         inkscape:connector-curvature="0"
         d="m 231.76,710.25 0,0 0,0 0,0 0,0 0,0 0,0 0,0.01 0,0 0.01,0 0,0 0,0.01 0,0 0,0 0,0.01 0,0 0,0.01 0,0 0.01,0.01 0,0.01 0,0 0,0.01 0,0 0,0 0,0.01 0,0 0,0.01 0.01,0 0,0 0,0.01 0,0 0,0 0,0 0,0 0,0 0,0.01 0,0 0,0 0,0 0,0 0,0 0,0 c 0,0.03 -0.03,0.1 -0.11,0.1 -0.14,0 -0.72,-0.06 -0.89,-0.07 -0.05,-0.01 -0.15,-0.02 -0.15,-0.16 0,-0.1 0.1,-0.1 0.17,-0.1 0.34,0 0.34,-0.05 0.34,-0.1 0,-0.05 -0.02,-0.1 -0.03,-0.16 l -0.86,-3.43 c -0.02,-0.07 -0.03,-0.15 -0.03,-0.22 0,-0.44 0.4,-0.66 0.73,-0.66 0.17,0 0.38,0.06 0.56,0.37 0.14,0.26 0.24,0.67 0.24,0.69 0,0.1 -0.09,0.1 -0.11,0.1 -0.1,0 -0.11,-0.05 -0.14,-0.17 -0.09,-0.35 -0.22,-0.79 -0.52,-0.79 -0.19,0 -0.24,0.17 -0.24,0.34 0,0.07 0.02,0.2 0.04,0.28 z"
         id="path4809" /></g>    <path
       transform="matrix(0,0.54819277,-0.54819277,0,367.56527,-209.74723)"
       d="m 561.71875,314.03766 a 4.6875,4.6875 0 1 1 -9.375,0 4.6875,4.6875 0 1 1 9.375,0 z"
       sodipodi:ry="4.6875"
       sodipodi:rx="4.6875"
       sodipodi:cy="314.03766"
       sodipodi:cx="557.03125"
       id="path3165-7-2-2"
       style="fill:#000000;fill-opacity:1;stroke:#000000;stroke-width:1;stroke-linecap:round;stroke-miterlimit:4;stroke-opacity:1;stroke-dasharray:none;stroke-dashoffset:0;display:inline"
       sodipodi:type="arc" />
    <g
       style="font-style:normal;font-variant:normal;font-weight:normal;font-stretch:normal;letter-spacing:normal;word-spacing:normal;text-anchor:start;fill:none;stroke:#000000;stroke-linecap:butt;stroke-linejoin:miter;stroke-miterlimit:10.43299961;stroke-opacity:1;stroke-dasharray:none;stroke-dashoffset:0;display:inline"
       ns0:preamble="/home/taihu/Documents/tesis/inkscape_preamble.tex"
       ns0:text="$x$"
       word-spacing="normal"
       letter-spacing="normal"
       font-size-adjust="none"
       font-stretch="normal"
       font-weight="normal"
       font-variant="normal"
       font-style="normal"
       stroke-miterlimit="10.433"
       xml:space="preserve"
       transform="matrix(2.3007215,0,0,-2.3007215,-178.07474,1666.7851)"
       id="g3136"><path
         id="path3138"
         d="m 226.76,710.12 0,0.03 0.01,0.03 0.01,0.03 0.01,0.04 0.01,0.04 0.01,0.04 0.01,0.04 0.02,0.05 0.01,0.04 0.02,0.05 0.02,0.05 0.02,0.05 0.02,0.05 0.03,0.05 0.02,0.05 0.03,0.05 0.03,0.05 0.03,0.04 0.03,0.05 0.04,0.04 0.04,0.05 0.04,0.04 0.04,0.04 0.04,0.03 0.05,0.03 0.05,0.03 0.02,0.01 0.03,0.02 0.02,0.01 0.03,0.01 0.03,0.01 0.03,0 0.03,0.01 0.02,0.01 0.04,0 0.03,0 0.03,0.01 0.03,0 c 0.05,0 0.29,0 0.5,-0.13 -0.28,-0.05 -0.48,-0.3 -0.48,-0.54 0,-0.16 0.11,-0.35 0.38,-0.35 0.22,0 0.54,0.18 0.54,0.58 0,0.52 -0.59,0.66 -0.93,0.66 -0.58,0 -0.93,-0.53 -1.04,-0.76 -0.25,0.66 -0.79,0.76 -1.08,0.76 -1.03,0 -1.6,-1.29 -1.6,-1.53 0,-0.1 0.1,-0.1 0.12,-0.1 0.08,0 0.11,0.02 0.13,0.11 0.34,1.05 0.99,1.3 1.33,1.3 0.19,0 0.54,-0.09 0.54,-0.67 0,-0.31 -0.17,-0.97 -0.54,-2.36 -0.16,-0.62 -0.51,-1.04 -0.94,-1.04 -0.06,0 -0.29,0 -0.5,0.13 0.25,0.05 0.47,0.26 0.47,0.54 0,0.27 -0.22,0.35 -0.37,0.35 -0.3,0 -0.55,-0.26 -0.55,-0.58 0,-0.46 0.5,-0.65 0.94,-0.65 0.65,0 1.01,0.69 1.04,0.75 0.12,-0.37 0.48,-0.75 1.07,-0.75 1.03,0 1.6,1.28 1.6,1.53 0,0.1 -0.09,0.1 -0.12,0.1 -0.09,0 -0.11,-0.05 -0.13,-0.11 -0.33,-1.07 -1.01,-1.31 -1.33,-1.31 -0.38,0 -0.54,0.32 -0.54,0.66 0,0.22 0.06,0.44 0.17,0.87 z"
         inkscape:connector-curvature="0"
         style="fill:#000000;stroke-width:0" /></g>  </g>
</svg>
