<?xml version="1.0" encoding="UTF-8" standalone="no"?>
<!-- Created with Inkscape (http://www.inkscape.org/) -->

<svg
   xmlns:dc="http://purl.org/dc/elements/1.1/"
   xmlns:cc="http://creativecommons.org/ns#"
   xmlns:rdf="http://www.w3.org/1999/02/22-rdf-syntax-ns#"
   xmlns:svg="http://www.w3.org/2000/svg"
   xmlns="http://www.w3.org/2000/svg"
   xmlns:sodipodi="http://sodipodi.sourceforge.net/DTD/sodipodi-0.dtd"
   xmlns:inkscape="http://www.inkscape.org/namespaces/inkscape"
   width="372.41412"
   height="342.16266"
   id="svg4477"
   version="1.1"
   inkscape:version="0.48.4 r9939"
   sodipodi:docname="rectification.svg">
  <defs
     id="defs4479" />
  <sodipodi:namedview
     id="base"
     pagecolor="#ffffff"
     bordercolor="#666666"
     borderopacity="1.0"
     inkscape:pageopacity="0.0"
     inkscape:pageshadow="2"
     inkscape:zoom="0.70000001"
     inkscape:cx="177.03023"
     inkscape:cy="187.2971"
     inkscape:document-units="px"
     inkscape:current-layer="layer1"
     showgrid="false"
     inkscape:window-width="1366"
     inkscape:window-height="744"
     inkscape:window-x="0"
     inkscape:window-y="24"
     inkscape:window-maximized="1"
     showborder="false"
     inkscape:showpageshadow="false"
     fit-margin-top="0"
     fit-margin-left="0"
     fit-margin-right="0"
     fit-margin-bottom="0" />
  <metadata
     id="metadata4482">
    <rdf:RDF>
      <cc:Work
         rdf:about="">
        <dc:format>image/svg+xml</dc:format>
        <dc:type
           rdf:resource="http://purl.org/dc/dcmitype/StillImage" />
        <dc:title />
      </cc:Work>
    </rdf:RDF>
  </metadata>
  <g
     inkscape:label="Layer 1"
     inkscape:groupmode="layer"
     id="layer1"
     transform="translate(-260.3042,-145.92372)">
    <g
       transform="matrix(1.6865856,0,0,-1.6865856,329.17424,442.75769)"
       id="g3267">
      <path
         id="path3269"
         style="fill:none;stroke:#bdbcbc;stroke-width:0.5;stroke-linecap:butt;stroke-linejoin:miter;stroke-miterlimit:3.86400008;stroke-opacity:1;stroke-dasharray:2, 2;stroke-dashoffset:0"
         d="m 0,0 0,19.736 m 0,0 140.957,0"
         inkscape:connector-curvature="0" />
    </g>
    <g
       transform="matrix(1.6865856,0,0,-1.6865856,329.17424,155.76323)"
       id="g3271">
      <path
         id="path3273"
         style="fill:none;stroke:#231f20;stroke-width:1;stroke-linecap:butt;stroke-linejoin:miter;stroke-miterlimit:3.86400008;stroke-opacity:1;stroke-dasharray:none"
         d="m 0,0 0,-150.427 25.97,0"
         inkscape:connector-curvature="0" />
    </g>
    <g
       transform="matrix(1.6865856,0,0,-1.6865856,329.17424,156.46657)"
       id="g3275">
      <path
         id="path3277"
         style="fill:#231f20;fill-opacity:1;fill-rule:evenodd;stroke:none"
         d="M 0,0 -2.5,0 0,6.251 2.5,0 0,0"
         inkscape:connector-curvature="0" />
    </g>
    <g
       transform="matrix(1.6865856,0,0,-1.6865856,372.27325,409.47125)"
       id="g3279">
      <path
         id="path3281"
         style="fill:#231f20;fill-opacity:1;fill-rule:evenodd;stroke:none"
         d="M 0,0 0,2.5 6.25,0 0,-2.5 0,0"
         inkscape:connector-curvature="0" />
    </g>
    <g
       transform="matrix(1.6865856,0,0,-1.6865856,329.17424,409.47125)"
       id="g3283">
      <path
         id="path3285"
         style="fill:none;stroke:#231f20;stroke-width:1;stroke-linecap:butt;stroke-linejoin:miter;stroke-miterlimit:3.86400008;stroke-opacity:1;stroke-dasharray:2, 2;stroke-dashoffset:0"
         d="M 0,0 65.457,112.927"
         inkscape:connector-curvature="0" />
    </g>
    <g
       transform="matrix(1.6865856,0,0,-1.6865856,440.40456,406.09808)"
       id="g3287">
      <path
         id="path3289"
         style="fill:none;stroke:#231f20;stroke-width:1;stroke-linecap:butt;stroke-linejoin:miter;stroke-miterlimit:3.86400008;stroke-opacity:1;stroke-dasharray:4, 4;stroke-dashoffset:0"
         d="M 0,0 0,104.052"
         inkscape:connector-curvature="0" />
    </g>
    <g
       transform="matrix(1.6865856,0,0,-1.6865856,443.2161,399.07006)"
       id="g3291">
      <path
         id="path3293"
         style="fill:none;stroke:#231f20;stroke-width:1;stroke-linecap:round;stroke-linejoin:miter;stroke-miterlimit:3.86400008;stroke-opacity:1;stroke-dasharray:none"
         d="M 0,0 -1.667,-4.792 -3.334,0 m 0,95.718 1.667,4.792 L 0,95.718"
         inkscape:connector-curvature="0" />
    </g>
    <g
       transform="matrix(1.6865856,0,0,-1.6865856,566.91029,155.76323)"
       id="g3295">
      <path
         id="path3297"
         style="fill:none;stroke:#231f20;stroke-width:1;stroke-linecap:butt;stroke-linejoin:miter;stroke-miterlimit:3.86400008;stroke-opacity:1;stroke-dasharray:none"
         d="m 0,0 0,-150.427 25.97,0"
         inkscape:connector-curvature="0" />
    </g>
    <g
       transform="matrix(1.6865856,0,0,-1.6865856,566.91029,156.46657)"
       id="g3299">
      <path
         id="path3301"
         style="fill:#231f20;fill-opacity:1;fill-rule:evenodd;stroke:none"
         d="M 0,0 -2.501,0 0,6.251 2.5,0 0,0"
         inkscape:connector-curvature="0" />
    </g>
    <g
       transform="matrix(1.6865856,0,0,-1.6865856,610.0076,409.47125)"
       id="g3303">
      <path
         id="path3305"
         style="fill:#231f20;fill-opacity:1;fill-rule:evenodd;stroke:none"
         d="M 0,0 0,2.5 6.25,0 0,-2.5 0,0"
         inkscape:connector-curvature="0" />
    </g>
    <g
       transform="matrix(1.6865856,0,0,-1.6865856,566.91029,409.47125)"
       id="g3307">
      <path
         id="path3309"
         style="fill:none;stroke:#231f20;stroke-width:1;stroke-linecap:butt;stroke-linejoin:miter;stroke-miterlimit:3.86400008;stroke-opacity:1;stroke-dasharray:2, 2;stroke-dashoffset:0"
         d="M 0,0 -74.375,112.927"
         inkscape:connector-curvature="0" />
    </g>
    <g
       transform="matrix(1.6865856,0,0,-1.6865856,262.40736,337.49285)"
       id="g3311">
      <path
         id="path3313"
         style="fill:none;stroke:#231f20;stroke-width:2;stroke-linecap:butt;stroke-linejoin:miter;stroke-miterlimit:3.86400008;stroke-opacity:1;stroke-dasharray:none"
         d="m 0,0 77.825,0 m 63.903,0 77.824,0"
         inkscape:connector-curvature="0" />
    </g>
    <g
       transform="matrix(1.6865856,0,0,-1.6865856,390.97579,406.09808)"
       id="g3315">
      <path
         id="path3317"
         style="fill:none;stroke:#231f20;stroke-width:1;stroke-linecap:butt;stroke-linejoin:miter;stroke-miterlimit:3.86400008;stroke-opacity:1;stroke-dasharray:4, 4;stroke-dashoffset:0"
         d="M 0,0 0,37.363"
         inkscape:connector-curvature="0" />
    </g>
    <g
       transform="matrix(1.6865856,0,0,-1.6865856,393.78733,399.07006)"
       id="g3319">
      <path
         id="path3321"
         style="fill:none;stroke:#231f20;stroke-width:1;stroke-linecap:round;stroke-linejoin:miter;stroke-miterlimit:3.86400008;stroke-opacity:1;stroke-dasharray:none"
         d="M 0,0 -1.667,-4.792 -3.334,0 m 0,29.029 1.667,4.792 L 0,29.029"
         inkscape:connector-curvature="0" />
    </g>
    <g
       transform="matrix(1.6865856,0,0,-1.6865856,628.96483,406.09808)"
       id="g3323">
      <path
         id="path3325"
         style="fill:none;stroke:#231f20;stroke-width:1;stroke-linecap:butt;stroke-linejoin:miter;stroke-miterlimit:3.86400008;stroke-opacity:1;stroke-dasharray:4, 4;stroke-dashoffset:0"
         d="M 0,0 0,37.363"
         inkscape:connector-curvature="0" />
    </g>
    <g
       transform="matrix(1.6865856,0,0,-1.6865856,631.7764,399.07006)"
       id="g3327">
      <path
         id="path3329"
         style="fill:none;stroke:#231f20;stroke-width:1;stroke-linecap:round;stroke-linejoin:miter;stroke-miterlimit:3.86400008;stroke-opacity:1;stroke-dasharray:none"
         d="M 0,0 -1.667,-4.792 -3.333,0 m 0,29.029 1.666,4.792 L 0,29.029"
         inkscape:connector-curvature="0" />
    </g>
    <g
       transform="matrix(1.6865856,0,0,-1.6865856,562.89621,436.13617)"
       id="g3331">
      <path
         id="path3333"
         style="fill:none;stroke:#231f20;stroke-width:1;stroke-linecap:butt;stroke-linejoin:miter;stroke-miterlimit:3.86400008;stroke-opacity:1;stroke-dasharray:4, 4;stroke-dashoffset:0"
         d="M 0,0 -136.674,0"
         inkscape:connector-curvature="0" />
    </g>
    <g
       transform="matrix(1.6865856,0,0,-1.6865856,555.86821,433.32632)"
       id="g3335">
      <path
         id="path3337"
         style="fill:none;stroke:#231f20;stroke-width:1;stroke-linecap:round;stroke-linejoin:miter;stroke-miterlimit:3.86400008;stroke-opacity:1;stroke-dasharray:none"
         d="M 0,0 4.792,-1.666 0,-3.333 m -128.34,0 -4.792,1.667 4.792,1.666"
         inkscape:connector-curvature="0" />
    </g>
    <g
       transform="matrix(1.6865856,0,0,-1.6865856,566.91029,442.75769)"
       id="g3339">
      <path
         id="path3341"
         style="fill:none;stroke:#bdbcbc;stroke-width:0.5;stroke-linecap:butt;stroke-linejoin:miter;stroke-miterlimit:3.86400008;stroke-opacity:1;stroke-dasharray:2, 2;stroke-dashoffset:0"
         d="M 0,0 0,19.736"
         inkscape:connector-curvature="0" />
    </g>
    <g
       transform="matrix(1.6865856,0,0,-1.6865856,324.25278,409.47125)"
       id="g3343">
      <path
         id="path3345"
         style="fill:#7b7979;fill-opacity:1;fill-rule:nonzero;stroke:none"
         d="M 0,0 C 0,1.612 1.307,2.918 2.918,2.918 4.53,2.918 5.836,1.612 5.836,0 5.836,-1.612 4.53,-2.918 2.918,-2.918 1.307,-2.918 0,-1.612 0,0"
         inkscape:connector-curvature="0" />
    </g>
    <g
       transform="matrix(1.6865856,0,0,-1.6865856,324.25278,409.47125)"
       id="g3347">
      <path
         id="path3349"
         style="fill:none;stroke:#231f20;stroke-width:1;stroke-linecap:butt;stroke-linejoin:miter;stroke-miterlimit:3.86400008;stroke-opacity:1;stroke-dasharray:none"
         d="M 0,0 C 0,1.612 1.307,2.918 2.918,2.918 4.53,2.918 5.836,1.612 5.836,0 5.836,-1.612 4.53,-2.918 2.918,-2.918 1.307,-2.918 0,-1.612 0,0 z"
         inkscape:connector-curvature="0" />
    </g>
    <g
       transform="matrix(1.6865856,0,0,-1.6865856,562.6213,409.47125)"
       id="g3351">
      <path
         id="path3353"
         style="fill:#7b7979;fill-opacity:1;fill-rule:nonzero;stroke:none"
         d="M 0,0 C 0,1.612 1.306,2.918 2.918,2.918 4.53,2.918 5.836,1.612 5.836,0 5.836,-1.612 4.53,-2.918 2.918,-2.918 1.306,-2.918 0,-1.612 0,0"
         inkscape:connector-curvature="0" />
    </g>
    <g
       transform="matrix(1.6865856,0,0,-1.6865856,562.6213,409.47125)"
       id="g3355">
      <path
         id="path3357"
         style="fill:none;stroke:#231f20;stroke-width:1;stroke-linecap:butt;stroke-linejoin:miter;stroke-miterlimit:3.86400008;stroke-opacity:1;stroke-dasharray:none"
         d="M 0,0 C 0,1.612 1.306,2.918 2.918,2.918 4.53,2.918 5.836,1.612 5.836,0 5.836,-1.612 4.53,-2.918 2.918,-2.918 1.306,-2.918 0,-1.612 0,0 z"
         inkscape:connector-curvature="0" />
    </g>
    <g
       transform="matrix(1.6865856,0,0,-1.6865856,265.71645,358.92599)"
       id="g3359">
      <path
         id="path3361"
         style="fill:none;stroke:#918f90;stroke-width:0.5;stroke-linecap:butt;stroke-linejoin:miter;stroke-miterlimit:3.86400008;stroke-opacity:1;stroke-dasharray:2, 2;stroke-dashoffset:0"
         d="M 0,0 12.332,0"
         inkscape:connector-curvature="0" />
    </g>
    <g
       transform="matrix(1.6865856,0,0,-1.6865856,266.20725,358.92599)"
       id="g3363">
      <path
         id="path3365"
         style="fill:#918f90;fill-opacity:1;fill-rule:evenodd;stroke:none"
         d="m 0,0 c 0,-0.967 -0.783,-1.75 -1.75,-1.75 -0.966,0 -1.75,0.783 -1.75,1.75 0,0.966 0.784,1.75 1.75,1.75 C -0.783,1.75 0,0.966 0,0"
         inkscape:connector-curvature="0" />
    </g>
    <g
       transform="matrix(1.6865856,0,0,-1.6865856,286.02463,358.92599)"
       id="g3367">
      <path
         id="path3369"
         style="fill:#918f90;fill-opacity:1;fill-rule:evenodd;stroke:none"
         d="M 0,0 0,1.75 4.375,0 0,-1.75 0,0"
         inkscape:connector-curvature="0" />
    </g>
    <g
       transform="matrix(1.6865856,0,0,-1.6865856,505.21161,358.92599)"
       id="g3371">
      <path
         id="path3373"
         style="fill:none;stroke:#918f90;stroke-width:0.5;stroke-linecap:butt;stroke-linejoin:miter;stroke-miterlimit:3.86400008;stroke-opacity:1;stroke-dasharray:2, 2;stroke-dashoffset:0"
         d="M 0,0 12.332,0"
         inkscape:connector-curvature="0" />
    </g>
    <g
       transform="matrix(1.6865856,0,0,-1.6865856,505.70411,358.92599)"
       id="g3375">
      <path
         id="path3377"
         style="fill:#918f90;fill-opacity:1;fill-rule:evenodd;stroke:none"
         d="m 0,0 c 0,-0.967 -0.784,-1.75 -1.75,-1.75 -0.967,0 -1.75,0.783 -1.75,1.75 0,0.966 0.783,1.75 1.75,1.75 C -0.784,1.75 0,0.966 0,0"
         inkscape:connector-curvature="0" />
    </g>
    <g
       transform="matrix(1.6865856,0,0,-1.6865856,525.51979,358.92599)"
       id="g3379">
      <path
         id="path3381"
         style="fill:#918f90;fill-opacity:1;fill-rule:evenodd;stroke:none"
         d="M 0,0 0,1.75 4.374,0 0,-1.75 0,0"
         inkscape:connector-curvature="0" />
    </g>
    <g
       transform="matrix(1.6865856,0,0,-1.6865856,434.48294,219.98841)"
       id="g3383">
      <path
         id="path3385"
         style="fill:#e9e9e9;fill-opacity:1;fill-rule:nonzero;stroke:none"
         d="M 0,0 C 0,1.939 1.572,3.511 3.511,3.511 5.45,3.511 7.022,1.939 7.022,0 7.022,-1.939 5.45,-3.511 3.511,-3.511 1.572,-3.511 0,-1.939 0,0"
         inkscape:connector-curvature="0" />
    </g>
    <g
       transform="matrix(1.6865856,0,0,-1.6865856,434.48294,219.98841)"
       id="g3387">
      <path
         id="path3389"
         style="fill:none;stroke:#231f20;stroke-width:0.5;stroke-linecap:butt;stroke-linejoin:miter;stroke-miterlimit:3.86400008;stroke-opacity:1;stroke-dasharray:none"
         d="M 0,0 C 0,1.939 1.572,3.511 3.511,3.511 5.45,3.511 7.022,1.939 7.022,0 7.022,-1.939 5.45,-3.511 3.511,-3.511 1.572,-3.511 0,-1.939 0,0 z"
         inkscape:connector-curvature="0" />
    </g>
    <g
       transform="matrix(1.6865856,0,0,-1.6865856,437.71951,218.33051)"
       id="g3391">
      <path
         id="path3393"
         style="fill:#e9e9e9;fill-opacity:1;fill-rule:nonzero;stroke:none"
         d="M 0,0 C 0,0.238 0.193,0.43 0.43,0.43 0.667,0.43 0.859,0.238 0.859,0 0.859,-0.237 0.667,-0.429 0.43,-0.429 0.193,-0.429 0,-0.237 0,0"
         inkscape:connector-curvature="0" />
    </g>
    <g
       transform="matrix(1.6865856,0,0,-1.6865856,437.71951,218.33051)"
       id="g3395">
      <path
         id="path3397"
         style="fill:none;stroke:#231f20;stroke-width:0.5;stroke-linecap:butt;stroke-linejoin:miter;stroke-miterlimit:3.86400008;stroke-opacity:1;stroke-dasharray:none"
         d="M 0,0 C 0,0.238 0.193,0.43 0.43,0.43 0.667,0.43 0.859,0.238 0.859,0 0.859,-0.237 0.667,-0.429 0.43,-0.429 0.193,-0.429 0,-0.237 0,0 z"
         inkscape:connector-curvature="0" />
    </g>
    <g
       transform="matrix(1.6865856,0,0,-1.6865856,441.63915,218.33051)"
       id="g3399">
      <path
         id="path3401"
         style="fill:#e9e9e9;fill-opacity:1;fill-rule:nonzero;stroke:none"
         d="M 0,0 C 0,0.238 0.193,0.43 0.43,0.43 0.667,0.43 0.859,0.238 0.859,0 0.859,-0.237 0.667,-0.429 0.43,-0.429 0.193,-0.429 0,-0.237 0,0"
         inkscape:connector-curvature="0" />
    </g>
    <g
       transform="matrix(1.6865856,0,0,-1.6865856,441.63915,218.33051)"
       id="g3403">
      <path
         id="path3405"
         style="fill:none;stroke:#231f20;stroke-width:0.5;stroke-linecap:butt;stroke-linejoin:miter;stroke-miterlimit:3.86400008;stroke-opacity:1;stroke-dasharray:none"
         d="M 0,0 C 0,0.238 0.193,0.43 0.43,0.43 0.667,0.43 0.859,0.238 0.859,0 0.859,-0.237 0.667,-0.429 0.43,-0.429 0.193,-0.429 0,-0.237 0,0 z"
         inkscape:connector-curvature="0" />
    </g>
    <g
       transform="matrix(1.6865856,0,0,-1.6865856,443.66136,221.41021)"
       id="g3407">
      <path
         id="path3409"
         style="fill:#231f20;fill-opacity:1;fill-rule:nonzero;stroke:none"
         d="m 0,0 c -0.418,-0.702 -1.129,-1.392 -1.933,-1.392 -0.812,0 -1.514,0.699 -1.93,1.409 -0.136,0.232 0.212,0.437 0.349,0.204 0.358,-0.611 0.94,-1.045 1.581,-1.045 0.638,0 1.228,0.429 1.586,1.03 C -0.209,0.438 0.138,0.231 0,0"
         inkscape:connector-curvature="0" />
    </g>
    <g
       transform="matrix(1.6865856,0,0,-1.6865856,365.81025,337.53503)"
       id="g3411">
      <path
         id="path3413"
         style="fill:#e9e9e9;fill-opacity:1;fill-rule:nonzero;stroke:none"
         d="M 0,0 C 0,1.551 1.258,2.809 2.809,2.809 4.36,2.809 5.618,1.551 5.618,0 5.618,-1.551 4.36,-2.809 2.809,-2.809 1.258,-2.809 0,-1.551 0,0"
         inkscape:connector-curvature="0" />
    </g>
    <g
       transform="matrix(1.6865856,0,0,-1.6865856,365.81025,337.53503)"
       id="g3415">
      <path
         id="path3417"
         style="fill:none;stroke:#231f20;stroke-width:0.40000001;stroke-linecap:butt;stroke-linejoin:miter;stroke-miterlimit:3.86400008;stroke-opacity:1;stroke-dasharray:none"
         d="M 0,0 C 0,1.551 1.258,2.809 2.809,2.809 4.36,2.809 5.618,1.551 5.618,0 5.618,-1.551 4.36,-2.809 2.809,-2.809 1.258,-2.809 0,-1.551 0,0 z"
         inkscape:connector-curvature="0" />
    </g>
    <g
       transform="matrix(1.6865856,0,0,-1.6865856,368.40083,336.20768)"
       id="g3419">
      <path
         id="path3421"
         style="fill:#e9e9e9;fill-opacity:1;fill-rule:nonzero;stroke:none"
         d="M 0,0 C 0,0.189 0.154,0.343 0.343,0.343 0.533,0.343 0.687,0.189 0.687,0 0.687,-0.19 0.533,-0.344 0.343,-0.344 0.154,-0.344 0,-0.19 0,0"
         inkscape:connector-curvature="0" />
    </g>
    <g
       transform="matrix(1.6865856,0,0,-1.6865856,368.40083,336.20768)"
       id="g3423">
      <path
         id="path3425"
         style="fill:none;stroke:#231f20;stroke-width:0.40000001;stroke-linecap:butt;stroke-linejoin:miter;stroke-miterlimit:3.86400008;stroke-opacity:1;stroke-dasharray:none"
         d="M 0,0 C 0,0.189 0.154,0.343 0.343,0.343 0.533,0.343 0.687,0.189 0.687,0 0.687,-0.19 0.533,-0.344 0.343,-0.344 0.154,-0.344 0,-0.19 0,0 z"
         inkscape:connector-curvature="0" />
    </g>
    <g
       transform="matrix(1.6865856,0,0,-1.6865856,371.53621,336.20768)"
       id="g3427">
      <path
         id="path3429"
         style="fill:#e9e9e9;fill-opacity:1;fill-rule:nonzero;stroke:none"
         d="M 0,0 C 0,0.189 0.154,0.343 0.343,0.343 0.533,0.343 0.687,0.189 0.687,0 0.687,-0.19 0.533,-0.344 0.343,-0.344 0.154,-0.344 0,-0.19 0,0"
         inkscape:connector-curvature="0" />
    </g>
    <g
       transform="matrix(1.6865856,0,0,-1.6865856,371.53621,336.20768)"
       id="g3431">
      <path
         id="path3433"
         style="fill:none;stroke:#231f20;stroke-width:0.40000001;stroke-linecap:butt;stroke-linejoin:miter;stroke-miterlimit:3.86400008;stroke-opacity:1;stroke-dasharray:none"
         d="M 0,0 C 0,0.189 0.154,0.343 0.343,0.343 0.533,0.343 0.687,0.189 0.687,0 0.687,-0.19 0.533,-0.344 0.343,-0.344 0.154,-0.344 0,-0.19 0,0 z"
         inkscape:connector-curvature="0" />
    </g>
    <g
       transform="matrix(1.6865856,0,0,-1.6865856,373.15364,338.67346)"
       id="g3435">
      <path
         id="path3437"
         style="fill:#231f20;fill-opacity:1;fill-rule:nonzero;stroke:none"
         d="m 0,0 c -0.334,-0.561 -0.903,-1.113 -1.546,-1.113 -0.65,0 -1.212,0.559 -1.545,1.127 -0.109,0.186 0.17,0.349 0.279,0.163 0.287,-0.489 0.753,-0.836 1.266,-0.836 0.51,0 0.981,0.343 1.268,0.825 C -0.168,0.351 0.11,0.185 0,0"
         inkscape:connector-curvature="0" />
    </g>
    <g
       transform="matrix(1.6865856,0,0,-1.6865856,514.86225,337.53503)"
       id="g3439">
      <path
         id="path3441"
         style="fill:#e9e9e9;fill-opacity:1;fill-rule:nonzero;stroke:none"
         d="M 0,0 C 0,1.551 1.258,2.809 2.809,2.809 4.36,2.809 5.618,1.551 5.618,0 5.618,-1.551 4.36,-2.809 2.809,-2.809 1.258,-2.809 0,-1.551 0,0"
         inkscape:connector-curvature="0" />
    </g>
    <g
       transform="matrix(1.6865856,0,0,-1.6865856,514.86225,337.53503)"
       id="g3443">
      <path
         id="path3445"
         style="fill:none;stroke:#231f20;stroke-width:0.40000001;stroke-linecap:butt;stroke-linejoin:miter;stroke-miterlimit:3.86400008;stroke-opacity:1;stroke-dasharray:none"
         d="M 0,0 C 0,1.551 1.258,2.809 2.809,2.809 4.36,2.809 5.618,1.551 5.618,0 5.618,-1.551 4.36,-2.809 2.809,-2.809 1.258,-2.809 0,-1.551 0,0 z"
         inkscape:connector-curvature="0" />
    </g>
    <g
       transform="matrix(1.6865856,0,0,-1.6865856,517.45284,336.20768)"
       id="g3447">
      <path
         id="path3449"
         style="fill:#e9e9e9;fill-opacity:1;fill-rule:nonzero;stroke:none"
         d="M 0,0 C 0,0.189 0.154,0.343 0.343,0.343 0.533,0.343 0.687,0.189 0.687,0 0.687,-0.19 0.533,-0.344 0.343,-0.344 0.154,-0.344 0,-0.19 0,0"
         inkscape:connector-curvature="0" />
    </g>
    <g
       transform="matrix(1.6865856,0,0,-1.6865856,517.45284,336.20768)"
       id="g3451">
      <path
         id="path3453"
         style="fill:none;stroke:#231f20;stroke-width:0.40000001;stroke-linecap:butt;stroke-linejoin:miter;stroke-miterlimit:3.86400008;stroke-opacity:1;stroke-dasharray:none"
         d="M 0,0 C 0,0.189 0.154,0.343 0.343,0.343 0.533,0.343 0.687,0.189 0.687,0 0.687,-0.19 0.533,-0.344 0.343,-0.344 0.154,-0.344 0,-0.19 0,0 z"
         inkscape:connector-curvature="0" />
    </g>
    <g
       transform="matrix(1.6865856,0,0,-1.6865856,520.58821,336.20768)"
       id="g3455">
      <path
         id="path3457"
         style="fill:#e9e9e9;fill-opacity:1;fill-rule:nonzero;stroke:none"
         d="M 0,0 C 0,0.189 0.154,0.343 0.343,0.343 0.533,0.343 0.687,0.189 0.687,0 0.687,-0.19 0.533,-0.344 0.343,-0.344 0.154,-0.344 0,-0.19 0,0"
         inkscape:connector-curvature="0" />
    </g>
    <g
       transform="matrix(1.6865856,0,0,-1.6865856,520.58821,336.20768)"
       id="g3459">
      <path
         id="path3461"
         style="fill:none;stroke:#231f20;stroke-width:0.40000001;stroke-linecap:butt;stroke-linejoin:miter;stroke-miterlimit:3.86400008;stroke-opacity:1;stroke-dasharray:none"
         d="M 0,0 C 0,0.189 0.154,0.343 0.343,0.343 0.533,0.343 0.687,0.189 0.687,0 0.687,-0.19 0.533,-0.344 0.343,-0.344 0.154,-0.344 0,-0.19 0,0 z"
         inkscape:connector-curvature="0" />
    </g>
    <g
       transform="matrix(1.6865856,0,0,-1.6865856,522.20565,338.67346)"
       id="g3463">
      <path
         id="path3465"
         style="fill:#231f20;fill-opacity:1;fill-rule:nonzero;stroke:none"
         d="m 0,0 c -0.334,-0.561 -0.903,-1.113 -1.546,-1.113 -0.65,0 -1.212,0.559 -1.545,1.127 -0.109,0.186 0.17,0.349 0.279,0.163 0.287,-0.489 0.753,-0.836 1.266,-0.836 0.51,0 0.981,0.343 1.268,0.825 C -0.168,0.351 0.11,0.185 0,0"
         inkscape:connector-curvature="0" />
    </g>
    <g
       transform="matrix(1.6865856,0,0,-1.6865856,327.07444,461.48052)"
       id="g3467">
      <path
         id="path3469"
         style="fill:#231f20;fill-opacity:1;fill-rule:evenodd;stroke:none"
         d="M 0,0 C 1.694,0 2.996,0.798 3.71,1.512 4.872,2.646 5.558,4.256 5.586,5.824 5.642,8.61 3.766,9.688 1.96,9.688 0.84,9.688 -0.378,9.366 -1.484,8.414 -2.912,7.209 -3.71,5.446 -3.738,3.696 -3.766,2.044 -2.828,0 0,0 z M 2.044,9.142 C 3.22,9.142 3.99,8.288 3.962,6.734 3.934,4.97 3.36,3.01 2.086,1.596 1.344,0.77 0.546,0.546 -0.084,0.546 c -1.498,0 -2.058,1.218 -2.03,2.492 0.056,2.38 1.274,4.522 2.366,5.39 0.448,0.378 1.064,0.714 1.792,0.714"
         inkscape:connector-curvature="0" />
    </g>
    <g
       transform="matrix(1.6865856,0,0,-1.6865856,340.70711,456.32122)"
       id="g3471">
      <path
         id="path3473"
         style="fill:#231f20;fill-opacity:1;fill-rule:nonzero;stroke:none"
         d="M 0,0 C 0.243,0.72 0.351,1.008 0.477,1.368 0.477,1.386 0.441,1.44 0.423,1.44 -0.018,1.404 -0.774,1.242 -1.017,1.152 -1.071,1.098 -1.071,1.026 -1.035,0.972 l 0.207,-0.108 c 0.162,-0.09 0.198,-0.18 0.036,-0.648 l -1.485,-4.347 c -0.126,-0.36 -0.162,-0.522 -0.162,-0.666 0,-0.144 0.108,-0.324 0.468,-0.324 0.909,0 1.44,0.72 1.692,1.206 0.018,0.108 -0.054,0.162 -0.162,0.162 -0.306,-0.36 -0.783,-0.864 -0.981,-0.864 -0.126,0 -0.117,0.126 -0.036,0.36 L 0,0"
         inkscape:connector-curvature="0" />
    </g>
    <g
       transform="matrix(1.6865856,0,0,-1.6865856,563.65856,461.48052)"
       id="g3475">
      <path
         id="path3477"
         style="fill:#231f20;fill-opacity:1;fill-rule:evenodd;stroke:none"
         d="M 0,0 C 1.694,0 2.996,0.798 3.71,1.512 4.872,2.646 5.558,4.256 5.586,5.824 5.642,8.61 3.766,9.688 1.96,9.688 0.84,9.688 -0.378,9.366 -1.484,8.414 -2.912,7.209 -3.71,5.446 -3.738,3.696 -3.766,2.044 -2.828,0 0,0 z M 2.044,9.142 C 3.22,9.142 3.99,8.288 3.962,6.734 3.933,4.97 3.36,3.01 2.086,1.596 1.343,0.77 0.546,0.546 -0.084,0.546 c -1.498,0 -2.058,1.218 -2.03,2.492 0.056,2.38 1.274,4.522 2.366,5.39 0.448,0.378 1.064,0.714 1.792,0.714"
         inkscape:connector-curvature="0" />
    </g>
    <g
       transform="matrix(1.6865856,0,0,-1.6865856,575.59114,458.55258)"
       id="g3479">
      <path
         id="path3481"
         style="fill:#231f20;fill-opacity:1;fill-rule:nonzero;stroke:none"
         d="m 0,0 c -0.558,0 -1.008,-0.522 -1.242,-0.927 -0.018,-0.108 0.054,-0.18 0.144,-0.18 0.216,0.252 0.504,0.504 0.702,0.504 0.09,0 0.099,-0.09 0.054,-0.234 -0.252,-0.819 -0.702,-2.07 -0.9,-2.655 -0.081,-0.252 0.234,-0.306 0.414,-0.306 0.144,0 0.261,0.036 0.306,0.144 0.369,0.855 0.747,1.728 1.08,2.268 0.297,0.495 0.504,0.693 0.612,0.693 0.09,0 0.144,-0.09 0.18,-0.27 0.036,-0.162 0.072,-0.261 0.18,-0.261 0.279,0 0.486,0.441 0.486,0.72 C 2.016,-0.252 1.89,0 1.602,0 1.332,0 1.089,-0.216 0.801,-0.576 0.576,-0.855 0.27,-1.368 0,-1.863 l -0.054,0 0.315,0.927 C 0.405,-0.522 0.486,0 0,0"
         inkscape:connector-curvature="0" />
    </g>
    <g
       transform="matrix(1.6865856,0,0,-1.6865856,441.52951,441.81153)"
       id="g3483">
      <path
         id="path3485"
         style="fill:#231f20;fill-opacity:1;fill-rule:nonzero;stroke:none"
         d="M 0,0 C -0.91,0 -1.078,0.084 -1.05,0.364 -1.162,0.42 -1.33,0.42 -1.386,0.336 c -0.224,-0.532 -0.63,-1.358 -1.05,-2.1 0.028,-0.14 0.28,-0.224 0.42,-0.14 0.406,0.574 0.686,0.91 1.078,1.12 0.322,0.182 0.714,0.238 1.204,0.238 l 0.714,0 c 0.476,0 0.49,-0.028 0.336,-0.504 L -0.616,-7.224 C -1.05,-8.582 -1.19,-8.75 -1.82,-8.806 l -0.56,-0.07 c -0.14,-0.056 -0.14,-0.322 -0.028,-0.406 0.77,0.028 1.33,0.042 2.002,0.042 0.672,0 1.26,-0.014 2.17,-0.042 0.112,0.07 0.154,0.294 0.084,0.406 L 1.26,-8.82 c -0.742,0.07 -0.714,0.378 -0.322,1.596 l 1.918,6.174 c 0.154,0.476 0.168,0.504 0.588,0.504 l 0.77,0 c 0.448,0 0.798,-0.056 1.008,-0.182 0.266,-0.154 0.266,-0.602 0.21,-1.176 0.084,-0.14 0.378,-0.14 0.462,0 0.112,0.518 0.56,1.68 0.826,2.184 C 6.664,0.364 6.454,0.392 6.37,0.336 6.118,0.084 5.922,0 5.292,0 L 0,0"
         inkscape:connector-curvature="0" />
    </g>
    <g
       transform="matrix(1.6865856,0,0,-1.6865856,409.761,478.12203)"
       id="g3487">
      <path
         id="path3489"
         style="fill:#231f20;fill-opacity:1;fill-rule:evenodd;stroke:none"
         d="m 0,0 c -0.756,0 -1.652,-0.392 -2.59,-1.203 -1.106,-0.966 -1.806,-2.478 -1.834,-3.543 0,-0.7 0.35,-1.162 0.966,-1.162 1.414,0 2.548,1.442 3.374,2.66 l 0.028,0 -0.462,-1.26 c -0.14,-0.406 -0.238,-0.7 -0.238,-0.938 0,-0.21 0.168,-0.462 0.504,-0.462 1.064,0 2.268,1.148 2.632,1.779 0,0.167 -0.084,0.251 -0.224,0.251 -0.448,-0.532 -1.232,-1.064 -1.4,-1.064 -0.112,0 -0.14,0.113 -0.112,0.239 0.028,0.139 0.098,0.349 0.196,0.685 0.14,0.462 1.484,4.565 2.044,6.048 0.364,0.952 0.518,1.457 0.77,2.157 0,0.028 -0.056,0.084 -0.112,0.112 C 2.898,4.271 1.778,4.047 1.442,3.907 1.358,3.851 1.33,3.739 1.386,3.655 L 1.722,3.431 C 1.946,3.291 1.932,3.094 1.708,2.45 L 0.728,-0.392 C 0.588,-0.168 0.28,0 0,0 z m 0.098,-0.504 c 0.28,0 0.406,-0.433 0.252,-0.994 -0.196,-0.671 -0.658,-1.554 -1.4,-2.365 -0.742,-0.813 -1.638,-1.387 -1.918,-1.387 -0.112,0 -0.196,0.084 -0.196,0.252 0,0.308 0.252,1.036 0.812,1.974 0.49,0.84 1.246,1.708 1.652,2.072 0.308,0.28 0.588,0.448 0.798,0.448"
         inkscape:connector-curvature="0" />
    </g>
    <g
       transform="matrix(1.6865856,0,0,-1.6865856,-32.670898,1135.688)"
       id="g3491">
      <path
         id="path3493"
         style="fill:#231f20;fill-opacity:1;fill-rule:evenodd;stroke:none"
         d="m 274.415,388.536 -5.39,0 0,-0.882 5.39,0 0,0.882 z m 0,-2.1 -5.39,0 0,-0.882 5.39,0 0,0.882 z"
         inkscape:connector-curvature="0" />
    </g>
    <g
       transform="matrix(1.6865856,0,0,-1.6865856,443.04069,486.361)"
       id="g3495">
      <path
         id="path3497"
         style="fill:#231f20;fill-opacity:1;fill-rule:nonzero;stroke:none"
         d="m 0,0 c 0.224,-0.574 0.448,-1.023 0.952,-1.023 0.728,0 1.316,0.938 1.568,1.863 -0.056,0.167 -0.28,0.195 -0.364,0.083 -0.252,-0.42 -0.532,-0.84 -0.7,-0.84 -0.14,0 -0.224,0.155 -0.42,0.701 L 0.532,2.183 c 0.112,0.141 0.42,0.518 0.49,0.602 0.63,0.742 0.98,1.022 1.19,1.022 0.14,0 0.252,-0.168 0.322,-0.364 0.042,-0.168 0.098,-0.279 0.238,-0.279 0.252,0 0.616,0.419 0.616,0.993 0,0.365 -0.196,0.728 -0.616,0.728 C 2.24,4.885 1.764,4.437 1.064,3.611 0.7,3.191 0.42,2.799 0.336,2.743 L -0.14,4.045 c -0.196,0.546 -0.42,0.84 -0.728,0.84 -0.672,0 -1.372,-1.05 -1.596,-1.721 0.028,-0.169 0.168,-0.253 0.336,-0.197 0.28,0.476 0.476,0.728 0.672,0.728 0.112,0 0.21,-0.252 0.336,-0.587 L -0.602,1.679 C -0.812,1.414 -1.148,0.993 -1.386,0.727 -1.82,0.265 -2.086,0.083 -2.184,0.083 c -0.112,0 -0.196,0.112 -0.28,0.336 -0.056,0.168 -0.112,0.308 -0.224,0.308 -0.084,0 -0.154,-0.042 -0.28,-0.14 -0.28,-0.224 -0.504,-0.7 -0.504,-0.994 0,-0.364 0.224,-0.616 0.56,-0.616 0.434,0 0.91,0.267 1.582,1.064 0.182,0.21 0.798,0.952 0.91,1.079 L 0,0"
         inkscape:connector-curvature="0" />
    </g>
    <g
       transform="matrix(1.6865856,0,0,-1.6865856,453.59197,474.19569)"
       id="g3499">
      <path
         id="path3501"
         style="fill:#231f20;fill-opacity:1;fill-rule:nonzero;stroke:none"
         d="M 0,0 C 0.216,0.64 0.312,0.896 0.424,1.217 0.424,1.233 0.392,1.281 0.376,1.281 -0.016,1.249 -0.688,1.105 -0.904,1.024 -0.952,0.976 -0.952,0.913 -0.92,0.864 l 0.184,-0.096 c 0.144,-0.079 0.176,-0.16 0.032,-0.576 l -1.32,-3.864 c -0.112,-0.32 -0.144,-0.464 -0.144,-0.592 0,-0.128 0.096,-0.288 0.416,-0.288 0.808,0 1.28,0.64 1.504,1.072 0.016,0.096 -0.048,0.144 -0.144,0.144 -0.272,-0.32 -0.696,-0.768 -0.872,-0.768 -0.112,0 -0.104,0.112 -0.032,0.32 L 0,0"
         inkscape:connector-curvature="0" />
    </g>
    <g
       transform="matrix(1.6865856,0,0,-1.6865856,459.70922,482.18333)"
       id="g3503">
      <path
         id="path3505"
         style="fill:#231f20;fill-opacity:1;fill-rule:nonzero;stroke:none"
         d="m 0,0 -0.279,-0.854 7,0 L 7,0 0,0"
         inkscape:connector-curvature="0" />
    </g>
    <g
       transform="matrix(1.6865856,0,0,-1.6865856,482.37693,486.361)"
       id="g3507">
      <path
         id="path3509"
         style="fill:#231f20;fill-opacity:1;fill-rule:nonzero;stroke:none"
         d="m 0,0 c 0.224,-0.574 0.448,-1.023 0.952,-1.023 0.728,0 1.316,0.938 1.568,1.863 -0.056,0.167 -0.28,0.195 -0.364,0.083 -0.252,-0.42 -0.532,-0.84 -0.7,-0.84 -0.14,0 -0.224,0.155 -0.42,0.701 L 0.532,2.183 c 0.112,0.141 0.42,0.518 0.49,0.602 0.63,0.742 0.98,1.022 1.19,1.022 0.14,0 0.252,-0.168 0.322,-0.364 0.042,-0.168 0.098,-0.279 0.238,-0.279 0.252,0 0.616,0.419 0.616,0.993 0,0.365 -0.196,0.728 -0.616,0.728 C 2.24,4.885 1.764,4.437 1.064,3.611 0.7,3.191 0.42,2.799 0.336,2.743 L -0.14,4.045 c -0.196,0.546 -0.42,0.84 -0.728,0.84 -0.672,0 -1.372,-1.05 -1.596,-1.721 0.028,-0.169 0.168,-0.253 0.336,-0.197 0.28,0.476 0.476,0.728 0.672,0.728 0.112,0 0.21,-0.252 0.336,-0.587 L -0.602,1.679 C -0.812,1.414 -1.148,0.993 -1.386,0.727 -1.82,0.265 -2.086,0.083 -2.184,0.083 c -0.112,0 -0.196,0.112 -0.28,0.336 -0.056,0.168 -0.112,0.308 -0.224,0.308 -0.084,0 -0.154,-0.042 -0.28,-0.14 -0.28,-0.224 -0.504,-0.7 -0.504,-0.994 0,-0.364 0.224,-0.616 0.56,-0.616 0.434,0 0.91,0.267 1.582,1.064 0.182,0.21 0.798,0.952 0.91,1.079 L 0,0"
         inkscape:connector-curvature="0" />
    </g>
    <g
       transform="matrix(1.6865856,0,0,-1.6865856,491.41873,476.1774)"
       id="g3511">
      <path
         id="path3513"
         style="fill:#231f20;fill-opacity:1;fill-rule:nonzero;stroke:none"
         d="m 0,0 c -0.496,0 -0.896,-0.464 -1.104,-0.825 -0.016,-0.096 0.048,-0.16 0.128,-0.16 0.192,0.224 0.448,0.448 0.624,0.448 0.08,0 0.088,-0.08 0.048,-0.208 -0.224,-0.728 -0.624,-1.839 -0.8,-2.36 -0.072,-0.224 0.208,-0.272 0.368,-0.272 0.128,0 0.232,0.033 0.272,0.128 0.328,0.76 0.664,1.536 0.96,2.016 0.264,0.441 0.448,0.616 0.544,0.616 0.08,0 0.128,-0.08 0.16,-0.24 0.032,-0.143 0.064,-0.232 0.16,-0.232 0.248,0 0.432,0.392 0.432,0.641 C 1.792,-0.224 1.68,0 1.424,0 1.184,0 0.968,-0.193 0.712,-0.513 0.512,-0.761 0.24,-1.217 0,-1.657 l -0.048,0 0.28,0.824 C 0.36,-0.464 0.432,0 0,0"
         inkscape:connector-curvature="0" />
    </g>
    <g
       transform="matrix(1.6865856,0,0,-1.6865856,266.15665,348.10316)"
       id="g3515">
      <path
         id="path3517"
         style="fill:#231f20;fill-opacity:1;fill-rule:nonzero;stroke:none"
         d="m 0,0 c 0.179,-0.46 0.358,-0.818 0.761,-0.818 0.583,0 1.053,0.75 1.255,1.49 C 1.971,0.806 1.792,0.828 1.725,0.739 1.523,0.403 1.299,0.067 1.165,0.067 c -0.113,0 -0.18,0.123 -0.336,0.56 l -0.404,1.12 c 0.09,0.112 0.336,0.414 0.392,0.481 0.504,0.594 0.784,0.818 0.952,0.818 0.112,0 0.202,-0.134 0.258,-0.291 C 2.061,2.62 2.105,2.531 2.217,2.531 2.419,2.531 2.71,2.867 2.71,3.326 2.71,3.617 2.553,3.908 2.217,3.908 1.792,3.908 1.411,3.55 0.851,2.889 0.56,2.553 0.336,2.24 0.268,2.195 l -0.38,1.041 c -0.157,0.437 -0.336,0.672 -0.583,0.672 -0.537,0 -1.097,-0.84 -1.276,-1.377 0.022,-0.135 0.134,-0.202 0.268,-0.157 0.224,0.381 0.381,0.582 0.538,0.582 0.09,0 0.168,-0.201 0.269,-0.47 L -0.482,1.344 C -0.65,1.131 -0.919,0.795 -1.109,0.582 -1.456,0.212 -1.669,0.067 -1.748,0.067 c -0.089,0 -0.156,0.089 -0.223,0.269 -0.045,0.134 -0.09,0.246 -0.18,0.246 -0.067,0 -0.123,-0.034 -0.224,-0.112 -0.224,-0.179 -0.403,-0.56 -0.403,-0.795 0,-0.291 0.179,-0.493 0.448,-0.493 0.347,0 0.728,0.213 1.266,0.851 0.145,0.168 0.638,0.762 0.728,0.863 L 0,0"
         inkscape:connector-curvature="0" />
    </g>
    <g
       transform="matrix(1.6865856,0,0,-1.6865856,273.22176,348.08459)"
       id="g3519">
      <path
         id="path3521"
         style="fill:#231f20;fill-opacity:1;fill-rule:nonzero;stroke:none"
         d="M 0,0 C 0.173,0.512 0.25,0.717 0.34,0.973 0.34,0.985 0.314,1.024 0.301,1.024 -0.013,0.998 -0.55,0.883 -0.723,0.819 -0.761,0.781 -0.761,0.729 -0.736,0.691 L -0.589,0.614 C -0.473,0.55 -0.448,0.486 -0.563,0.153 l -1.056,-3.091 c -0.089,-0.256 -0.115,-0.371 -0.115,-0.473 0,-0.103 0.077,-0.231 0.333,-0.231 0.646,0 1.024,0.512 1.203,0.858 0.013,0.077 -0.039,0.115 -0.115,0.115 -0.218,-0.256 -0.557,-0.614 -0.698,-0.614 -0.09,0 -0.083,0.089 -0.026,0.256 L 0,0"
         inkscape:connector-curvature="0" />
    </g>
    <g
       transform="matrix(1.6865856,0,0,-1.6865856,304.43033,366.81244)"
       id="g3523">
      <path
         id="path3525"
         style="fill:#231f20;fill-opacity:1;fill-rule:nonzero;stroke:none"
         d="M 0,0 C 0.829,0 1.646,0.605 2.061,1.154 2.083,1.288 1.994,1.377 1.859,1.377 1.4,0.907 0.997,0.694 0.661,0.694 c -0.269,0 -0.459,0.168 -0.459,0.672 0,0.818 0.358,1.647 0.705,2.196 0.314,0.493 0.605,0.716 0.829,0.716 0.291,0 0.258,-0.369 0.28,-0.616 C 2.027,3.461 2.162,3.349 2.352,3.349 2.61,3.349 3.024,3.528 3.024,3.965 3.035,4.413 2.643,4.726 2.061,4.726 1.467,4.726 0.874,4.458 0.28,3.875 -0.526,3.08 -0.985,1.971 -0.985,1.232 -0.985,0.426 -0.605,0 0,0"
         inkscape:connector-curvature="0" />
    </g>
    <g
       transform="matrix(1.6865856,0,0,-1.6865856,311.04007,367.43816)"
       id="g3527">
      <path
         id="path3529"
         style="fill:#231f20;fill-opacity:1;fill-rule:nonzero;stroke:none"
         d="M 0,0 C 0.051,0.033 0.045,0.169 -0.019,0.188 -0.23,0.175 -0.461,0.17 -0.698,0.17 -0.973,0.17 -1.126,0.175 -1.37,0.188 -1.427,0.163 -1.434,0.041 -1.382,0.003 -1.101,-0.042 -1.037,-0.08 -0.87,-0.291 l 0.518,-0.69 c 0.07,-0.09 0.115,-0.16 0.115,-0.186 0,-0.025 -0.045,-0.089 -0.102,-0.172 -0.045,-0.074 -0.384,-0.508 -0.493,-0.642 -0.122,-0.134 -0.275,-0.167 -0.544,-0.205 -0.058,-0.03 -0.045,-0.153 0.013,-0.185 0.147,0.013 0.301,0.019 0.518,0.019 0.243,0 0.423,-0.013 0.583,-0.019 0.051,0.026 0.064,0.136 0.012,0.188 l -0.147,0.026 c -0.07,0.012 -0.115,0.032 -0.115,0.063 0,0.032 0.013,0.071 0.064,0.16 0.122,0.198 0.211,0.345 0.358,0.543 0.167,-0.224 0.327,-0.466 0.384,-0.549 0.052,-0.077 0.071,-0.115 0.071,-0.147 0,-0.032 -0.077,-0.051 -0.147,-0.064 L 0.064,-2.183 c -0.051,-0.046 -0.045,-0.162 0.019,-0.188 0.205,0.013 0.455,0.019 0.73,0.019 0.256,0 0.512,-0.006 0.723,-0.019 0.045,0.032 0.051,0.121 0.013,0.185 -0.333,0.051 -0.378,0.071 -0.64,0.441 L 0.41,-1.042 c -0.052,0.07 -0.084,0.128 -0.084,0.154 0,0.025 0.032,0.083 0.096,0.153 l 0.301,0.377 c 0.173,0.224 0.269,0.275 0.525,0.326 L 1.421,0 C 1.478,0.046 1.472,0.156 1.408,0.188 1.261,0.175 1.075,0.17 0.89,0.17 0.698,0.17 0.506,0.175 0.314,0.188 0.25,0.162 0.243,0.046 0.301,0 l 0.128,-0.026 c 0.064,-0.019 0.109,-0.032 0.109,-0.063 0,-0.032 -0.02,-0.077 -0.039,-0.103 C 0.442,-0.3 0.282,-0.524 0.16,-0.703 c -0.147,0.192 -0.326,0.454 -0.352,0.492 -0.038,0.058 -0.051,0.096 -0.051,0.122 0,0.031 0.064,0.044 0.121,0.057 L 0,0"
         inkscape:connector-curvature="0" />
    </g>
    <g
       transform="matrix(1.6865856,0,0,-1.6865856,312.20044,359.15533)"
       id="g3531">
      <path
         id="path3533"
         style="fill:#231f20;fill-opacity:1;fill-rule:nonzero;stroke:none"
         d="M 0,0 C 0,-0.517 -0.028,-0.594 -0.266,-0.629 L -0.413,-0.65 c -0.049,-0.05 -0.042,-0.178 0.014,-0.206 0.287,0.014 0.525,0.02 0.756,0.02 0.259,0 0.497,-0.006 0.784,-0.02 0.056,0.028 0.063,0.156 0.014,0.206 L 1.001,-0.629 C 0.763,-0.594 0.735,-0.517 0.735,0 l 0,3.099 C 0.735,3.4 0.742,3.834 0.756,4.113 0.742,4.149 0.7,4.176 0.658,4.169 0.378,4.057 0.014,3.91 -0.259,3.834 -0.308,3.812 -0.301,3.701 -0.259,3.673 L -0.182,3.624 C -0.007,3.519 0,3.47 0,3.001 L 0,0"
         inkscape:connector-curvature="0" />
    </g>
    <g
       transform="matrix(1.6865856,0,0,-1.6865856,318.07819,357.76727)"
       id="g3535">
      <path
         id="path3537"
         style="fill:#231f20;fill-opacity:1;fill-rule:evenodd;stroke:none"
         d="m 0,0 c 0.28,0 0.441,0.029 0.483,0.091 0.028,0.056 0.035,0.099 0.035,0.161 0,0.609 -0.532,0.945 -1.05,0.945 -0.938,0 -1.477,-0.763 -1.477,-1.554 0,-0.798 0.539,-1.4 1.351,-1.4 0.427,0 0.945,0.21 1.183,0.77 -0.007,0.063 -0.084,0.133 -0.154,0.113 -0.161,-0.259 -0.392,-0.351 -0.672,-0.351 -0.623,0 -1.057,0.504 -1.057,1.135 0,0.083 0.014,0.09 0.147,0.09 L 0,0 z m -1.204,0.28 c -0.084,0 -0.098,0.021 -0.098,0.05 0,0.146 0.217,0.601 0.686,0.601 0.301,0 0.462,-0.203 0.462,-0.455 0,-0.063 -0.028,-0.119 -0.07,-0.146 -0.049,-0.029 -0.14,-0.05 -0.343,-0.05 l -0.637,0"
         inkscape:connector-curvature="0" />
    </g>
    <g
       transform="matrix(1.6865856,0,0,-1.6865856,322.83436,356.46864)"
       id="g3539">
      <path
         id="path3541"
         style="fill:#231f20;fill-opacity:1;fill-rule:nonzero;stroke:none"
         d="m 0,0 c 0.056,0.036 0.098,0.098 0.098,0.218 0,0.048 -0.014,0.09 -0.042,0.111 l -0.735,0 c -0.147,0 -0.154,0.014 -0.154,0.224 l 0,0.21 c 0,1.051 0.189,1.526 0.427,1.526 0.168,0 0.322,-0.14 0.546,-0.461 0.042,-0.057 0.098,-0.099 0.203,-0.099 0.168,0 0.343,0.14 0.343,0.336 0,0.295 -0.315,0.511 -0.798,0.511 -0.658,0 -1.127,-0.427 -1.309,-0.98 -0.119,-0.357 -0.147,-0.7 -0.147,-1.001 l 0,-0.125 c 0,-0.085 -0.049,-0.127 -0.098,-0.155 L -1.967,0.161 C -2.016,0.119 -2.002,0.028 -1.946,0 l 0.252,0 c 0.119,0 0.126,-0.021 0.126,-0.209 l 0,-1.386 c 0,-0.519 -0.028,-0.596 -0.266,-0.631 l -0.154,-0.021 c -0.049,-0.049 -0.042,-0.175 0.014,-0.203 0.287,0.014 0.525,0.021 0.756,0.021 0.329,0 0.602,-0.007 0.917,-0.021 0.056,0.028 0.063,0.154 0.014,0.203 l -0.273,0.029 c -0.245,0.027 -0.273,0.104 -0.273,0.623 l 0,1.378 c 0,0.204 0,0.217 0.147,0.217 L 0,0"
         inkscape:connector-curvature="0" />
    </g>
    <g
       transform="matrix(1.6865856,0,0,-1.6865856,326.28006,356.43318)"
       id="g3543">
      <path
         id="path3545"
         style="fill:#231f20;fill-opacity:1;fill-rule:nonzero;stroke:none"
         d="m 0,0 c 0.056,0.035 0.084,0.098 0.091,0.182 0,0.071 -0.014,0.126 -0.056,0.148 l -0.693,0 c -0.133,0 -0.133,0.02 -0.133,0.132 l 0,0.42 C -0.826,0.938 -0.924,0.96 -0.987,0.917 -1.085,0.728 -1.239,0.582 -1.372,0.483 -1.526,0.371 -1.687,0.281 -1.925,0.189 -1.988,0.147 -1.974,0.035 -1.904,0 l 0.245,0 c 0.112,0 0.126,-0.007 0.126,-0.252 l 0,-1.421 c 0,-0.49 0.119,-0.875 0.784,-0.875 0.427,0 0.749,0.189 0.889,0.385 0.014,0.077 -0.028,0.133 -0.091,0.14 -0.112,-0.076 -0.196,-0.126 -0.336,-0.126 -0.448,0 -0.511,0.393 -0.511,0.833 l 0,1.078 C -0.798,-0.014 -0.791,0 -0.665,0 L 0,0"
         inkscape:connector-curvature="0" />
    </g>
    <g
       transform="matrix(1.6865856,0,0,-1.6865856,383.74707,369.06064)"
       id="g3547">
      <path
         id="path3549"
         style="fill:#231f20;fill-opacity:1;fill-rule:nonzero;stroke:none"
         d="m 0,0 c 0.224,0.112 0.28,0.448 0.168,0.616 l -1.666,0 c 0.308,1.064 0.616,2.128 1.078,3.052 0.294,0.588 0.63,0.938 0.938,0.938 0.28,0 0.686,-0.294 0.798,-1.246 C 1.344,3.164 1.429,3.08 1.624,3.08 1.932,3.08 2.38,3.444 2.38,4.032 2.38,4.606 1.848,5.11 0.98,5.11 -0.111,5.11 -0.994,4.508 -1.694,3.486 -2.268,2.66 -2.576,1.694 -2.898,0.616 l -1.246,0 C -4.34,0.532 -4.452,0.196 -4.312,0 l 1.247,0 c -0.701,-2.464 -1.373,-5.18 -1.849,-6.86 -0.28,-0.966 -0.476,-1.19 -0.685,-1.19 -0.239,0 -0.546,0.28 -0.813,0.7 -0.112,0.182 -0.238,0.28 -0.434,0.28 -0.28,0 -0.532,-0.28 -0.532,-0.658 0,-0.49 0.504,-0.938 1.176,-0.938 0.868,0 1.61,0.588 1.904,0.966 0.35,0.448 0.728,1.288 1.079,2.38 0.433,1.372 1.077,3.92 1.553,5.32 L 0,0"
         inkscape:connector-curvature="0" />
    </g>
    <g
       transform="matrix(1.6865856,0,0,-1.6865856,452.93926,318.21685)"
       id="g3551">
      <path
         id="path3553"
         style="fill:#231f20;fill-opacity:1;fill-rule:nonzero;stroke:none"
         d="m 0,0 c -0.658,0 -0.896,0.056 -0.896,0.196 0,0.168 0.21,0.42 0.588,0.812 L 3.99,5.572 C 4.984,6.636 6.51,8.218 6.874,8.47 6.916,8.61 6.888,8.708 6.776,8.736 6.594,8.722 6.188,8.694 5.376,8.694 l -3.976,0 C 0.35,8.694 0.224,8.75 0.196,9.086 0.112,9.114 -0.028,9.114 -0.084,9.058 -0.336,8.358 -0.686,7.561 -1.05,6.82 -1.022,6.652 -0.77,6.568 -0.644,6.652 -0.14,7.365 0.224,7.728 0.602,7.924 1.022,8.12 1.428,8.148 2.016,8.148 l 1.988,0 c 0.434,0 0.49,-0.07 0.154,-0.433 L -1.708,1.508 c -0.574,-0.601 -1.554,-1.579 -1.876,-1.817 -0.028,-0.111 0,-0.237 0.112,-0.265 0.238,0.014 0.686,0.028 1.4,0.028 l 3.444,0 c 0.49,0 0.966,0 1.442,-0.014 0.476,0.014 0.952,0 1.428,-0.014 0.308,0.349 0.854,1.467 1.05,2.138 C 5.264,1.704 4.984,1.76 4.9,1.676 4.494,1.05 3.99,0.49 3.584,0.28 3.136,0.056 2.31,0.028 1.484,0 L 0,0"
         inkscape:connector-curvature="0" />
    </g>
    <g
       transform="matrix(1.6865856,0,0,-1.6865856,368.018,326.17754)"
       id="g3555">
      <path
         id="path3557"
         style="fill:#231f20;fill-opacity:1;fill-rule:nonzero;stroke:none"
         d="m 0,0 c 0.179,-0.46 0.358,-0.818 0.762,-0.818 0.582,0 1.052,0.75 1.254,1.49 C 1.971,0.806 1.792,0.828 1.725,0.739 1.523,0.403 1.299,0.067 1.165,0.067 c -0.112,0 -0.18,0.123 -0.336,0.56 l -0.404,1.12 c 0.09,0.112 0.337,0.414 0.393,0.481 0.503,0.594 0.784,0.818 0.951,0.818 0.112,0 0.202,-0.134 0.258,-0.291 C 2.061,2.62 2.106,2.531 2.218,2.531 2.419,2.531 2.71,2.867 2.71,3.326 2.71,3.617 2.554,3.908 2.218,3.908 1.792,3.908 1.411,3.55 0.851,2.889 0.56,2.553 0.336,2.24 0.269,2.195 l -0.381,1.042 c -0.157,0.436 -0.336,0.671 -0.582,0.671 -0.538,0 -1.098,-0.84 -1.277,-1.377 0.022,-0.135 0.134,-0.202 0.269,-0.157 0.223,0.381 0.38,0.582 0.537,0.582 0.09,0 0.168,-0.201 0.269,-0.47 L -0.482,1.344 C -0.65,1.131 -0.918,0.795 -1.109,0.582 -1.456,0.212 -1.669,0.067 -1.747,0.067 c -0.09,0 -0.157,0.089 -0.224,0.269 -0.045,0.134 -0.09,0.246 -0.179,0.246 -0.068,0 -0.124,-0.034 -0.225,-0.112 -0.223,-0.179 -0.403,-0.56 -0.403,-0.795 0,-0.291 0.18,-0.493 0.448,-0.493 0.347,0 0.728,0.213 1.266,0.851 0.146,0.168 0.638,0.762 0.728,0.863 L 0,0"
         inkscape:connector-curvature="0" />
    </g>
    <g
       transform="matrix(1.6865856,0,0,-1.6865856,376.80342,316.44425)"
       id="g3559">
      <path
         id="path3561"
         style="fill:#231f20;fill-opacity:1;fill-rule:nonzero;stroke:none"
         d="M 0,0 C 0.173,0.512 0.25,0.717 0.339,0.973 0.339,0.985 0.314,1.024 0.301,1.024 -0.013,0.998 -0.55,0.883 -0.723,0.819 -0.761,0.781 -0.761,0.729 -0.736,0.691 L -0.589,0.614 C -0.473,0.55 -0.448,0.486 -0.563,0.153 l -1.056,-3.091 c -0.09,-0.256 -0.115,-0.371 -0.115,-0.473 0,-0.103 0.077,-0.231 0.333,-0.231 0.646,0 1.024,0.512 1.203,0.858 0.013,0.077 -0.039,0.115 -0.116,0.115 -0.217,-0.256 -0.556,-0.614 -0.697,-0.614 -0.09,0 -0.083,0.089 -0.026,0.256 L 0,0"
         inkscape:connector-curvature="0" />
    </g>
    <g
       transform="matrix(1.6865856,0,0,-1.6865856,521.55967,326.17754)"
       id="g3563">
      <path
         id="path3565"
         style="fill:#231f20;fill-opacity:1;fill-rule:nonzero;stroke:none"
         d="m 0,0 c 0.179,-0.46 0.358,-0.818 0.761,-0.818 0.582,0 1.053,0.75 1.255,1.49 C 1.971,0.806 1.792,0.828 1.724,0.739 1.523,0.403 1.299,0.067 1.164,0.067 1.052,0.067 0.985,0.19 0.828,0.627 l -0.403,1.12 c 0.09,0.112 0.336,0.414 0.392,0.481 0.504,0.594 0.784,0.818 0.952,0.818 0.112,0 0.202,-0.134 0.258,-0.291 C 2.06,2.62 2.105,2.531 2.217,2.531 2.419,2.531 2.71,2.867 2.71,3.326 2.71,3.617 2.553,3.908 2.217,3.908 1.792,3.908 1.411,3.55 0.851,2.889 0.56,2.553 0.336,2.24 0.268,2.195 l -0.38,1.042 c -0.157,0.436 -0.336,0.671 -0.583,0.671 -0.537,0 -1.097,-0.84 -1.277,-1.377 0.023,-0.135 0.135,-0.202 0.269,-0.157 0.224,0.381 0.381,0.582 0.538,0.582 0.089,0 0.168,-0.201 0.268,-0.47 L -0.482,1.344 C -0.65,1.131 -0.919,0.795 -1.109,0.582 -1.457,0.212 -1.669,0.067 -1.748,0.067 c -0.089,0 -0.156,0.089 -0.224,0.269 -0.044,0.134 -0.089,0.246 -0.179,0.246 -0.067,0 -0.123,-0.034 -0.224,-0.112 -0.224,-0.179 -0.403,-0.56 -0.403,-0.795 0,-0.291 0.179,-0.493 0.448,-0.493 0.347,0 0.728,0.213 1.266,0.851 0.145,0.168 0.638,0.762 0.728,0.863 L 0,0"
         inkscape:connector-curvature="0" />
    </g>
    <g
       transform="matrix(1.6865856,0,0,-1.6865856,529.13583,318.03132)"
       id="g3567">
      <path
         id="path3569"
         style="fill:#231f20;fill-opacity:1;fill-rule:nonzero;stroke:none"
         d="m 0,0 c -0.397,0 -0.717,-0.371 -0.883,-0.659 -0.013,-0.077 0.038,-0.128 0.102,-0.128 0.154,0.179 0.359,0.358 0.499,0.358 0.064,0 0.071,-0.064 0.039,-0.166 -0.179,-0.583 -0.499,-1.472 -0.64,-1.888 -0.058,-0.179 0.166,-0.218 0.294,-0.218 0.103,0 0.186,0.026 0.218,0.103 0.262,0.608 0.531,1.228 0.768,1.612 0.211,0.352 0.358,0.493 0.435,0.493 0.064,0 0.102,-0.064 0.128,-0.192 0.026,-0.115 0.051,-0.185 0.128,-0.185 0.198,0 0.346,0.313 0.346,0.512 C 1.434,-0.179 1.344,0 1.139,0 0.947,0 0.774,-0.154 0.57,-0.41 0.41,-0.608 0.192,-0.973 0,-1.325 l -0.038,0 0.224,0.659 C 0.288,-0.371 0.346,0 0,0"
         inkscape:connector-curvature="0" />
    </g>
    <g
       transform="matrix(1.6865856,0,0,-1.6865856,439.36396,208.16882)"
       id="g3571">
      <path
         id="path3573"
         style="fill:#231f20;fill-opacity:1;fill-rule:nonzero;stroke:none"
         d="M 0,0 C -0.713,0.07 -0.685,0.378 -0.307,1.596 L 1.666,7.84 C 1.793,8.246 1.835,8.316 2.199,8.316 3.207,8.316 3.823,7.77 3.823,6.72 3.823,5.012 2.576,4.018 1.317,3.85 1.219,3.738 1.233,3.57 1.345,3.486 c 0.462,0 1.007,0.042 1.735,0.224 1.247,0.308 2.366,1.246 2.366,2.632 0,0.812 -0.321,1.456 -0.965,1.89 -0.63,0.434 -1.583,0.63 -2.871,0.63 -1.05,0 -1.792,-0.07 -2.491,-0.154 C -1.022,8.652 -1.078,8.428 -0.966,8.344 L -0.377,8.26 C 0.113,8.176 0.126,7.98 -0.139,7.126 L -1.875,1.596 C -2.295,0.238 -2.421,0.07 -3.051,0 l -0.42,-0.056 c -0.154,-0.056 -0.154,-0.336 -0.014,-0.406 0.658,0.028 1.19,0.042 1.82,0.042 0.671,0 1.316,-0.014 2.057,-0.042 0.099,0.07 0.154,0.294 0.085,0.406 L 0,0"
         inkscape:connector-curvature="0" />
    </g>
    <g
       transform="matrix(1.6865856,0,0,-1.6865856,504.12712,348.73563)"
       id="g3575">
      <path
         id="path3577"
         style="fill:#231f20;fill-opacity:1;fill-rule:nonzero;stroke:none"
         d="m 0,0 c 0.18,-0.46 0.359,-0.818 0.762,-0.818 0.582,0 1.053,0.75 1.254,1.49 C 1.972,0.806 1.792,0.828 1.725,0.739 1.524,0.403 1.299,0.067 1.165,0.067 1.053,0.067 0.986,0.19 0.829,0.627 l -0.403,1.12 c 0.09,0.112 0.336,0.414 0.392,0.481 0.504,0.594 0.784,0.818 0.952,0.818 0.112,0 0.202,-0.134 0.258,-0.291 0.033,-0.135 0.078,-0.224 0.19,-0.224 0.202,0 0.493,0.336 0.493,0.795 0,0.291 -0.157,0.582 -0.493,0.582 C 1.792,3.908 1.412,3.55 0.852,2.889 0.56,2.553 0.336,2.24 0.269,2.195 l -0.381,1.041 c -0.156,0.437 -0.336,0.672 -0.582,0.672 -0.538,0 -1.098,-0.84 -1.277,-1.377 0.023,-0.135 0.135,-0.202 0.269,-0.157 0.224,0.381 0.381,0.582 0.538,0.582 0.089,0 0.168,-0.201 0.268,-0.47 L -0.481,1.344 C -0.649,1.131 -0.918,0.795 -1.108,0.582 -1.456,0.212 -1.668,0.067 -1.747,0.067 c -0.089,0 -0.157,0.089 -0.224,0.269 -0.045,0.134 -0.09,0.246 -0.179,0.246 -0.067,0 -0.123,-0.034 -0.224,-0.112 -0.224,-0.179 -0.403,-0.56 -0.403,-0.795 0,-0.291 0.179,-0.493 0.448,-0.493 0.347,0 0.728,0.213 1.265,0.851 0.146,0.168 0.639,0.762 0.728,0.863 L 0,0"
         inkscape:connector-curvature="0" />
    </g>
    <g
       transform="matrix(1.6865856,0,0,-1.6865856,509.98465,349.08982)"
       id="g3579">
      <path
         id="path3581"
         style="fill:#231f20;fill-opacity:1;fill-rule:nonzero;stroke:none"
         d="m 0,0 c -0.397,0 -0.717,-0.371 -0.883,-0.659 -0.013,-0.077 0.038,-0.128 0.102,-0.128 0.154,0.179 0.359,0.358 0.5,0.358 0.064,0 0.07,-0.064 0.038,-0.166 -0.179,-0.583 -0.499,-1.472 -0.64,-1.888 -0.058,-0.179 0.166,-0.218 0.294,-0.218 0.103,0 0.186,0.026 0.218,0.103 0.262,0.608 0.531,1.228 0.768,1.612 0.211,0.352 0.358,0.493 0.435,0.493 0.064,0 0.102,-0.064 0.128,-0.192 0.026,-0.115 0.051,-0.185 0.128,-0.185 0.199,0 0.346,0.313 0.346,0.512 C 1.434,-0.179 1.344,0 1.139,0 0.947,0 0.775,-0.154 0.57,-0.41 0.41,-0.608 0.192,-0.973 0,-1.325 l -0.038,0 0.224,0.659 C 0.288,-0.371 0.346,0 0,0"
         inkscape:connector-curvature="0" />
    </g>
    <g
       transform="matrix(1.6865856,0,0,-1.6865856,581.48239,359.15874)"
       id="g3583">
      <path
         id="path3585"
         style="fill:#231f20;fill-opacity:1;fill-rule:nonzero;stroke:none"
         d="m 0,0 c 0,-0.519 -0.028,-0.596 -0.266,-0.631 l -0.126,-0.021 c -0.049,-0.049 -0.042,-0.175 0.014,-0.203 0.266,0.014 0.497,0.021 0.728,0.021 0.259,0 0.497,-0.007 0.917,-0.021 0.056,0.028 0.063,0.154 0.014,0.203 L 1.008,-0.623 C 0.763,-0.596 0.735,-0.519 0.735,0 l 0,0.959 c 0,0.342 0.042,0.504 0.203,0.504 0.042,0 0.161,-0.015 0.336,-0.133 0.056,-0.035 0.119,-0.057 0.189,-0.057 0.189,0 0.392,0.134 0.392,0.406 0,0.182 -0.14,0.343 -0.385,0.343 -0.238,0 -0.469,-0.209 -0.686,-0.364 -0.042,0 -0.07,0.035 -0.07,0.084 0,0.063 0.007,0.182 0.014,0.315 C 0.714,2.099 0.672,2.121 0.63,2.121 0.42,1.994 0.049,1.841 -0.252,1.742 -0.28,1.707 -0.28,1.609 -0.259,1.582 l 0.084,-0.05 C 0,1.427 0,1.343 0,1.028 L 0,0"
         inkscape:connector-curvature="0" />
    </g>
    <g
       transform="matrix(1.6865856,0,0,-1.6865856,586.75805,357.11457)"
       id="g3587">
      <path
         id="path3589"
         style="fill:#231f20;fill-opacity:1;fill-rule:evenodd;stroke:none"
         d="M 0,0 C 0,0.287 0.007,0.622 0.021,0.853 0,0.888 -0.035,0.902 -0.077,0.909 -0.273,0.79 -0.623,0.637 -0.987,0.531 -1.015,0.497 -1.015,0.399 -0.994,0.371 L -0.91,0.322 c 0.175,-0.105 0.175,-0.189 0.175,-0.504 l 0,-1.028 c 0,-0.517 -0.028,-0.594 -0.266,-0.629 L -1.127,-1.86 c -0.049,-0.05 -0.042,-0.178 0.014,-0.206 0.266,0.014 0.504,0.02 0.735,0.02 0.259,0 0.497,-0.006 0.756,-0.02 0.056,0.028 0.063,0.156 0.014,0.206 L 0.266,-1.839 C 0.028,-1.804 0,-1.727 0,-1.21 L 0,0 z m -0.371,1.734 c 0.266,0 0.448,0.189 0.448,0.441 0,0.253 -0.182,0.441 -0.448,0.441 -0.266,0 -0.448,-0.188 -0.448,-0.441 0,-0.252 0.182,-0.441 0.448,-0.441"
         inkscape:connector-curvature="0" />
    </g>
    <g
       transform="matrix(1.6865856,0,0,-1.6865856,593.08275,356.78567)"
       id="g3591">
      <path
         id="path3593"
         style="fill:#231f20;fill-opacity:1;fill-rule:evenodd;stroke:none"
         d="m 0,0 c 0.056,0.013 0.112,0.097 0.112,0.237 0,0.057 -0.028,0.106 -0.056,0.126 l -0.686,0 c -0.084,0 -0.161,0.035 -0.308,0.105 -0.182,0.091 -0.427,0.147 -0.707,0.147 -0.756,0 -1.281,-0.476 -1.281,-1.106 0,-0.455 0.28,-0.735 0.518,-0.833 0.028,-0.014 0.028,-0.056 0.028,-0.077 0,-0.098 -0.343,-0.314 -0.448,-0.37 -0.084,-0.05 -0.112,-0.106 -0.112,-0.175 0,-0.273 0.217,-0.498 0.462,-0.582 0.063,-0.021 0.014,-0.112 -0.042,-0.153 -0.105,-0.092 -0.371,-0.246 -0.434,-0.316 -0.084,-0.105 -0.098,-0.196 -0.098,-0.3 0,-0.364 0.322,-0.827 1.309,-0.827 0.602,0 1.05,0.211 1.358,0.463 0.189,0.146 0.441,0.489 0.441,0.853 0,0.763 -0.637,0.847 -1.141,0.847 -0.301,0 -0.567,-0.014 -0.77,-0.014 -0.287,0 -0.385,0.133 -0.385,0.273 0,0.126 0.105,0.218 0.217,0.274 0.091,-0.015 0.182,-0.028 0.266,-0.028 0.889,0 1.281,0.566 1.281,1.154 0,0.154 -0.014,0.231 -0.035,0.302 L 0,0 z m -1.288,-2.584 c 0.434,0 0.763,-0.175 0.763,-0.532 0,-0.406 -0.336,-0.651 -0.931,-0.651 -0.539,0 -0.917,0.28 -0.917,0.707 0,0.175 0.091,0.301 0.21,0.392 0.084,0.063 0.231,0.084 0.476,0.084 l 0.399,0 z m -0.861,2.22 c 0,0.483 0.217,0.713 0.462,0.713 0.315,0 0.518,-0.342 0.518,-0.819 0,-0.49 -0.196,-0.721 -0.462,-0.721 -0.266,0 -0.518,0.287 -0.518,0.827"
         inkscape:connector-curvature="0" />
    </g>
    <g
       transform="matrix(1.6865856,0,0,-1.6865856,595.26685,353.9286)"
       id="g3595">
      <path
         id="path3597"
         style="fill:#231f20;fill-opacity:1;fill-rule:nonzero;stroke:none"
         d="M 0,0 C 0,0.3 0.007,0.735 0.021,1.014 0.007,1.05 -0.035,1.077 -0.077,1.07 -0.364,0.958 -0.721,0.811 -0.994,0.735 -1.043,0.713 -1.036,0.601 -0.994,0.574 L -0.896,0.51 c 0.154,-0.091 0.161,-0.139 0.161,-0.609 l 0,-3 c 0,-0.517 -0.028,-0.594 -0.266,-0.629 l -0.154,-0.021 c -0.049,-0.05 -0.042,-0.178 0.014,-0.206 0.294,0.014 0.532,0.02 0.756,0.02 0.259,0 0.497,-0.006 0.742,-0.02 0.056,0.028 0.063,0.156 0.014,0.206 L 0.266,-3.735 C 0.028,-3.693 0,-3.616 0,-3.099 l 0,0.936 c 0,0.273 0.007,0.378 0.084,0.462 0.084,0.091 0.245,0.202 0.476,0.202 0.413,0 0.56,-0.279 0.56,-0.615 l 0,-0.985 c 0,-0.517 -0.028,-0.594 -0.266,-0.636 L 0.749,-3.749 C 0.7,-3.799 0.707,-3.927 0.763,-3.955 c 0.245,0.014 0.483,0.02 0.714,0.02 0.259,0 0.497,-0.006 0.791,-0.02 0.07,0.028 0.077,0.156 0.014,0.206 l -0.161,0.021 c -0.238,0.035 -0.266,0.112 -0.266,0.629 l 0,1.041 c 0,0.595 -0.294,0.979 -0.896,0.979 -0.35,0 -0.651,-0.153 -0.896,-0.336 C 0.014,-1.415 0,-1.379 0,-1.296 L 0,0"
         inkscape:connector-curvature="0" />
    </g>
    <g
       transform="matrix(1.6865856,0,0,-1.6865856,602.85817,356.43318)"
       id="g3599">
      <path
         id="path3601"
         style="fill:#231f20;fill-opacity:1;fill-rule:nonzero;stroke:none"
         d="m 0,0 c 0.056,0.035 0.084,0.098 0.091,0.182 0,0.071 -0.014,0.126 -0.056,0.148 l -0.693,0 c -0.133,0 -0.133,0.02 -0.133,0.132 l 0,0.42 C -0.826,0.938 -0.924,0.96 -0.987,0.917 -1.085,0.728 -1.239,0.582 -1.372,0.483 -1.526,0.371 -1.687,0.281 -1.925,0.189 -1.988,0.147 -1.974,0.035 -1.904,0 l 0.245,0 c 0.112,0 0.126,-0.007 0.126,-0.252 l 0,-1.421 c 0,-0.49 0.119,-0.875 0.784,-0.875 0.427,0 0.749,0.189 0.889,0.385 0.014,0.077 -0.028,0.133 -0.091,0.14 -0.112,-0.076 -0.196,-0.126 -0.336,-0.126 -0.448,0 -0.511,0.393 -0.511,0.833 l 0,1.078 C -0.798,-0.014 -0.791,0 -0.665,0 L 0,0"
         inkscape:connector-curvature="0" />
    </g>
    <g
       transform="matrix(1.6865856,0,0,-1.6865856,573.80842,366.81244)"
       id="g3603">
      <path
         id="path3605"
         style="fill:#231f20;fill-opacity:1;fill-rule:nonzero;stroke:none"
         d="M 0,0 C 0.829,0 1.646,0.605 2.061,1.154 2.083,1.288 1.994,1.377 1.859,1.377 1.4,0.907 0.997,0.694 0.661,0.694 c -0.269,0 -0.46,0.168 -0.46,0.672 0,0.818 0.359,1.647 0.706,2.196 0.314,0.493 0.605,0.716 0.829,0.716 0.291,0 0.258,-0.369 0.28,-0.616 C 2.027,3.461 2.161,3.349 2.352,3.349 2.61,3.349 3.024,3.528 3.024,3.965 3.035,4.413 2.643,4.726 2.061,4.726 1.467,4.726 0.873,4.458 0.28,3.875 -0.527,3.08 -0.986,1.971 -0.986,1.232 -0.986,0.426 -0.605,0 0,0"
         inkscape:connector-curvature="0" />
    </g>
    <g
       transform="matrix(1.6865856,0,0,-1.6865856,580.41815,367.43816)"
       id="g3607">
      <path
         id="path3609"
         style="fill:#231f20;fill-opacity:1;fill-rule:nonzero;stroke:none"
         d="M 0,0 C 0.051,0.033 0.044,0.169 -0.019,0.188 -0.231,0.175 -0.461,0.17 -0.698,0.17 -0.973,0.17 -1.127,0.175 -1.37,0.188 -1.428,0.163 -1.434,0.041 -1.383,0.003 c 0.282,-0.045 0.346,-0.083 0.512,-0.294 l 0.519,-0.69 c 0.07,-0.09 0.115,-0.16 0.115,-0.186 0,-0.025 -0.045,-0.089 -0.103,-0.172 -0.044,-0.074 -0.383,-0.508 -0.492,-0.642 -0.122,-0.134 -0.275,-0.167 -0.544,-0.205 -0.058,-0.03 -0.045,-0.153 0.012,-0.185 0.148,0.013 0.301,0.019 0.519,0.019 0.243,0 0.422,-0.013 0.582,-0.019 0.051,0.026 0.064,0.136 0.013,0.188 l -0.147,0.026 c -0.07,0.012 -0.115,0.032 -0.115,0.063 0,0.032 0.013,0.071 0.064,0.16 0.121,0.198 0.211,0.345 0.358,0.543 0.167,-0.224 0.327,-0.466 0.384,-0.549 0.051,-0.077 0.071,-0.115 0.071,-0.147 0,-0.032 -0.077,-0.051 -0.148,-0.064 L 0.064,-2.183 c -0.052,-0.046 -0.045,-0.162 0.019,-0.188 0.205,0.013 0.454,0.019 0.73,0.019 0.256,0 0.512,-0.006 0.723,-0.019 0.045,0.032 0.051,0.121 0.012,0.185 -0.332,0.051 -0.377,0.071 -0.639,0.441 l -0.5,0.703 c -0.051,0.07 -0.083,0.128 -0.083,0.154 0,0.025 0.032,0.083 0.096,0.153 l 0.301,0.377 c 0.173,0.224 0.269,0.275 0.525,0.326 L 1.421,0 C 1.478,0.046 1.472,0.156 1.408,0.188 1.261,0.175 1.075,0.17 0.889,0.17 0.697,0.17 0.505,0.175 0.313,0.188 0.249,0.162 0.243,0.046 0.3,0 L 0.429,-0.026 C 0.492,-0.045 0.537,-0.058 0.537,-0.089 0.537,-0.121 0.518,-0.166 0.499,-0.192 0.441,-0.3 0.281,-0.524 0.16,-0.703 c -0.148,0.192 -0.327,0.454 -0.352,0.492 -0.039,0.058 -0.051,0.096 -0.051,0.122 0,0.031 0.064,0.044 0.121,0.057 L 0,0"
         inkscape:connector-curvature="0" />
    </g>
    <g
       transform="matrix(1.6865856,0,0,-1.6865856,621.97729,369.06064)"
       id="g3611">
      <path
         id="path3613"
         style="fill:#231f20;fill-opacity:1;fill-rule:nonzero;stroke:none"
         d="m 0,0 c 0.225,0.112 0.281,0.448 0.168,0.616 l -1.666,0 c 0.308,1.064 0.616,2.128 1.078,3.052 0.294,0.588 0.63,0.938 0.938,0.938 0.28,0 0.686,-0.294 0.798,-1.246 C 1.344,3.164 1.428,3.08 1.624,3.08 1.932,3.08 2.38,3.444 2.38,4.032 2.38,4.606 1.848,5.11 0.98,5.11 -0.111,5.11 -0.994,4.508 -1.694,3.486 -2.268,2.66 -2.576,1.694 -2.898,0.616 l -1.246,0 C -4.34,0.532 -4.452,0.196 -4.312,0 l 1.247,0 c -0.701,-2.464 -1.373,-5.18 -1.849,-6.86 -0.28,-0.966 -0.476,-1.19 -0.685,-1.19 -0.239,0 -0.547,0.28 -0.813,0.7 -0.112,0.182 -0.238,0.28 -0.434,0.28 -0.28,0 -0.532,-0.28 -0.532,-0.658 0,-0.49 0.504,-0.938 1.176,-0.938 0.868,0 1.61,0.588 1.904,0.966 0.35,0.448 0.728,1.288 1.079,2.38 0.433,1.372 1.077,3.92 1.553,5.32 L 0,0"
         inkscape:connector-curvature="0" />
    </g>
  </g>
</svg>
