<?xml version="1.0" encoding="UTF-8" standalone="no"?>
<!-- Created with Inkscape (http://www.inkscape.org/) -->

<svg
   xmlns:dc="http://purl.org/dc/elements/1.1/"
   xmlns:cc="http://creativecommons.org/ns#"
   xmlns:rdf="http://www.w3.org/1999/02/22-rdf-syntax-ns#"
   xmlns:svg="http://www.w3.org/2000/svg"
   xmlns="http://www.w3.org/2000/svg"
   xmlns:sodipodi="http://sodipodi.sourceforge.net/DTD/sodipodi-0.dtd"
   xmlns:inkscape="http://www.inkscape.org/namespaces/inkscape"
   width="298.02872"
   height="246.86749"
   id="svg4102"
   version="1.1"
   inkscape:version="0.48.4 r9939"
   sodipodi:docname="New document 4">
  <defs
     id="defs4104" />
  <sodipodi:namedview
     id="base"
     pagecolor="#ffffff"
     bordercolor="#666666"
     borderopacity="1.0"
     inkscape:pageopacity="0.0"
     inkscape:pageshadow="2"
     inkscape:zoom="1.4"
     inkscape:cx="226.84187"
     inkscape:cy="126.50388"
     inkscape:document-units="px"
     inkscape:current-layer="layer1"
     showgrid="false"
     fit-margin-top="0"
     fit-margin-left="0"
     fit-margin-right="0"
     fit-margin-bottom="0"
     inkscape:window-width="1366"
     inkscape:window-height="744"
     inkscape:window-x="0"
     inkscape:window-y="24"
     inkscape:window-maximized="1" />
  <metadata
     id="metadata4107">
    <rdf:RDF>
      <cc:Work
         rdf:about="">
        <dc:format>image/svg+xml</dc:format>
        <dc:type
           rdf:resource="http://purl.org/dc/dcmitype/StillImage" />
        <dc:title></dc:title>
      </cc:Work>
    </rdf:RDF>
  </metadata>
  <g
     inkscape:label="Layer 1"
     inkscape:groupmode="layer"
     id="layer1"
     transform="translate(-225.98563,-409.87906)">
    <g
       transform="matrix(1.25,0,0,-1.25,406.47187,637.58031)"
       id="g3061">
      <path
         id="path3063"
         style="fill:none;stroke:#231f20;stroke-width:0.5;stroke-linecap:butt;stroke-linejoin:miter;stroke-miterlimit:3.86400008;stroke-opacity:1;stroke-dasharray:1, 1;stroke-dashoffset:0"
         d="M 0,0 -127.452,19.198"
         inkscape:connector-curvature="0" />
    </g>
    <g
       transform="matrix(1.25,0,0,-1.25,247.15688,613.58281)"
       id="g3065">
      <path
         id="path3067"
         style="fill:none;stroke:#231f20;stroke-width:1.5;stroke-linecap:butt;stroke-linejoin:miter;stroke-miterlimit:3.86400008;stroke-opacity:1;stroke-dasharray:none"
         d="M 0,0 0,-31.448"
         inkscape:connector-curvature="0" />
    </g>
    <g
       transform="matrix(1.25,0,0,-1.25,249.86438,646.12156)"
       id="g3069">
      <path
         id="path3071"
         style="fill:none;stroke:#231f20;stroke-width:1.5;stroke-linecap:round;stroke-linejoin:miter;stroke-miterlimit:3.86400008;stroke-opacity:1;stroke-dasharray:none"
         d="M 0,0 -2.166,-6.229 -4.334,0"
         inkscape:connector-curvature="0" />
    </g>
    <g
       transform="matrix(1.25,0,0,-1.25,291.00436,564.92406)"
       id="g3073">
      <path
         id="path3075"
         style="fill:none;stroke:#231f20;stroke-width:0.5;stroke-linecap:butt;stroke-linejoin:miter;stroke-miterlimit:3.86400008;stroke-opacity:1;stroke-dasharray:1, 1;stroke-dashoffset:0"
         d="M 0,0 -35.078,-38.927"
         inkscape:connector-curvature="0" />
    </g>
    <g
       transform="matrix(1.25,0,0,-1.25,239.03188,525.86156)"
       id="g3077">
      <path
         id="path3079"
         style="fill:none;stroke:#231f20;stroke-width:0.5;stroke-linecap:butt;stroke-linejoin:miter;stroke-miterlimit:3.86400008;stroke-opacity:1;stroke-dasharray:none"
         d="m 0,0 61.828,-9.5 0,-46.251 L 0,-46.251 0,0 z M 30.914,-27.876 6.5,-70.177"
         inkscape:connector-curvature="0" />
    </g>
    <g
       transform="matrix(1.25,0,0,-1.25,276.23563,560.70656)"
       id="g3081">
      <path
         id="path3083"
         style="fill:#231f20;fill-opacity:1;fill-rule:nonzero;stroke:none"
         d="M 0,0 C 0,0.636 0.515,1.151 1.151,1.151 1.785,1.151 2.3,0.636 2.3,0 2.3,-0.635 1.785,-1.15 1.151,-1.15 0.515,-1.15 0,-0.635 0,0"
         inkscape:connector-curvature="0" />
    </g>
    <g
       transform="matrix(1.25,0,0,-1.25,362.25436,414.29906)"
       id="g3085">
      <path
         id="path3087"
         style="fill:none;stroke:#231f20;stroke-width:0.5;stroke-linecap:butt;stroke-linejoin:miter;stroke-miterlimit:3.86400008;stroke-opacity:1;stroke-dasharray:none"
         d="M 0,0 -55.407,-95.737"
         inkscape:connector-curvature="0" />
    </g>
    <g
       transform="matrix(1.25,0,0,-1.25,362.07063,414.61531)"
       id="g3089">
      <path
         id="path3091"
         style="fill:#231f20;fill-opacity:1;fill-rule:evenodd;stroke:none"
         d="M 0,0 -1.515,0.875 2.188,3.789 1.517,-0.875 0,0"
         inkscape:connector-curvature="0" />
    </g>
    <g
       transform="matrix(1.25,0,0,-1.25,404.56561,637.58031)"
       id="g3093">
      <path
         id="path3095"
         style="fill:#7b7979;fill-opacity:1;fill-rule:nonzero;stroke:none"
         d="M 0,0 C 0,0.842 0.684,1.525 1.525,1.525 2.368,1.525 3.05,0.842 3.05,0 3.05,-0.842 2.368,-1.525 1.525,-1.525 0.684,-1.525 0,-0.842 0,0"
         inkscape:connector-curvature="0" />
    </g>
    <g
       transform="matrix(1.25,0,0,-1.25,247.15688,613.58281)"
       id="g3097">
      <path
         id="path3099"
         style="fill:none;stroke:#231f20;stroke-width:1.5;stroke-linecap:butt;stroke-linejoin:miter;stroke-miterlimit:3.86400008;stroke-opacity:1;stroke-dasharray:none"
         d="M 0,0 29.576,-4.455"
         inkscape:connector-curvature="0" />
    </g>
    <g
       transform="matrix(1.25,0,0,-1.25,277.86311,615.41781)"
       id="g3101">
      <path
         id="path3103"
         style="fill:none;stroke:#231f20;stroke-width:1.5;stroke-linecap:round;stroke-linejoin:miter;stroke-miterlimit:3.86400008;stroke-opacity:1;stroke-dasharray:none"
         d="M 0,0 5.814,-3.114 -0.677,-4.28"
         inkscape:connector-curvature="0" />
    </g>
    <g
       transform="matrix(1.25,0,0,-1.25,245.24938,613.58281)"
       id="g3105">
      <path
         id="path3107"
         style="fill:#7b7979;fill-opacity:1;fill-rule:nonzero;stroke:none"
         d="M 0,0 C 0,0.842 0.683,1.525 1.526,1.525 2.367,1.525 3.05,0.842 3.05,0 3.05,-0.842 2.367,-1.524 1.526,-1.524 0.683,-1.524 0,-0.842 0,0"
         inkscape:connector-curvature="0" />
    </g>
    <g
       transform="matrix(1.25,0,0,-1.25,264.28811,529.74282)"
       id="g3109">
      <path
         id="path3111"
         style="fill:none;stroke:#231f20;stroke-width:1.5;stroke-linecap:butt;stroke-linejoin:round;stroke-miterlimit:3.86400008;stroke-opacity:1;stroke-dasharray:none"
         d="m 0,0 -20.393,3.103 0,-19.248"
         inkscape:connector-curvature="0" />
    </g>
    <g
       transform="matrix(1.25,0,0,-1.25,258.02438,526.00781)"
       id="g3113">
      <path
         id="path3115"
         style="fill:none;stroke:#231f20;stroke-width:1.5;stroke-linecap:round;stroke-linejoin:miter;stroke-miterlimit:3.86400008;stroke-opacity:1;stroke-dasharray:none"
         d="M 0,0 5.815,-3.115 -0.677,-4.28 m -12.538,-9.436 -2.167,-6.23 -2.166,6.23"
         inkscape:connector-curvature="0" />
    </g>
    <g
       transform="matrix(1.25,0,0,-1.25,395.37812,447.89281)"
       id="g3117">
      <path
         id="path3119"
         style="fill:none;stroke:#231f20;stroke-width:0.5;stroke-linecap:butt;stroke-linejoin:miter;stroke-miterlimit:3.86400008;stroke-opacity:1;stroke-dasharray:1, 1;stroke-dashoffset:0"
         d="M 0,0 -63.249,-71.875"
         inkscape:connector-curvature="0" />
    </g>
    <g
       transform="matrix(1.25,0,0,-1.25,343.50436,565.39281)"
       id="g3121">
      <path
         id="path3123"
         style="fill:none;stroke:#231f20;stroke-width:1;stroke-linecap:butt;stroke-linejoin:miter;stroke-miterlimit:3.86400008;stroke-opacity:1;stroke-dasharray:4, 4;stroke-dashoffset:0"
         d="M 0,0 49.749,87"
         inkscape:connector-curvature="0" />
    </g>
    <g
       transform="matrix(1.25,0,0,-1.25,347.91186,561.92406)"
       id="g3125">
      <path
         id="path3127"
         style="fill:none;stroke:#231f20;stroke-width:1;stroke-linecap:round;stroke-linejoin:miter;stroke-miterlimit:3.86400008;stroke-opacity:1;stroke-dasharray:none"
         d="m 0,0 -3.838,-3.316 0.952,4.983 m 45.583,79.783 3.84,3.316 -0.953,-4.983"
         inkscape:connector-curvature="0" />
    </g>
    <g
       transform="matrix(1.25,0,0,-1.25,403.34687,581.95531)"
       id="g3129">
      <path
         id="path3131"
         style="fill:none;stroke:#231f20;stroke-width:0.5;stroke-linecap:butt;stroke-linejoin:miter;stroke-miterlimit:3.86400008;stroke-opacity:1;stroke-dasharray:1, 1;stroke-dashoffset:0"
         d="M 0,0 2.414,-44.633"
         inkscape:connector-curvature="0" />
    </g>
    <g
       transform="matrix(1.25,0,0,-1.25,398.23937,550.02531)"
       id="g3133">
      <path
         id="path3135"
         style="fill:none;stroke:#231f20;stroke-width:0.5;stroke-linecap:butt;stroke-linejoin:miter;stroke-miterlimit:3.86400008;stroke-opacity:1;stroke-dasharray:none"
         d="m 0,0 61.828,-9.5 0,-46.251 L 0,-46.251 0,0 z M 30.914,-27.876 6.5,-70.177"
         inkscape:connector-curvature="0" />
    </g>
    <g
       transform="matrix(1.25,0,0,-1.25,435.44437,584.87031)"
       id="g3137">
      <path
         id="path3139"
         style="fill:#231f20;fill-opacity:1;fill-rule:nonzero;stroke:none"
         d="M 0,0 C 0,0.636 0.515,1.151 1.15,1.151 1.787,1.151 2.301,0.636 2.301,0 2.301,-0.635 1.787,-1.15 1.15,-1.15 0.515,-1.15 0,-0.635 0,0"
         inkscape:connector-curvature="0" />
    </g>
    <g
       transform="matrix(1.25,0,0,-1.25,521.46188,438.46281)"
       id="g3141">
      <path
         id="path3143"
         style="fill:none;stroke:#231f20;stroke-width:0.5;stroke-linecap:butt;stroke-linejoin:miter;stroke-miterlimit:3.86400008;stroke-opacity:1;stroke-dasharray:none"
         d="M 0,0 -55.406,-95.737"
         inkscape:connector-curvature="0" />
    </g>
    <g
       transform="matrix(1.25,0,0,-1.25,521.27936,438.77906)"
       id="g3145">
      <path
         id="path3147"
         style="fill:#231f20;fill-opacity:1;fill-rule:evenodd;stroke:none"
         d="M 0,0 -1.515,0.875 2.188,3.789 1.516,-0.875 0,0"
         inkscape:connector-curvature="0" />
    </g>
    <g
       transform="matrix(1.25,0,0,-1.25,423.49687,553.90656)"
       id="g3149">
      <path
         id="path3151"
         style="fill:none;stroke:#231f20;stroke-width:1.5;stroke-linecap:butt;stroke-linejoin:round;stroke-miterlimit:3.86400008;stroke-opacity:1;stroke-dasharray:none"
         d="m 0,0 -20.392,3.103 0,-19.248"
         inkscape:connector-curvature="0" />
    </g>
    <g
       transform="matrix(1.25,0,0,-1.25,417.23312,550.17155)"
       id="g3153">
      <path
         id="path3155"
         style="fill:none;stroke:#231f20;stroke-width:1.5;stroke-linecap:round;stroke-linejoin:miter;stroke-miterlimit:3.86400008;stroke-opacity:1;stroke-dasharray:none"
         d="M 0,0 5.814,-3.115 -0.678,-4.28 m -12.536,-9.436 -2.167,-6.23 -2.167,6.23"
         inkscape:connector-curvature="0" />
    </g>
    <g
       transform="matrix(1.25,0,0,-1.25,395.37812,447.89281)"
       id="g3157">
      <path
         id="path3159"
         style="fill:none;stroke:#231f20;stroke-width:0.5;stroke-linecap:butt;stroke-linejoin:miter;stroke-miterlimit:3.86400008;stroke-opacity:1;stroke-dasharray:1, 1;stroke-dashoffset:0"
         d="m 0,0 5.715,-82.232 m -68.964,-35.894 65.999,-9.749 m -65.999,55.733 65.999,-9.749"
         inkscape:connector-curvature="0" />
    </g>
    <g
       transform="matrix(1.25,0,0,-1.25,290.58936,562.06031)"
       id="g3161">
      <path
         id="path3163"
         style="fill:#e9e9e9;fill-opacity:1;fill-rule:nonzero;stroke:none"
         d="M 0,0 C 0,1.032 0.838,1.626 1.869,1.327 2.901,1.028 3.739,-0.052 3.739,-1.084 3.739,-2.116 2.901,-2.71 1.869,-2.41 0.838,-2.111 0,-1.032 0,0"
         inkscape:connector-curvature="0" />
    </g>
    <g
       transform="matrix(1.25,0,0,-1.25,290.58936,562.06031)"
       id="g3165">
      <path
         id="path3167"
         style="fill:none;stroke:#231f20;stroke-width:0.5;stroke-linecap:butt;stroke-linejoin:miter;stroke-miterlimit:3.86400008;stroke-opacity:1;stroke-dasharray:none"
         d="M 0,0 C 0,1.032 0.838,1.626 1.869,1.327 2.901,1.028 3.739,-0.052 3.739,-1.084 3.739,-2.116 2.901,-2.71 1.869,-2.41 0.838,-2.111 0,-1.032 0,0 z"
         inkscape:connector-curvature="0" />
    </g>
    <g
       transform="matrix(1.25,0,0,-1.25,291.86687,561.77657)"
       id="g3169">
      <path
         id="path3171"
         style="fill:#e9e9e9;fill-opacity:1;fill-rule:nonzero;stroke:none"
         d="M 0,0 C 0,0.127 0.103,0.199 0.23,0.163 0.355,0.126 0.458,-0.006 0.458,-0.132 0.458,-0.259 0.355,-0.331 0.23,-0.295 0.103,-0.258 0,-0.126 0,0"
         inkscape:connector-curvature="0" />
    </g>
    <g
       transform="matrix(1.25,0,0,-1.25,291.86687,561.77657)"
       id="g3173">
      <path
         id="path3175"
         style="fill:none;stroke:#231f20;stroke-width:0.25;stroke-linecap:butt;stroke-linejoin:miter;stroke-miterlimit:3.86400008;stroke-opacity:1;stroke-dasharray:none"
         d="M 0,0 C 0,0.127 0.103,0.199 0.23,0.163 0.355,0.126 0.458,-0.006 0.458,-0.132 0.458,-0.259 0.355,-0.331 0.23,-0.295 0.103,-0.258 0,-0.126 0,0 z"
         inkscape:connector-curvature="0" />
    </g>
    <g
       transform="matrix(1.25,0,0,-1.25,293.41312,562.22407)"
       id="g3177">
      <path
         id="path3179"
         style="fill:#e9e9e9;fill-opacity:1;fill-rule:nonzero;stroke:none"
         d="m 0,0 c 0,0.126 0.103,0.198 0.228,0.162 0.127,-0.037 0.23,-0.169 0.23,-0.295 0,-0.126 -0.103,-0.199 -0.23,-0.162 C 0.103,-0.259 0,-0.127 0,0"
         inkscape:connector-curvature="0" />
    </g>
    <g
       transform="matrix(1.25,0,0,-1.25,293.41312,562.22407)"
       id="g3181">
      <path
         id="path3183"
         style="fill:none;stroke:#231f20;stroke-width:0.25;stroke-linecap:butt;stroke-linejoin:miter;stroke-miterlimit:3.86400008;stroke-opacity:1;stroke-dasharray:none"
         d="m 0,0 c 0,0.126 0.103,0.198 0.228,0.162 0.127,-0.037 0.23,-0.169 0.23,-0.295 0,-0.126 -0.103,-0.199 -0.23,-0.162 C 0.103,-0.259 0,-0.127 0,0 z"
         inkscape:connector-curvature="0" />
    </g>
    <g
       transform="matrix(1.25,0,0,-1.25,294.21062,563.66906)"
       id="g3185">
      <path
         id="path3187"
         style="fill:#231f20;fill-opacity:1;fill-rule:nonzero;stroke:none"
         d="m 0,0 c -0.223,-0.309 -0.6,-0.567 -1.029,-0.443 -0.431,0.126 -0.806,0.606 -1.026,1.048 -0.073,0.145 0.113,0.2 0.184,0.055 0.192,-0.381 0.502,-0.701 0.842,-0.8 0.339,-0.099 0.653,0.039 0.845,0.303 C -0.111,0.265 0.073,0.102 0,0"
         inkscape:connector-curvature="0" />
    </g>
    <g
       transform="matrix(1.25,0,0,-1.25,392.09561,445.23781)"
       id="g3189">
      <path
         id="path3191"
         style="fill:#e9e9e9;fill-opacity:1;fill-rule:nonzero;stroke:none"
         d="M 0,0 C 0,1.795 1.456,2.828 3.25,2.307 5.045,1.786 6.5,-0.091 6.5,-1.886 6.5,-3.68 5.045,-4.713 3.25,-4.193 1.456,-3.672 0,-1.795 0,0"
         inkscape:connector-curvature="0" />
    </g>
    <g
       transform="matrix(1.25,0,0,-1.25,392.09561,445.23781)"
       id="g3193">
      <path
         id="path3195"
         style="fill:none;stroke:#231f20;stroke-width:0.5;stroke-linecap:butt;stroke-linejoin:miter;stroke-miterlimit:3.86400008;stroke-opacity:1;stroke-dasharray:none"
         d="M 0,0 C 0,1.795 1.456,2.828 3.25,2.307 5.045,1.786 6.5,-0.091 6.5,-1.886 6.5,-3.68 5.045,-4.713 3.25,-4.193 1.456,-3.672 0,-1.795 0,0 z"
         inkscape:connector-curvature="0" />
    </g>
    <g
       transform="matrix(1.25,0,0,-1.25,394.31687,444.74532)"
       id="g3197">
      <path
         id="path3199"
         style="fill:#e9e9e9;fill-opacity:1;fill-rule:nonzero;stroke:none"
         d="M 0,0 C 0,0.22 0.179,0.346 0.397,0.283 0.617,0.219 0.794,-0.011 0.794,-0.23 0.794,-0.45 0.617,-0.576 0.397,-0.512 0.179,-0.449 0,-0.219 0,0"
         inkscape:connector-curvature="0" />
    </g>
    <g
       transform="matrix(1.25,0,0,-1.25,394.31687,444.74532)"
       id="g3201">
      <path
         id="path3203"
         style="fill:none;stroke:#231f20;stroke-width:0.5;stroke-linecap:butt;stroke-linejoin:miter;stroke-miterlimit:3.86400008;stroke-opacity:1;stroke-dasharray:none"
         d="M 0,0 C 0,0.22 0.179,0.346 0.397,0.283 0.617,0.219 0.794,-0.011 0.794,-0.23 0.794,-0.45 0.617,-0.576 0.397,-0.512 0.179,-0.449 0,-0.219 0,0 z"
         inkscape:connector-curvature="0" />
    </g>
    <g
       transform="matrix(1.25,0,0,-1.25,397.00562,445.52531)"
       id="g3205">
      <path
         id="path3207"
         style="fill:#e9e9e9;fill-opacity:1;fill-rule:nonzero;stroke:none"
         d="M 0,0 C 0,0.22 0.179,0.346 0.397,0.283 0.617,0.219 0.796,-0.011 0.796,-0.23 0.796,-0.45 0.617,-0.576 0.397,-0.512 0.179,-0.449 0,-0.219 0,0"
         inkscape:connector-curvature="0" />
    </g>
    <g
       transform="matrix(1.25,0,0,-1.25,397.00562,445.52531)"
       id="g3209">
      <path
         id="path3211"
         style="fill:none;stroke:#231f20;stroke-width:0.5;stroke-linecap:butt;stroke-linejoin:miter;stroke-miterlimit:3.86400008;stroke-opacity:1;stroke-dasharray:none"
         d="M 0,0 C 0,0.22 0.179,0.346 0.397,0.283 0.617,0.219 0.796,-0.011 0.796,-0.23 0.796,-0.45 0.617,-0.576 0.397,-0.512 0.179,-0.449 0,-0.219 0,0 z"
         inkscape:connector-curvature="0" />
    </g>
    <g
       transform="matrix(1.25,0,0,-1.25,398.39437,448.02906)"
       id="g3213">
      <path
         id="path3215"
         style="fill:#231f20;fill-opacity:1;fill-rule:nonzero;stroke:none"
         d="m 0,0 c -0.386,-0.537 -1.043,-0.985 -1.789,-0.769 -0.75,0.218 -1.401,1.054 -1.787,1.822 -0.126,0.252 0.197,0.347 0.323,0.096 0.332,-0.662 0.871,-1.22 1.464,-1.392 0.591,-0.171 1.137,0.067 1.469,0.528 C -0.193,0.462 0.129,0.177 0,0"
         inkscape:connector-curvature="0" />
    </g>
    <g
       transform="matrix(1.25,0,0,-1.25,401.12561,579.09781)"
       id="g3217">
      <path
         id="path3219"
         style="fill:#e9e9e9;fill-opacity:1;fill-rule:nonzero;stroke:none"
         d="M 0,0 C 0,1.032 0.837,1.819 1.868,1.756 2.901,1.695 3.737,0.808 3.737,-0.224 3.737,-1.256 2.901,-2.043 1.868,-1.981 0.837,-1.919 0,-1.032 0,0"
         inkscape:connector-curvature="0" />
    </g>
    <g
       transform="matrix(1.25,0,0,-1.25,401.12561,579.09781)"
       id="g3221">
      <path
         id="path3223"
         style="fill:none;stroke:#231f20;stroke-width:0.5;stroke-linecap:butt;stroke-linejoin:miter;stroke-miterlimit:3.86400008;stroke-opacity:1;stroke-dasharray:none"
         d="M 0,0 C 0,1.032 0.837,1.819 1.868,1.756 2.901,1.695 3.737,0.808 3.737,-0.224 3.737,-1.256 2.901,-2.043 1.868,-1.981 0.837,-1.919 0,-1.032 0,0 z"
         inkscape:connector-curvature="0" />
    </g>
    <g
       transform="matrix(1.25,0,0,-1.25,402.40312,578.5203)"
       id="g3225">
      <path
         id="path3227"
         style="fill:#e9e9e9;fill-opacity:1;fill-rule:nonzero;stroke:none"
         d="M 0,0 C 0,0.126 0.101,0.222 0.228,0.215 0.354,0.207 0.457,0.099 0.457,-0.027 0.457,-0.154 0.354,-0.25 0.228,-0.242 0.101,-0.235 0,-0.126 0,0"
         inkscape:connector-curvature="0" />
    </g>
    <g
       transform="matrix(1.25,0,0,-1.25,402.40312,578.5203)"
       id="g3229">
      <path
         id="path3231"
         style="fill:none;stroke:#231f20;stroke-width:0.25;stroke-linecap:butt;stroke-linejoin:miter;stroke-miterlimit:3.86400008;stroke-opacity:1;stroke-dasharray:none"
         d="M 0,0 C 0,0.126 0.101,0.222 0.228,0.215 0.354,0.207 0.457,0.099 0.457,-0.027 0.457,-0.154 0.354,-0.25 0.228,-0.242 0.101,-0.235 0,-0.126 0,0 z"
         inkscape:connector-curvature="0" />
    </g>
    <g
       transform="matrix(1.25,0,0,-1.25,403.94812,578.61281)"
       id="g3233">
      <path
         id="path3235"
         style="fill:#e9e9e9;fill-opacity:1;fill-rule:nonzero;stroke:none"
         d="M 0,0 C 0,0.126 0.102,0.222 0.229,0.215 0.355,0.207 0.458,0.098 0.458,-0.028 0.458,-0.154 0.355,-0.25 0.229,-0.243 0.102,-0.235 0,-0.127 0,0"
         inkscape:connector-curvature="0" />
    </g>
    <g
       transform="matrix(1.25,0,0,-1.25,403.94812,578.61281)"
       id="g3237">
      <path
         id="path3239"
         style="fill:none;stroke:#231f20;stroke-width:0.25;stroke-linecap:butt;stroke-linejoin:miter;stroke-miterlimit:3.86400008;stroke-opacity:1;stroke-dasharray:none"
         d="M 0,0 C 0,0.126 0.102,0.222 0.229,0.215 0.355,0.207 0.458,0.098 0.458,-0.028 0.458,-0.154 0.355,-0.25 0.229,-0.243 0.102,-0.235 0,-0.127 0,0 z"
         inkscape:connector-curvature="0" />
    </g>
    <g
       transform="matrix(1.25,0,0,-1.25,404.74563,579.87281)"
       id="g3241">
      <path
         id="path3243"
         style="fill:#231f20;fill-opacity:1;fill-rule:nonzero;stroke:none"
         d="m 0,0 c -0.223,-0.36 -0.601,-0.705 -1.029,-0.679 -0.431,0.026 -0.806,0.42 -1.027,0.811 -0.072,0.128 0.113,0.226 0.186,0.098 0.19,-0.337 0.5,-0.586 0.841,-0.607 0.34,-0.02 0.654,0.189 0.845,0.498 C -0.111,0.24 0.074,0.119 0,0"
         inkscape:connector-curvature="0" />
    </g>
    <g
       transform="matrix(1.25,0,0,-1.25,250.84561,520.51655)"
       id="g3245">
      <path
         id="path3247"
         style="fill:#231f20;fill-opacity:1;fill-rule:nonzero;stroke:none"
         d="m 0,0 c 0.181,-0.459 0.359,-0.818 0.762,-0.818 0.582,0 1.054,0.751 1.255,1.49 C 1.972,0.806 1.793,0.829 1.726,0.739 1.525,0.403 1.301,0.067 1.165,0.067 1.053,0.067 0.987,0.19 0.829,0.627 l -0.403,1.12 c 0.091,0.112 0.336,0.414 0.392,0.482 0.505,0.593 0.785,0.817 0.953,0.817 0.112,0 0.201,-0.134 0.257,-0.291 0.034,-0.134 0.079,-0.224 0.191,-0.224 0.201,0 0.492,0.336 0.492,0.795 0,0.292 -0.157,0.583 -0.492,0.583 C 1.793,3.909 1.413,3.55 0.853,2.889 0.562,2.553 0.338,2.24 0.269,2.195 L -0.11,3.237 c -0.158,0.436 -0.337,0.672 -0.584,0.672 -0.537,0 -1.097,-0.84 -1.276,-1.378 0.023,-0.134 0.134,-0.202 0.269,-0.157 0.224,0.381 0.38,0.583 0.537,0.583 0.09,0 0.168,-0.202 0.269,-0.471 L -0.481,1.344 C -0.649,1.131 -0.918,0.795 -1.108,0.582 -1.455,0.213 -1.668,0.067 -1.746,0.067 c -0.09,0 -0.158,0.09 -0.224,0.269 -0.045,0.134 -0.089,0.246 -0.179,0.246 -0.067,0 -0.123,-0.033 -0.224,-0.112 -0.225,-0.179 -0.403,-0.56 -0.403,-0.795 0,-0.291 0.178,-0.493 0.448,-0.493 0.347,0 0.728,0.213 1.265,0.851 0.145,0.168 0.638,0.762 0.727,0.863 L 0,0"
         inkscape:connector-curvature="0" />
    </g>
    <g
       transform="matrix(1.25,0,0,-1.25,256.08437,520.5028)"
       id="g3249">
      <path
         id="path3251"
         style="fill:#231f20;fill-opacity:1;fill-rule:nonzero;stroke:none"
         d="M 0,0 C 0.173,0.512 0.25,0.717 0.339,0.973 0.339,0.986 0.313,1.024 0.3,1.024 -0.013,0.998 -0.551,0.883 -0.724,0.819 -0.763,0.781 -0.763,0.73 -0.737,0.691 L -0.59,0.614 C -0.474,0.55 -0.448,0.486 -0.564,0.154 L -1.62,-2.938 c -0.089,-0.256 -0.115,-0.371 -0.115,-0.473 0,-0.103 0.076,-0.231 0.332,-0.231 0.647,0 1.026,0.512 1.205,0.858 0.013,0.077 -0.039,0.115 -0.116,0.115 -0.218,-0.256 -0.556,-0.614 -0.698,-0.614 -0.089,0 -0.083,0.089 -0.026,0.256 L 0,0"
         inkscape:connector-curvature="0" />
    </g>
    <g
       transform="matrix(1.25,0,0,-1.25,229.65438,534.69281)"
       id="g3253">
      <path
         id="path3255"
         style="fill:#231f20;fill-opacity:1;fill-rule:nonzero;stroke:none"
         d="m 0,0 c -0.773,0 -1.277,-0.952 -1.49,-1.636 0.023,-0.112 0.179,-0.179 0.291,-0.112 0.202,0.426 0.448,0.863 0.684,0.863 0.246,0 0.392,-0.639 0.414,-1.927 0.045,-1.108 -0.045,-1.926 -0.19,-2.464 -0.146,-0.582 -0.415,-1.075 -0.684,-1.344 -0.201,-0.201 -0.459,-0.279 -0.627,-0.279 -0.157,0 -0.246,0.111 -0.392,0.302 -0.112,0.145 -0.201,0.235 -0.381,0.235 -0.302,0 -0.56,-0.246 -0.56,-0.627 0.012,-0.336 0.336,-0.594 0.728,-0.594 0.448,0 1.087,0.202 1.882,1.075 0.784,0.863 1.389,1.871 1.904,2.744 0.986,1.703 1.322,3.092 1.322,3.338 0,0.135 -0.045,0.224 -0.146,0.291 -0.112,0.067 -0.28,0.112 -0.414,0.112 -0.157,0 -0.303,-0.067 -0.325,-0.403 C 2.005,-0.65 1.893,-1.344 1.769,-1.792 1.523,-2.688 1.209,-3.584 0.784,-4.301 l -0.045,0 c 0.123,0.773 0.157,1.579 0.146,2.329 C 0.862,-0.818 0.593,0 0,0"
         inkscape:connector-curvature="0" />
    </g>
    <g
       transform="matrix(1.25,0,0,-1.25,235.37063,539.5653)"
       id="g3257">
      <path
         id="path3259"
         style="fill:#231f20;fill-opacity:1;fill-rule:nonzero;stroke:none"
         d="M 0,0 C 0.172,0.512 0.249,0.717 0.339,0.973 0.339,0.986 0.313,1.024 0.3,1.024 -0.013,0.998 -0.551,0.883 -0.724,0.819 -0.762,0.781 -0.762,0.73 -0.736,0.691 L -0.589,0.614 C -0.474,0.55 -0.448,0.486 -0.564,0.154 L -1.62,-2.938 c -0.089,-0.256 -0.115,-0.371 -0.115,-0.473 0,-0.103 0.077,-0.231 0.333,-0.231 0.646,0 1.024,0.512 1.203,0.858 0.013,0.077 -0.038,0.115 -0.115,0.115 -0.218,-0.256 -0.557,-0.614 -0.698,-0.614 -0.089,0 -0.083,0.089 -0.025,0.256 L 0,0"
         inkscape:connector-curvature="0" />
    </g>
    <g
       transform="matrix(1.25,0,0,-1.25,236.46687,618.28532)"
       id="g3261">
      <path
         id="path3263"
         style="fill:#231f20;fill-opacity:1;fill-rule:evenodd;stroke:none"
         d="m 0,0 c 1.355,0 2.397,0.638 2.968,1.209 0.929,0.908 1.477,2.195 1.5,3.45 C 4.513,6.888 3.013,7.75 1.567,7.75 0.671,7.75 -0.303,7.493 -1.188,6.731 -2.33,5.768 -2.969,4.357 -2.991,2.957 -3.013,1.635 -2.263,0 0,0 z M 1.634,7.313 C 2.576,7.313 3.192,6.63 3.169,5.387 3.147,3.976 2.688,2.408 1.668,1.277 1.075,0.616 0.436,0.437 -0.068,0.437 c -1.198,0 -1.646,0.974 -1.624,1.993 0.045,1.904 1.02,3.618 1.893,4.312 0.359,0.303 0.851,0.571 1.433,0.571"
         inkscape:connector-curvature="0" />
    </g>
    <g
       transform="matrix(1.25,0,0,-1.25,244.23688,617.22155)"
       id="g3265">
      <path
         id="path3267"
         style="fill:#231f20;fill-opacity:1;fill-rule:nonzero;stroke:none"
         d="M 0,0 C 0.174,0.512 0.25,0.717 0.34,0.973 0.34,0.986 0.314,1.024 0.301,1.024 -0.013,0.998 -0.55,0.883 -0.722,0.819 -0.761,0.781 -0.761,0.73 -0.735,0.691 l 0.146,-0.077 c 0.117,-0.064 0.141,-0.128 0.026,-0.46 l -1.056,-3.092 c -0.09,-0.256 -0.114,-0.371 -0.114,-0.473 0,-0.103 0.075,-0.231 0.332,-0.231 0.646,0 1.024,0.512 1.203,0.858 0.012,0.077 -0.039,0.115 -0.115,0.115 -0.217,-0.256 -0.556,-0.614 -0.698,-0.614 -0.09,0 -0.082,0.089 -0.026,0.256 L 0,0"
         inkscape:connector-curvature="0" />
    </g>
    <g
       transform="matrix(1.25,0,0,-1.25,237.24063,644.48906)"
       id="g3269">
      <path
         id="path3271"
         style="fill:#231f20;fill-opacity:1;fill-rule:nonzero;stroke:none"
         d="m 0,0 c -0.571,0.056 -0.593,0.235 -0.257,1.254 l 0.235,0.75 c 0.269,0.794 0.369,0.94 0.773,1.443 0.527,0.65 1.456,1.802 2.016,2.418 0.537,0.593 0.772,0.727 1.22,0.817 l 0.28,0.056 C 4.379,6.806 4.379,7.011 4.289,7.067 3.965,7.045 3.606,7.035 3.181,7.035 2.8,7.035 2.431,7.045 1.937,7.067 1.825,7.011 1.804,6.806 1.916,6.738 L 2.196,6.682 C 2.509,6.615 2.509,6.547 2.364,6.324 2.105,5.932 1.814,5.563 1.523,5.204 L -0.022,3.248 c -0.202,0.952 -0.381,1.86 -0.582,2.935 -0.057,0.336 0,0.425 0.414,0.493 L 0.179,6.743 C 0.269,6.806 0.28,7.022 0.168,7.078 -0.269,7.045 -0.75,7.034 -1.198,7.034 c -0.224,0 -0.426,0 -0.65,0.011 -0.213,0 -0.448,0.011 -0.728,0.022 C -2.699,7.011 -2.721,6.829 -2.632,6.738 l 0.291,-0.056 c 0.392,-0.056 0.482,-0.269 0.594,-0.795 0.112,-0.604 0.448,-2.216 0.526,-2.652 0.113,-0.582 0.079,-0.828 -0.1,-1.41 L -1.501,1.254 C -1.848,0.168 -1.937,0.034 -2.441,0 l -0.426,-0.067 c -0.112,-0.045 -0.112,-0.257 -0.023,-0.325 0.572,0.023 1.02,0.034 1.591,0.034 0.504,0 0.974,-0.011 1.658,-0.034 0.089,0.056 0.112,0.28 0.044,0.325 L 0,0"
         inkscape:connector-curvature="0" />
    </g>
    <g
       transform="matrix(1.25,0,0,-1.25,253.39936,592.86156)"
       id="g3273">
      <path
         id="path3275"
         style="fill:#231f20;fill-opacity:1;fill-rule:nonzero;stroke:none"
         d="m 0,0 c 0.144,0.072 0.181,0.288 0.108,0.396 l -1.07,0 c 0.197,0.684 0.395,1.368 0.692,1.962 0.19,0.378 0.405,0.603 0.604,0.603 0.179,0 0.44,-0.189 0.513,-0.801 0.017,-0.126 0.071,-0.18 0.198,-0.18 0.198,0 0.485,0.234 0.485,0.612 0,0.369 -0.341,0.693 -0.899,0.693 -0.703,0 -1.269,-0.387 -1.72,-1.044 C -1.457,1.71 -1.656,1.089 -1.862,0.396 l -0.802,0 C -2.789,0.342 -2.862,0.126 -2.772,0 l 0.802,0 c -0.451,-1.584 -0.882,-3.33 -1.188,-4.41 -0.181,-0.621 -0.306,-0.765 -0.442,-0.765 -0.153,0 -0.351,0.18 -0.521,0.45 -0.073,0.117 -0.153,0.18 -0.28,0.18 -0.179,0 -0.341,-0.18 -0.341,-0.423 0,-0.315 0.323,-0.603 0.755,-0.603 0.558,0 1.036,0.378 1.224,0.621 0.226,0.288 0.468,0.828 0.694,1.53 0.278,0.882 0.692,2.52 0.998,3.42 L 0,0"
         inkscape:connector-curvature="0" />
    </g>
    <g
       transform="matrix(1.25,0,0,-1.25,266.04438,629.48906)"
       id="g3277">
      <path
         id="path3279"
         style="fill:#231f20;fill-opacity:1;fill-rule:nonzero;stroke:none"
         d="m 0,0 c -0.168,0.012 -0.235,0.056 -0.235,0.146 0,0.067 0.043,0.157 0.145,0.28 C 0.504,1.165 1.298,2.095 1.925,2.8 2.194,2.061 2.418,1.356 2.664,0.661 2.765,0.348 2.765,0.191 2.72,0.113 2.677,0.034 2.541,0 2.341,-0.022 L 2.037,-0.067 C 1.936,-0.123 1.948,-0.324 2.06,-0.392 c 0.414,0.023 0.884,0.034 1.468,0.034 0.593,0 0.951,-0.011 1.433,-0.034 0.089,0.056 0.112,0.258 0.022,0.325 L 4.681,-0.022 C 4.233,0.023 4.099,0.213 3.942,0.639 3.616,1.479 3.259,2.42 2.923,3.45 2.856,3.674 2.856,3.708 3,3.864 3.808,4.716 4.58,5.511 5.375,6.194 5.733,6.508 5.97,6.631 6.394,6.698 l 0.203,0.045 c 0.099,0.067 0.099,0.28 0,0.325 C 6.261,7.045 5.923,7.034 5.464,7.034 5.028,7.034 4.603,7.045 4.211,7.068 4.099,7 4.076,6.832 4.166,6.743 L 4.401,6.698 C 4.603,6.653 4.692,6.597 4.692,6.53 4.692,6.463 4.625,6.373 4.468,6.194 3.897,5.533 3.326,4.917 2.664,4.2 2.418,4.839 2.183,5.489 1.992,6.116 1.914,6.351 1.892,6.463 1.959,6.553 1.981,6.597 2.138,6.653 2.328,6.676 L 2.664,6.743 C 2.776,6.81 2.776,7 2.664,7.068 2.397,7.045 1.813,7.034 1.298,7.034 0.75,7.034 0.269,7.045 -0.08,7.068 -0.192,7.023 -0.224,6.832 -0.136,6.743 L 0.144,6.687 C 0.491,6.631 0.604,6.508 0.795,5.992 1.052,5.309 1.422,4.212 1.657,3.573 1.735,3.349 1.724,3.293 1.623,3.181 0.851,2.341 0.144,1.58 -0.382,1.042 -0.841,0.583 -1.345,0.068 -2.028,-0.022 l -0.28,-0.045 c -0.112,-0.045 -0.112,-0.246 0,-0.325 0.302,0.023 0.694,0.034 1.164,0.034 0.482,0 0.976,-0.011 1.435,-0.034 0.112,0.045 0.134,0.258 0.067,0.325 L 0,0"
         inkscape:connector-curvature="0" />
    </g>
    <g
       transform="matrix(1.25,0,0,-1.25,330.76436,628.94656)"
       id="g3281">
      <path
         id="path3283"
         style="fill:#231f20;fill-opacity:1;fill-rule:nonzero;stroke:none"
         d="m 0,0 c -0.728,0 -0.862,0.067 -0.84,0.291 -0.089,0.045 -0.224,0.045 -0.268,-0.022 -0.181,-0.426 -0.504,-1.086 -0.84,-1.68 0.022,-0.112 0.224,-0.179 0.336,-0.112 0.323,0.459 0.548,0.728 0.862,0.896 0.257,0.146 0.571,0.19 0.963,0.19 l 0.571,0 c 0.38,0 0.393,-0.022 0.268,-0.403 L -0.493,-5.779 C -0.84,-6.866 -0.951,-7 -1.455,-7.045 l -0.45,-0.056 c -0.112,-0.044 -0.112,-0.257 -0.021,-0.325 0.616,0.023 1.064,0.034 1.601,0.034 0.538,0 1.008,-0.011 1.737,-0.034 0.088,0.056 0.123,0.236 0.067,0.325 l -0.47,0.045 C 0.414,-7 0.437,-6.753 0.75,-5.779 l 1.535,4.939 c 0.124,0.381 0.135,0.403 0.471,0.403 l 0.615,0 c 0.358,0 0.638,-0.044 0.806,-0.145 0.213,-0.123 0.213,-0.482 0.168,-0.941 0.067,-0.112 0.304,-0.112 0.371,0 0.088,0.414 0.448,1.344 0.661,1.747 C 5.332,0.291 5.164,0.314 5.095,0.269 4.895,0.067 4.737,0 4.233,0 L 0,0"
         inkscape:connector-curvature="0" />
    </g>
    <g
       transform="matrix(1.25,0,0,-1.25,424.65062,620.51781)"
       id="g3285">
      <path
         id="path3287"
         style="fill:#231f20;fill-opacity:1;fill-rule:nonzero;stroke:none"
         d="m 0,0 c 0.143,0.072 0.18,0.288 0.107,0.396 l -1.07,0 c 0.197,0.684 0.395,1.368 0.692,1.962 0.189,0.378 0.405,0.603 0.603,0.603 0.18,0 0.441,-0.189 0.513,-0.801 C 0.863,2.034 0.918,1.98 1.043,1.98 1.241,1.98 1.53,2.214 1.53,2.592 1.53,2.961 1.188,3.285 0.629,3.285 -0.073,3.285 -0.639,2.898 -1.09,2.241 -1.458,1.71 -1.656,1.089 -1.863,0.396 l -0.801,0 C -2.79,0.342 -2.863,0.126 -2.772,0 l 0.801,0 c -0.451,-1.584 -0.883,-3.33 -1.189,-4.41 -0.18,-0.621 -0.306,-0.765 -0.44,-0.765 -0.154,0 -0.352,0.18 -0.522,0.45 -0.072,0.117 -0.154,0.18 -0.279,0.18 -0.181,0 -0.342,-0.18 -0.342,-0.423 0,-0.315 0.324,-0.603 0.755,-0.603 0.558,0 1.035,0.378 1.225,0.621 0.224,0.288 0.467,0.828 0.693,1.53 0.278,0.882 0.692,2.52 0.998,3.42 L 0,0"
         inkscape:connector-curvature="0" />
    </g>
    <g
       transform="matrix(1.25,0,0,-1.25,412.43688,645.31657)"
       id="g3289">
      <path
         id="path3291"
         style="fill:#231f20;fill-opacity:1;fill-rule:evenodd;stroke:none"
         d="m 0,0 c 1.356,0 2.397,0.638 2.969,1.209 0.928,0.908 1.478,2.196 1.5,3.45 C 4.513,6.888 3.013,7.75 1.568,7.75 0.672,7.75 -0.303,7.493 -1.186,6.731 -2.329,5.768 -2.967,4.357 -2.991,2.957 -3.013,1.635 -2.263,0 0,0 z M 1.636,7.313 C 2.577,7.313 3.193,6.63 3.169,5.387 3.147,3.976 2.689,2.408 1.669,1.277 1.076,0.616 0.436,0.437 -0.067,0.437 c -1.198,0 -1.646,0.974 -1.624,1.993 0.044,1.904 1.019,3.618 1.893,4.312 0.358,0.303 0.85,0.571 1.434,0.571"
         inkscape:connector-curvature="0" />
    </g>
    <g
       transform="matrix(1.25,0,0,-1.25,419.31188,645.42906)"
       id="g3293">
      <path
         id="path3295"
         style="fill:#231f20;fill-opacity:1;fill-rule:nonzero;stroke:none"
         d="m 0,0 c -0.397,0 -0.717,-0.371 -0.883,-0.659 -0.013,-0.077 0.038,-0.128 0.102,-0.128 0.155,0.179 0.359,0.358 0.5,0.358 0.064,0 0.07,-0.064 0.039,-0.166 -0.18,-0.582 -0.5,-1.472 -0.641,-1.888 -0.058,-0.179 0.166,-0.218 0.295,-0.218 0.101,0 0.186,0.026 0.217,0.103 0.262,0.608 0.531,1.229 0.768,1.613 0.211,0.352 0.358,0.492 0.435,0.492 0.064,0 0.102,-0.064 0.128,-0.192 0.026,-0.115 0.052,-0.185 0.129,-0.185 0.198,0 0.345,0.313 0.345,0.512 C 1.434,-0.179 1.344,0 1.14,0 0.947,0 0.775,-0.153 0.571,-0.409 0.41,-0.608 0.193,-0.973 0,-1.325 l -0.039,0 0.225,0.66 C 0.288,-0.371 0.345,0 0,0"
         inkscape:connector-curvature="0" />
    </g>
    <g
       transform="matrix(1.25,0,0,-1.25,261.59938,553.09906)"
       id="g3297">
      <path
         id="path3299"
         style="fill:#231f20;fill-opacity:1;fill-rule:nonzero;stroke:none"
         d="M 0,0 C 0,1.104 0.312,2.568 1.168,3.328 1.177,3.392 1.112,3.472 1.048,3.464 -0.088,2.768 -0.608,1.28 -0.608,0 c 0,-1.28 0.52,-2.768 1.656,-3.464 0.064,-0.008 0.129,0.072 0.12,0.136 C 0.312,-2.568 0,-1.104 0,0"
         inkscape:connector-curvature="0" />
    </g>
    <g
       transform="matrix(1.25,0,0,-1.25,264.60812,555.93907)"
       id="g3301">
      <path
         id="path3303"
         style="fill:#231f20;fill-opacity:1;fill-rule:nonzero;stroke:none"
         d="M 0,0 C 0.593,0 1.177,0.432 1.472,0.824 1.488,0.92 1.425,0.984 1.328,0.984 1,0.648 0.712,0.496 0.472,0.496 c -0.192,0 -0.327,0.12 -0.327,0.48 0,0.584 0.256,1.176 0.504,1.568 0.224,0.352 0.431,0.512 0.591,0.512 0.209,0 0.185,-0.264 0.2,-0.44 C 1.449,2.472 1.544,2.392 1.681,2.392 1.865,2.392 2.16,2.52 2.16,2.832 2.168,3.152 1.888,3.376 1.472,3.376 1.048,3.376 0.625,3.184 0.201,2.768 -0.375,2.2 -0.704,1.408 -0.704,0.88 -0.704,0.304 -0.431,0 0,0"
         inkscape:connector-curvature="0" />
    </g>
    <g
       transform="matrix(1.25,0,0,-1.25,268.81936,558.92657)"
       id="g3305">
      <path
         id="path3307"
         style="fill:#231f20;fill-opacity:1;fill-rule:nonzero;stroke:none"
         d="m 0,0 c 0.103,-0.263 0.205,-0.468 0.435,-0.468 0.334,0 0.602,0.429 0.718,0.852 C 1.127,0.46 1.024,0.473 0.985,0.422 0.871,0.23 0.743,0.038 0.666,0.038 c -0.065,0 -0.103,0.07 -0.192,0.32 L 0.243,0.998 C 0.295,1.062 0.435,1.235 0.468,1.273 0.756,1.612 0.916,1.74 1.011,1.74 1.075,1.74 1.127,1.664 1.159,1.574 1.177,1.497 1.203,1.446 1.267,1.446 c 0.116,0 0.282,0.192 0.282,0.454 0,0.167 -0.09,0.333 -0.282,0.333 C 1.024,2.233 0.806,2.028 0.487,1.651 0.321,1.459 0.192,1.28 0.153,1.254 l -0.216,0.595 c -0.09,0.25 -0.193,0.384 -0.334,0.384 -0.306,0 -0.627,-0.48 -0.73,-0.787 0.013,-0.077 0.077,-0.115 0.155,-0.09 0.127,0.218 0.218,0.333 0.306,0.333 0.052,0 0.097,-0.115 0.155,-0.269 L -0.276,0.768 C -0.371,0.646 -0.524,0.454 -0.634,0.332 -0.832,0.121 -0.953,0.038 -0.998,0.038 c -0.052,0 -0.09,0.051 -0.129,0.154 -0.024,0.076 -0.05,0.14 -0.102,0.14 -0.038,0 -0.071,-0.019 -0.127,-0.064 -0.129,-0.102 -0.232,-0.32 -0.232,-0.454 0,-0.167 0.103,-0.282 0.258,-0.282 0.198,0 0.416,0.122 0.722,0.487 0.084,0.096 0.366,0.435 0.416,0.493 L 0,0"
         inkscape:connector-curvature="0" />
    </g>
    <g
       transform="matrix(1.25,0,0,-1.25,274.46563,555.43906)"
       id="g3309">
      <path
         id="path3311"
         style="fill:#231f20;fill-opacity:1;fill-rule:nonzero;stroke:none"
         d="m 0,0 c 0,0.592 -0.368,0.872 -0.672,0.872 -0.313,0 -0.496,-0.192 -0.496,-0.424 0,-0.136 0.071,-0.24 0.183,-0.296 0.08,-0.04 0.464,-0.128 0.464,-0.48 0,-0.424 -0.408,-0.624 -0.688,-0.712 -0.056,-0.104 -0.024,-0.2 0.088,-0.24 C -0.528,-1.104 0,-0.696 0,0"
         inkscape:connector-curvature="0" />
    </g>
    <g
       transform="matrix(1.25,0,0,-1.25,278.82438,555.93907)"
       id="g3313">
      <path
         id="path3315"
         style="fill:#231f20;fill-opacity:1;fill-rule:nonzero;stroke:none"
         d="M 0,0 C 0.591,0 1.175,0.432 1.472,0.824 1.487,0.92 1.423,0.984 1.328,0.984 1,0.648 0.711,0.496 0.472,0.496 c -0.192,0 -0.329,0.12 -0.329,0.48 0,0.584 0.256,1.176 0.504,1.568 0.224,0.352 0.433,0.512 0.592,0.512 0.209,0 0.184,-0.264 0.201,-0.44 C 1.448,2.472 1.543,2.392 1.679,2.392 1.864,2.392 2.16,2.52 2.16,2.832 2.168,3.152 1.888,3.376 1.472,3.376 1.048,3.376 0.623,3.184 0.199,2.768 -0.377,2.2 -0.705,1.408 -0.705,0.88 -0.705,0.304 -0.433,0 0,0"
         inkscape:connector-curvature="0" />
    </g>
    <g
       transform="matrix(1.25,0,0,-1.25,282.46688,556.13531)"
       id="g3317">
      <path
         id="path3319"
         style="fill:#231f20;fill-opacity:1;fill-rule:nonzero;stroke:none"
         d="m 0,0 c -0.442,0 -0.73,-0.544 -0.851,-0.934 0.013,-0.064 0.101,-0.103 0.166,-0.064 0.116,0.243 0.256,0.493 0.39,0.493 0.142,0 0.224,-0.365 0.237,-1.101 0.026,-0.634 -0.026,-1.101 -0.108,-1.408 -0.084,-0.333 -0.237,-0.615 -0.392,-0.768 -0.114,-0.115 -0.261,-0.16 -0.358,-0.16 -0.09,0 -0.14,0.064 -0.224,0.173 -0.063,0.083 -0.114,0.134 -0.218,0.134 -0.172,0 -0.319,-0.141 -0.319,-0.358 0.007,-0.192 0.192,-0.34 0.416,-0.34 0.255,0 0.621,0.116 1.076,0.615 0.448,0.493 0.793,1.069 1.088,1.568 0.563,0.973 0.754,1.766 0.754,1.907 0,0.077 -0.026,0.128 -0.082,0.166 -0.064,0.039 -0.161,0.064 -0.237,0.064 -0.09,0 -0.174,-0.038 -0.187,-0.23 C 1.145,-0.371 1.082,-0.768 1.011,-1.024 0.871,-1.536 0.69,-2.048 0.448,-2.457 l -0.026,0 c 0.07,0.441 0.089,0.902 0.084,1.331 C 0.492,-0.467 0.338,0 0,0"
         inkscape:connector-curvature="0" />
    </g>
    <g
       transform="matrix(1.25,0,0,-1.25,288.05688,553.09906)"
       id="g3321">
      <path
         id="path3323"
         style="fill:#231f20;fill-opacity:1;fill-rule:nonzero;stroke:none"
         d="M 0,0 C 0,-1.104 -0.312,-2.568 -1.168,-3.328 -1.177,-3.392 -1.112,-3.472 -1.05,-3.464 0.088,-2.768 0.606,-1.28 0.606,0 0.606,1.28 0.088,2.768 -1.05,3.464 -1.112,3.472 -1.177,3.392 -1.168,3.328 -0.312,2.568 0,1.104 0,0"
         inkscape:connector-curvature="0" />
    </g>
    <g
       transform="matrix(1.25,0,0,-1.25,299.65186,561.87405)"
       id="g3325">
      <path
         id="path3327"
         style="fill:#231f20;fill-opacity:1;fill-rule:evenodd;stroke:none"
         d="m 0,0 c -0.039,0.08 -0.261,0.18 -0.5,0.18 -0.181,0 -0.321,-0.02 -0.381,-0.1 l -0.298,-0.75 c -0.442,-0.12 -0.961,-0.39 -1.282,-0.63 -0.059,-0.08 0,-0.22 0.12,-0.24 0.341,0.18 0.681,0.34 1,0.4 l -1.73,-4.88 C -3.261,-6.56 -3.33,-6.77 -3.81,-6.84 l -0.281,-0.04 c -0.079,-0.07 -0.058,-0.23 0.041,-0.29 0.819,0.07 1.66,0.1 2.479,0.1 0.12,0.04 0.14,0.21 0.06,0.27 l -0.42,0.04 c -0.36,0.03 -0.349,0.21 -0.16,0.76 l 0.431,1.27 c 0.039,0.1 0.08,0.16 0.16,0.18 0.119,-0.04 0.239,-0.08 0.34,-0.08 0.459,0 1.199,0.2 1.759,0.73 0.601,0.56 1.041,1.31 1.041,2.04 0,0.87 -0.66,1.29 -1.541,1.29 -0.119,0 -0.218,0 -0.319,-0.02 L 0,0 z m -0.319,-0.99 c 0.058,0.01 0.118,0.02 0.218,0.02 0.34,0 0.681,-0.23 0.681,-0.77 0,-0.55 -0.229,-1.27 -0.64,-1.88 -0.339,-0.5 -0.761,-0.65 -0.91,-0.65 -0.14,0 -0.25,0.12 -0.3,0.2 -0.071,0.11 -0.071,0.23 -0.03,0.35 l 0.981,2.73"
         inkscape:connector-curvature="0" />
    </g>
    <g
       transform="matrix(1.25,0,0,-1.25,304.29562,566.64656)"
       id="g3329">
      <path
         id="path3331"
         style="fill:#231f20;fill-opacity:1;fill-rule:nonzero;stroke:none"
         d="M 0,0 C 0.173,0.512 0.25,0.717 0.339,0.973 0.339,0.986 0.313,1.024 0.3,1.024 -0.013,0.998 -0.551,0.883 -0.724,0.819 -0.762,0.781 -0.762,0.73 -0.737,0.691 L -0.59,0.614 C -0.474,0.55 -0.448,0.486 -0.564,0.154 L -1.62,-2.938 c -0.089,-0.256 -0.115,-0.371 -0.115,-0.473 0,-0.103 0.078,-0.231 0.334,-0.231 0.645,0 1.024,0.512 1.203,0.858 0.013,0.077 -0.039,0.115 -0.116,0.115 -0.218,-0.256 -0.556,-0.614 -0.698,-0.614 -0.089,0 -0.082,0.089 -0.026,0.256 L 0,0"
         inkscape:connector-curvature="0" />
    </g>
    <g
       transform="matrix(1.25,0,0,-1.25,394.81563,439.32906)"
       id="g3333">
      <path
         id="path3335"
         style="fill:#231f20;fill-opacity:1;fill-rule:nonzero;stroke:none"
         d="m 0,0 c -0.572,0.056 -0.55,0.303 -0.248,1.277 l 1.581,4.995 c 0.099,0.325 0.134,0.381 0.424,0.381 0.806,0 1.3,-0.437 1.3,-1.277 C 3.057,4.01 2.061,3.214 1.053,3.08 0.974,2.99 0.984,2.856 1.074,2.789 c 0.371,0 0.806,0.033 1.389,0.179 0.998,0.246 1.893,0.997 1.893,2.106 0,0.649 -0.257,1.165 -0.773,1.512 C 3.079,6.933 2.317,7.09 1.287,7.09 0.447,7.09 -0.146,7.034 -0.706,6.966 -0.818,6.922 -0.864,6.743 -0.774,6.675 l 0.47,-0.067 C 0.088,6.541 0.1,6.384 -0.112,5.701 L -1.502,1.277 C -1.838,0.19 -1.939,0.056 -2.443,0 l -0.336,-0.045 c -0.122,-0.044 -0.122,-0.269 -0.01,-0.325 0.526,0.023 0.951,0.034 1.455,0.034 0.538,0 1.054,-0.011 1.646,-0.034 0.079,0.056 0.124,0.236 0.068,0.325 L 0,0"
         inkscape:connector-curvature="0" />
    </g>
    <g
       transform="matrix(1.25,0,0,-1.25,309.25061,496.69531)"
       id="g3337">
      <path
         id="path3339"
         style="fill:#231f20;fill-opacity:1;fill-rule:evenodd;stroke:none"
         d="m 0,0 0.435,0.753 -2.355,1.36 c 0.142,0.148 0.271,0.351 0.402,0.576 0.425,0.736 0.583,1.511 0.389,2.154 C -1.256,5.321 -1.58,5.716 -2.106,6.02 -2.616,6.314 -3.153,6.358 -3.615,6.198 -4.127,6.031 -4.615,5.586 -5.046,4.841 -5.395,4.235 -5.619,3.728 -5.759,3.325 L 0,0 z m -4.787,3.768 c 0.041,0.15 0.16,0.416 0.349,0.745 0.481,0.832 1.166,1.163 1.934,0.72 C -1.711,4.774 -1.59,3.966 -2.115,3.057 -2.261,2.805 -2.397,2.608 -2.535,2.468 l -2.252,1.3"
         inkscape:connector-curvature="0" />
    </g>
    <g
       transform="matrix(1.25,0,0,-1.25,312.45687,491.14281)"
       id="g3341">
      <path
         id="path3343"
         style="fill:#231f20;fill-opacity:1;fill-rule:nonzero;stroke:none"
         d="m 0,0 0.439,0.762 -2.243,1.296 c -0.121,0.069 -0.237,0.148 -0.339,0.231 -0.504,0.428 -0.69,1.044 -0.381,1.581 0.06,0.104 0.114,0.177 0.168,0.25 L -3.074,4.535 C -3.123,4.471 -3.166,4.415 -3.212,4.337 -3.507,3.826 -3.421,3.154 -2.97,2.638 L -2.985,2.612 -3.826,3.053 -4.212,2.386 C -3.806,2.187 -3.377,1.95 -2.884,1.665 L 0,0"
         inkscape:connector-curvature="0" />
    </g>
    <g
       transform="matrix(1.25,0,0,-1.25,315.07562,486.60656)"
       id="g3345">
      <path
         id="path3347"
         style="fill:#231f20;fill-opacity:1;fill-rule:evenodd;stroke:none"
         d="M 0,0 -4.192,2.42 -4.632,1.658 -0.44,-0.762 0,0 z m -5.119,2.435 c 0.17,0.295 0.06,0.602 -0.192,0.747 C -5.58,3.337 -5.897,3.266 -6.057,2.989 -6.222,2.703 -6.124,2.393 -5.856,2.238 -5.604,2.093 -5.283,2.149 -5.123,2.427 l 0.004,0.008"
         inkscape:connector-curvature="0" />
    </g>
    <g
       transform="matrix(1.25,0,0,-1.25,315.98811,485.02656)"
       id="g3349">
      <path
         id="path3351"
         style="fill:#231f20;fill-opacity:1;fill-rule:nonzero;stroke:none"
         d="m 0,0 0.44,0.762 -2.529,1.46 c -0.122,0.07 -0.249,0.168 -0.325,0.257 -0.345,0.384 -0.474,0.979 -0.189,1.472 0.415,0.719 1.131,0.64 1.806,0.25 L 1.62,2.806 2.06,3.568 -0.444,5.013 C -1.88,5.843 -2.746,5.143 -3.082,4.562 -3.481,3.87 -3.373,3.16 -3.102,2.727 L -3.112,2.709 -3.821,3.061 -4.211,2.386 C -3.851,2.212 -3.5,2.02 -3.058,1.765 L 0,0"
         inkscape:connector-curvature="0" />
    </g>
    <g
       transform="matrix(1.25,0,0,-1.25,320.61063,474.92031)"
       id="g3353">
      <path
         id="path3355"
         style="fill:#231f20;fill-opacity:1;fill-rule:nonzero;stroke:none"
         d="m 0,0 c -0.03,-0.272 -0.092,-0.618 -0.342,-1.051 -0.479,-0.831 -1.438,-1.11 -2.408,-0.55 -0.866,0.5 -1.284,1.435 -0.728,2.396 0.239,0.416 0.509,0.642 0.709,0.769 L -3.25,2.072 C -3.482,1.929 -3.825,1.596 -4.086,1.145 c -0.789,-1.368 -0.355,-2.796 0.936,-3.541 1.28,-0.74 2.614,-0.413 3.344,0.852 0.325,0.563 0.433,1.089 0.451,1.343 L 0,0"
         inkscape:connector-curvature="0" />
    </g>
    <g
       transform="matrix(1.25,0,0,-1.25,322.80687,473.21532)"
       id="g3357">
      <path
         id="path3359"
         style="fill:#231f20;fill-opacity:1;fill-rule:evenodd;stroke:none"
         d="M 0,0 -4.192,2.42 -4.632,1.657 -0.44,-0.763 0,0 z m -5.119,2.435 c 0.171,0.294 0.06,0.601 -0.191,0.746 -0.27,0.155 -0.587,0.085 -0.747,-0.192 -0.165,-0.286 -0.068,-0.597 0.201,-0.752 0.252,-0.145 0.573,-0.088 0.733,0.189 l 0.004,0.009"
         inkscape:connector-curvature="0" />
    </g>
    <g
       transform="matrix(1.25,0,0,-1.25,325.86187,472.87281)"
       id="g3361">
      <path
         id="path3363"
         style="fill:#231f20;fill-opacity:1;fill-rule:evenodd;stroke:none"
         d="m 0,0 0.441,0.762 -2.278,1.315 0.009,0.017 C -1.266,2.105 -0.75,2.442 -0.425,3.005 0.142,3.983 -0.069,5.34 -1.576,6.21 -2.849,6.945 -4.147,6.678 -4.737,5.656 -5.126,4.98 -5.121,4.308 -4.778,3.705 L -4.787,3.688 -5.53,4.059 -5.925,3.375 C -5.513,3.171 -5.074,2.93 -4.537,2.62 L 0,0 z m -3.707,3.157 c -0.097,0.055 -0.194,0.146 -0.278,0.218 -0.496,0.483 -0.574,1.186 -0.274,1.706 0.465,0.805 1.433,0.823 2.272,0.338 0.963,-0.555 1.351,-1.402 0.886,-2.208 -0.311,-0.537 -0.944,-0.794 -1.548,-0.619 -0.11,0.029 -0.227,0.085 -0.332,0.145 l -0.726,0.42"
         inkscape:connector-curvature="0" />
    </g>
    <g
       transform="matrix(1.25,0,0,-1.25,326.19062,459.92781)"
       id="g3365">
      <path
         id="path3367"
         style="fill:#231f20;fill-opacity:1;fill-rule:evenodd;stroke:none"
         d="m 0,0 c -0.839,0.485 -1.895,0.678 -2.639,-0.612 -0.305,-0.529 -0.452,-1.125 -0.437,-1.596 l 0.612,-0.122 c -0.03,0.41 0.093,0.881 0.323,1.28 0.487,0.862 1.173,0.593 1.52,0.393 l 0.086,-0.05 c -0.944,-1.615 -0.909,-2.836 0.104,-3.421 0.607,-0.35 1.454,-0.261 1.944,0.587 0.345,0.598 0.316,1.227 0.116,1.642 l 0.015,0.026 0.569,-0.236 0.395,0.684 c -0.311,0.122 -0.677,0.31 -1.039,0.52 L 0,0 z M 0.732,-1.415 C 0.808,-1.46 0.89,-1.519 0.954,-1.59 1.239,-1.916 1.379,-2.471 1.06,-3.025 0.84,-3.406 0.424,-3.605 -0.078,-3.316 c -0.813,0.471 -0.416,1.499 0.082,2.321 l 0.728,-0.42"
         inkscape:connector-curvature="0" />
    </g>
    <g
       transform="matrix(1.25,0,0,-1.25,330.28812,460.2578)"
       id="g3369">
      <path
         id="path3371"
         style="fill:#231f20;fill-opacity:1;fill-rule:nonzero;stroke:none"
         d="M 0,0 0.439,0.762 -5.709,4.312 -6.149,3.55 0,0"
         inkscape:connector-curvature="0" />
    </g>
    <g
       transform="matrix(1.25,0,0,-1.25,333.10561,455.37656)"
       id="g3373">
      <path
         id="path3375"
         style="fill:#231f20;fill-opacity:1;fill-rule:evenodd;stroke:none"
         d="m 0,0 0.435,0.754 -2.528,1.46 0.41,0.71 c 0.42,0.669 0.909,0.814 1.815,0.523 C 0.948,3.183 1.517,3.028 1.746,3.023 l 0.45,0.779 C 1.905,3.82 1.263,4.006 0.338,4.285 -0.352,4.488 -0.923,4.46 -1.334,4.108 L -1.36,4.123 C -1.218,4.849 -1.444,5.638 -2.207,6.078 -2.666,6.343 -3.164,6.4 -3.58,6.259 -4.118,6.085 -4.58,5.647 -5.045,4.841 -5.339,4.331 -5.608,3.746 -5.75,3.32 L 0,0 z m -4.787,3.769 c 0.041,0.15 0.151,0.421 0.362,0.784 0.46,0.797 1.104,1.153 1.856,0.718 C -1.901,4.886 -1.754,4.12 -2.22,3.315 L -2.664,2.544 -4.787,3.769"
         inkscape:connector-curvature="0" />
    </g>
    <g
       transform="matrix(1.25,0,0,-1.25,335.44187,443.90656)"
       id="g3377">
      <path
         id="path3379"
         style="fill:#231f20;fill-opacity:1;fill-rule:evenodd;stroke:none"
         d="m 0,0 c -0.841,0.485 -1.895,0.678 -2.64,-0.613 -0.305,-0.528 -0.453,-1.124 -0.436,-1.595 l 0.61,-0.122 c -0.028,0.409 0.093,0.881 0.323,1.28 0.487,0.862 1.175,0.592 1.52,0.392 l 0.088,-0.05 c -0.944,-1.614 -0.91,-2.835 0.103,-3.42 0.606,-0.35 1.453,-0.262 1.944,0.587 0.345,0.598 0.315,1.227 0.117,1.642 l 0.015,0.026 0.567,-0.236 0.396,0.684 c -0.312,0.122 -0.676,0.309 -1.041,0.52 L 0,0 z M 0.73,-1.415 C 0.808,-1.46 0.89,-1.519 0.952,-1.59 1.237,-1.916 1.379,-2.471 1.058,-3.025 0.838,-3.407 0.424,-3.606 -0.078,-3.316 c -0.815,0.47 -0.416,1.499 0.08,2.321 l 0.728,-0.42"
         inkscape:connector-curvature="0" />
    </g>
    <g
       transform="matrix(1.25,0,0,-1.25,333.84687,441.99156)"
       id="g3381">
      <path
         id="path3383"
         style="fill:#231f20;fill-opacity:1;fill-rule:nonzero;stroke:none"
         d="M 0,0 4.754,-0.688 C 4.874,-0.7 4.944,-0.718 4.987,-0.743 5.03,-0.768 5.077,-0.829 5.135,-0.908 5.42,-1.315 5.569,-1.737 5.614,-2.039 5.674,-2.374 5.65,-2.696 5.601,-2.921 l 0.741,-0.175 c 0.076,0.211 0.157,0.65 0.056,1.216 -0.159,0.784 -0.672,1.577 -1.795,2.952 L 2.276,3.94 1.81,3.135 3.791,0.884 C 4.034,0.605 4.305,0.333 4.511,0.11 L 4.5,0.093 C 4.209,0.169 3.819,0.255 3.483,0.311 L 0.48,0.831 0,0"
         inkscape:connector-curvature="0" />
    </g>
    <g
       transform="matrix(1.25,0,0,-1.25,410.05563,544.68031)"
       id="g3385">
      <path
         id="path3387"
         style="fill:#231f20;fill-opacity:1;fill-rule:nonzero;stroke:none"
         d="m 0,0 c 0.18,-0.459 0.358,-0.818 0.762,-0.818 0.582,0 1.052,0.751 1.254,1.49 C 1.972,0.806 1.792,0.829 1.726,0.739 1.524,0.403 1.3,0.067 1.166,0.067 1.054,0.067 0.986,0.19 0.83,0.627 L 0.426,1.747 C 0.516,1.859 0.762,2.161 0.818,2.229 1.322,2.822 1.602,3.046 1.77,3.046 1.882,3.046 1.972,2.912 2.028,2.755 2.061,2.621 2.107,2.531 2.218,2.531 2.42,2.531 2.71,2.867 2.71,3.326 2.71,3.618 2.554,3.909 2.218,3.909 1.792,3.909 1.412,3.55 0.852,2.889 0.56,2.553 0.336,2.24 0.27,2.195 l -0.382,1.042 c -0.156,0.436 -0.336,0.672 -0.582,0.672 -0.537,0 -1.097,-0.84 -1.277,-1.378 0.022,-0.134 0.134,-0.202 0.269,-0.157 0.223,0.381 0.381,0.583 0.537,0.583 0.091,0 0.168,-0.202 0.269,-0.471 L -0.481,1.344 C -0.649,1.131 -0.919,0.795 -1.109,0.582 -1.455,0.213 -1.669,0.067 -1.747,0.067 c -0.09,0 -0.156,0.09 -0.224,0.269 -0.044,0.134 -0.09,0.246 -0.18,0.246 -0.066,0 -0.122,-0.033 -0.224,-0.112 -0.224,-0.179 -0.402,-0.56 -0.402,-0.795 0,-0.291 0.178,-0.493 0.448,-0.493 0.346,0 0.728,0.213 1.265,0.851 0.145,0.168 0.638,0.762 0.728,0.863 L 0,0"
         inkscape:connector-curvature="0" />
    </g>
    <g
       transform="matrix(1.25,0,0,-1.25,415.29187,544.66656)"
       id="g3389">
      <path
         id="path3391"
         style="fill:#231f20;fill-opacity:1;fill-rule:nonzero;stroke:none"
         d="M 0,0 C 0.173,0.512 0.25,0.717 0.34,0.973 0.34,0.986 0.314,1.024 0.301,1.024 -0.012,0.998 -0.549,0.883 -0.723,0.819 -0.76,0.781 -0.76,0.73 -0.736,0.691 l 0.149,-0.077 c 0.114,-0.064 0.14,-0.128 0.025,-0.461 l -1.056,-3.091 c -0.089,-0.256 -0.115,-0.371 -0.115,-0.473 0,-0.103 0.077,-0.231 0.332,-0.231 0.646,0 1.025,0.512 1.203,0.858 0.013,0.077 -0.038,0.115 -0.114,0.115 -0.219,-0.256 -0.558,-0.614 -0.698,-0.614 -0.09,0 -0.084,0.089 -0.025,0.256 L 0,0"
         inkscape:connector-curvature="0" />
    </g>
    <g
       transform="matrix(1.25,0,0,-1.25,388.86312,558.85657)"
       id="g3393">
      <path
         id="path3395"
         style="fill:#231f20;fill-opacity:1;fill-rule:nonzero;stroke:none"
         d="m 0,0 c -0.772,0 -1.276,-0.952 -1.49,-1.636 0.022,-0.112 0.18,-0.179 0.292,-0.112 0.202,0.426 0.448,0.863 0.682,0.863 0.248,0 0.392,-0.639 0.416,-1.927 0.044,-1.108 -0.046,-1.926 -0.192,-2.464 -0.144,-0.582 -0.414,-1.075 -0.682,-1.344 -0.202,-0.201 -0.46,-0.279 -0.628,-0.279 -0.156,0 -0.246,0.111 -0.392,0.302 -0.112,0.145 -0.201,0.235 -0.381,0.235 -0.302,0 -0.56,-0.246 -0.56,-0.627 0.012,-0.336 0.336,-0.594 0.728,-0.594 0.449,0 1.087,0.202 1.883,1.075 0.783,0.863 1.389,1.871 1.903,2.745 0.986,1.702 1.322,3.091 1.322,3.337 0,0.135 -0.044,0.224 -0.146,0.291 -0.112,0.067 -0.28,0.112 -0.414,0.112 -0.156,0 -0.302,-0.067 -0.324,-0.403 C 2.005,-0.65 1.892,-1.344 1.769,-1.792 1.523,-2.688 1.209,-3.584 0.785,-4.301 l -0.046,0 c 0.123,0.773 0.158,1.579 0.145,2.329 C 0.862,-0.818 0.594,0 0,0"
         inkscape:connector-curvature="0" />
    </g>
    <g
       transform="matrix(1.25,0,0,-1.25,394.57936,563.72906)"
       id="g3397">
      <path
         id="path3399"
         style="fill:#231f20;fill-opacity:1;fill-rule:nonzero;stroke:none"
         d="M 0,0 C 0.173,0.512 0.25,0.717 0.34,0.973 0.34,0.986 0.314,1.024 0.301,1.024 -0.012,0.998 -0.551,0.883 -0.724,0.819 -0.762,0.781 -0.762,0.73 -0.737,0.691 L -0.589,0.614 C -0.474,0.55 -0.448,0.486 -0.564,0.154 L -1.62,-2.938 c -0.089,-0.256 -0.115,-0.371 -0.115,-0.473 0,-0.103 0.077,-0.231 0.334,-0.231 0.646,0 1.023,0.512 1.203,0.858 0.013,0.077 -0.039,0.115 -0.116,0.115 -0.217,-0.256 -0.556,-0.614 -0.698,-0.614 -0.088,0 -0.082,0.089 -0.025,0.256 L 0,0"
         inkscape:connector-curvature="0" />
    </g>
    <g
       transform="matrix(1.25,0,0,-1.25,425.57563,577.26281)"
       id="g3401">
      <path
         id="path3403"
         style="fill:#231f20;fill-opacity:1;fill-rule:nonzero;stroke:none"
         d="M 0,0 C 0,1.104 0.311,2.568 1.168,3.328 1.175,3.392 1.112,3.472 1.048,3.464 -0.089,2.768 -0.608,1.28 -0.608,0 c 0,-1.28 0.519,-2.768 1.656,-3.464 0.064,-0.008 0.127,0.072 0.12,0.136 C 0.311,-2.568 0,-1.104 0,0"
         inkscape:connector-curvature="0" />
    </g>
    <g
       transform="matrix(1.25,0,0,-1.25,428.58312,580.10281)"
       id="g3405">
      <path
         id="path3407"
         style="fill:#231f20;fill-opacity:1;fill-rule:nonzero;stroke:none"
         d="M 0,0 C 0.592,0 1.177,0.432 1.473,0.824 1.488,0.92 1.424,0.984 1.328,0.984 1,0.648 0.712,0.496 0.473,0.496 c -0.193,0 -0.329,0.12 -0.329,0.48 0,0.584 0.257,1.176 0.504,1.568 0.224,0.352 0.433,0.512 0.593,0.512 0.207,0 0.183,-0.264 0.199,-0.44 C 1.448,2.472 1.544,2.392 1.681,2.392 1.864,2.392 2.16,2.52 2.16,2.832 2.168,3.152 1.888,3.376 1.473,3.376 1.048,3.376 0.625,3.184 0.2,2.768 -0.375,2.2 -0.703,1.408 -0.703,0.88 -0.703,0.304 -0.431,0 0,0"
         inkscape:connector-curvature="0" />
    </g>
    <g
       transform="matrix(1.25,0,0,-1.25,432.79561,583.09031)"
       id="g3409">
      <path
         id="path3411"
         style="fill:#231f20;fill-opacity:1;fill-rule:nonzero;stroke:none"
         d="m 0,0 c 0.101,-0.263 0.203,-0.468 0.435,-0.468 0.333,0 0.6,0.429 0.717,0.852 C 1.126,0.46 1.023,0.473 0.984,0.422 0.869,0.23 0.742,0.038 0.665,0.038 0.6,0.038 0.562,0.108 0.472,0.358 l -0.23,0.64 C 0.294,1.062 0.435,1.235 0.466,1.273 0.755,1.612 0.915,1.74 1.01,1.74 c 0.064,0 0.116,-0.076 0.147,-0.166 0.02,-0.077 0.046,-0.128 0.11,-0.128 0.114,0 0.281,0.192 0.281,0.454 0,0.167 -0.09,0.333 -0.281,0.333 C 1.023,2.233 0.806,2.028 0.485,1.651 0.32,1.459 0.191,1.28 0.152,1.254 l -0.216,0.595 c -0.09,0.25 -0.193,0.384 -0.333,0.384 -0.308,0 -0.628,-0.48 -0.731,-0.787 0.013,-0.077 0.077,-0.115 0.155,-0.09 0.128,0.218 0.216,0.333 0.306,0.333 0.051,0 0.096,-0.115 0.155,-0.269 L -0.276,0.768 C -0.373,0.646 -0.525,0.454 -0.634,0.332 -0.834,0.121 -0.955,0.038 -0.999,0.038 c -0.052,0 -0.09,0.051 -0.129,0.154 -0.025,0.076 -0.051,0.14 -0.101,0.14 -0.04,0 -0.072,-0.019 -0.128,-0.064 -0.129,-0.102 -0.232,-0.32 -0.232,-0.454 0,-0.166 0.103,-0.282 0.257,-0.282 0.199,0 0.415,0.122 0.724,0.487 0.083,0.096 0.363,0.435 0.415,0.493 L 0,0"
         inkscape:connector-curvature="0" />
    </g>
    <g
       transform="matrix(1.25,0,0,-1.25,438.43938,579.60282)"
       id="g3413">
      <path
         id="path3415"
         style="fill:#231f20;fill-opacity:1;fill-rule:nonzero;stroke:none"
         d="m 0,0 c 0,0.592 -0.368,0.872 -0.672,0.872 -0.312,0 -0.496,-0.192 -0.496,-0.424 0,-0.136 0.072,-0.24 0.184,-0.296 0.081,-0.04 0.465,-0.128 0.465,-0.48 0,-0.424 -0.409,-0.624 -0.689,-0.712 -0.056,-0.104 -0.023,-0.2 0.089,-0.24 C -0.527,-1.104 0,-0.696 0,0"
         inkscape:connector-curvature="0" />
    </g>
    <g
       transform="matrix(1.25,0,0,-1.25,442.79813,580.10281)"
       id="g3417">
      <path
         id="path3419"
         style="fill:#231f20;fill-opacity:1;fill-rule:nonzero;stroke:none"
         d="M 0,0 C 0.593,0 1.176,0.432 1.473,0.824 1.489,0.92 1.425,0.984 1.328,0.984 1,0.648 0.713,0.496 0.473,0.496 c -0.193,0 -0.328,0.12 -0.328,0.48 0,0.584 0.255,1.176 0.504,1.568 0.224,0.352 0.432,0.512 0.591,0.512 0.208,0 0.185,-0.264 0.2,-0.44 0.008,-0.144 0.105,-0.224 0.24,-0.224 0.185,0 0.48,0.128 0.48,0.44 C 2.168,3.152 1.888,3.376 1.473,3.376 1.048,3.376 0.624,3.184 0.201,2.768 -0.376,2.2 -0.704,1.408 -0.704,0.88 -0.704,0.304 -0.432,0 0,0"
         inkscape:connector-curvature="0" />
    </g>
    <g
       transform="matrix(1.25,0,0,-1.25,446.44061,580.29906)"
       id="g3421">
      <path
         id="path3423"
         style="fill:#231f20;fill-opacity:1;fill-rule:nonzero;stroke:none"
         d="m 0,0 c -0.441,0 -0.73,-0.544 -0.851,-0.934 0.013,-0.064 0.103,-0.103 0.166,-0.064 0.115,0.243 0.257,0.493 0.391,0.493 0.141,0 0.224,-0.365 0.237,-1.101 0.025,-0.634 -0.026,-1.101 -0.108,-1.408 -0.085,-0.333 -0.237,-0.615 -0.392,-0.768 -0.115,-0.115 -0.262,-0.16 -0.358,-0.16 -0.09,0 -0.141,0.064 -0.224,0.173 -0.064,0.083 -0.115,0.134 -0.217,0.134 -0.174,0 -0.321,-0.141 -0.321,-0.358 0.007,-0.192 0.193,-0.34 0.417,-0.34 0.255,0 0.621,0.116 1.074,0.615 0.448,0.493 0.794,1.069 1.089,1.568 0.563,0.973 0.755,1.766 0.755,1.907 0,0.077 -0.026,0.128 -0.083,0.166 -0.064,0.039 -0.161,0.064 -0.236,0.064 -0.09,0 -0.173,-0.038 -0.186,-0.23 C 1.146,-0.371 1.082,-0.768 1.011,-1.024 0.87,-1.536 0.692,-2.048 0.448,-2.457 l -0.026,0 c 0.072,0.441 0.09,0.902 0.085,1.331 C 0.494,-0.467 0.339,0 0,0"
         inkscape:connector-curvature="0" />
    </g>
    <g
       transform="matrix(1.25,0,0,-1.25,452.03061,577.26281)"
       id="g3425">
      <path
         id="path3427"
         style="fill:#231f20;fill-opacity:1;fill-rule:nonzero;stroke:none"
         d="m 0,0 c 0,-1.104 -0.313,-2.568 -1.168,-3.328 -0.008,-0.064 0.056,-0.144 0.12,-0.136 1.136,0.696 1.656,2.184 1.656,3.464 0,1.28 -0.52,2.768 -1.656,3.464 C -1.112,3.472 -1.176,3.392 -1.168,3.328 -0.313,2.568 0,1.104 0,0"
         inkscape:connector-curvature="0" />
    </g>
    <g
       transform="matrix(1.25,0,0,-1.25,410.46937,578.22531)"
       id="g3429">
      <path
         id="path3431"
         style="fill:#231f20;fill-opacity:1;fill-rule:evenodd;stroke:none"
         d="m 0,0 c -0.04,0.08 -0.26,0.18 -0.5,0.18 -0.181,0 -0.32,-0.02 -0.38,-0.1 l -0.3,-0.75 c -0.441,-0.12 -0.961,-0.39 -1.281,-0.63 -0.06,-0.08 0,-0.22 0.12,-0.24 0.341,0.18 0.681,0.34 1,0.4 L -3.07,-6.02 c -0.19,-0.54 -0.261,-0.75 -0.741,-0.82 l -0.28,-0.04 c -0.08,-0.07 -0.059,-0.23 0.04,-0.29 0.821,0.07 1.66,0.1 2.481,0.1 0.119,0.04 0.139,0.21 0.06,0.27 l -0.421,0.04 C -2.29,-6.73 -2.28,-6.55 -2.091,-6 l 0.431,1.27 c 0.039,0.1 0.079,0.16 0.16,0.18 0.12,-0.04 0.24,-0.08 0.34,-0.08 0.459,0 1.199,0.2 1.759,0.73 0.6,0.56 1.04,1.31 1.04,2.04 0,0.87 -0.66,1.29 -1.54,1.29 -0.12,0 -0.22,0 -0.319,-0.02 L 0,0 z m -0.32,-0.99 c 0.06,0.01 0.119,0.02 0.221,0.02 0.339,0 0.678,-0.23 0.678,-0.77 0,-0.55 -0.229,-1.27 -0.64,-1.88 -0.339,-0.5 -0.759,-0.65 -0.909,-0.65 -0.141,0 -0.25,0.12 -0.301,0.2 -0.07,0.11 -0.07,0.23 -0.03,0.35 l 0.981,2.73"
         inkscape:connector-curvature="0" />
    </g>
    <g
       transform="matrix(1.25,0,0,-1.25,414.21561,584.17406)"
       id="g3433">
      <path
         id="path3435"
         style="fill:#231f20;fill-opacity:1;fill-rule:nonzero;stroke:none"
         d="m 0,0 c -0.395,0 -0.716,-0.371 -0.882,-0.659 -0.013,-0.077 0.039,-0.128 0.102,-0.128 0.153,0.179 0.359,0.358 0.499,0.358 0.064,0 0.07,-0.064 0.038,-0.166 -0.178,-0.582 -0.499,-1.472 -0.639,-1.888 -0.058,-0.179 0.166,-0.218 0.294,-0.218 0.103,0 0.186,0.026 0.217,0.103 0.263,0.608 0.532,1.229 0.769,1.613 0.21,0.352 0.359,0.492 0.434,0.492 0.064,0 0.103,-0.064 0.128,-0.192 0.026,-0.115 0.052,-0.185 0.129,-0.185 0.198,0 0.345,0.313 0.345,0.512 C 1.434,-0.179 1.344,0 1.141,0 0.948,0 0.775,-0.153 0.571,-0.409 0.411,-0.608 0.192,-0.973 0,-1.325 l -0.037,0 0.224,0.66 C 0.288,-0.371 0.347,0 0,0"
         inkscape:connector-curvature="0" />
    </g>
    <g
       transform="matrix(1.25,0,0,-1.25,468.45437,520.87031)"
       id="g3437">
      <path
         id="path3439"
         style="fill:#231f20;fill-opacity:1;fill-rule:evenodd;stroke:none"
         d="m 0,0 0.435,0.753 -2.357,1.36 c 0.143,0.149 0.272,0.351 0.402,0.577 0.425,0.736 0.584,1.51 0.39,2.153 -0.128,0.478 -0.452,0.873 -0.978,1.177 -0.509,0.294 -1.047,0.339 -1.509,0.178 -0.511,-0.166 -1,-0.612 -1.43,-1.357 C -5.397,4.235 -5.62,3.729 -5.759,3.325 L 0,0 z m -4.789,3.769 c 0.042,0.149 0.16,0.416 0.35,0.745 0.481,0.831 1.167,1.162 1.934,0.719 C -1.711,4.775 -1.591,3.966 -2.116,3.057 -2.26,2.806 -2.397,2.608 -2.536,2.468 l -2.253,1.301"
         inkscape:connector-curvature="0" />
    </g>
    <g
       transform="matrix(1.25,0,0,-1.25,471.65937,515.31657)"
       id="g3441">
      <path
         id="path3443"
         style="fill:#231f20;fill-opacity:1;fill-rule:nonzero;stroke:none"
         d="m 0,0 0.44,0.762 -2.242,1.295 c -0.121,0.07 -0.239,0.149 -0.34,0.231 -0.504,0.429 -0.69,1.045 -0.38,1.582 0.06,0.104 0.113,0.177 0.166,0.25 L -3.074,4.535 C -3.123,4.47 -3.167,4.415 -3.211,4.337 -3.507,3.826 -3.422,3.153 -2.969,2.638 L -2.983,2.611 -3.827,3.052 -4.211,2.385 C -3.806,2.186 -3.378,1.95 -2.883,1.665 L 0,0"
         inkscape:connector-curvature="0" />
    </g>
    <g
       transform="matrix(1.25,0,0,-1.25,474.27812,510.78156)"
       id="g3445">
      <path
         id="path3447"
         style="fill:#231f20;fill-opacity:1;fill-rule:evenodd;stroke:none"
         d="M 0,0 -4.192,2.42 -4.632,1.658 -0.44,-0.762 0,0 z M -5.117,2.436 C -4.948,2.73 -5.06,3.037 -5.31,3.182 -5.578,3.337 -5.896,3.266 -6.056,2.989 -6.221,2.703 -6.124,2.393 -5.856,2.238 -5.604,2.093 -5.283,2.15 -5.123,2.427 l 0.006,0.009"
         inkscape:connector-curvature="0" />
    </g>
    <g
       transform="matrix(1.25,0,0,-1.25,475.19061,509.20031)"
       id="g3449">
      <path
         id="path3451"
         style="fill:#231f20;fill-opacity:1;fill-rule:nonzero;stroke:none"
         d="m 0,0 0.44,0.762 -2.528,1.46 c -0.121,0.07 -0.25,0.167 -0.326,0.257 -0.345,0.383 -0.475,0.978 -0.19,1.472 0.416,0.718 1.133,0.64 1.807,0.25 L 1.62,2.806 2.06,3.568 -0.442,5.013 C -1.881,5.843 -2.747,5.142 -3.082,4.562 -3.481,3.869 -3.372,3.159 -3.103,2.726 L -3.113,2.709 -3.821,3.061 -4.212,2.385 C -3.85,2.211 -3.498,2.02 -3.057,1.765 L 0,0"
         inkscape:connector-curvature="0" />
    </g>
    <g
       transform="matrix(1.25,0,0,-1.25,479.81187,499.09531)"
       id="g3453">
      <path
         id="path3455"
         style="fill:#231f20;fill-opacity:1;fill-rule:nonzero;stroke:none"
         d="m 0,0 c -0.029,-0.271 -0.091,-0.617 -0.341,-1.05 -0.479,-0.832 -1.436,-1.11 -2.406,-0.55 -0.866,0.5 -1.286,1.434 -0.731,2.396 0.241,0.415 0.509,0.641 0.71,0.768 L -3.249,2.072 C -3.482,1.929 -3.823,1.596 -4.083,1.146 -4.874,-0.223 -4.44,-1.651 -3.15,-2.396 c 1.283,-0.74 2.615,-0.412 3.344,0.852 0.325,0.563 0.434,1.09 0.453,1.344 L 0,0"
         inkscape:connector-curvature="0" />
    </g>
    <g
       transform="matrix(1.25,0,0,-1.25,482.00936,497.39031)"
       id="g3457">
      <path
         id="path3459"
         style="fill:#231f20;fill-opacity:1;fill-rule:evenodd;stroke:none"
         d="M 0,0 -4.192,2.42 -4.632,1.658 -0.439,-0.762 0,0 z M -5.117,2.435 C -4.948,2.73 -5.06,3.037 -5.31,3.182 -5.58,3.336 -5.896,3.266 -6.056,2.989 -6.222,2.703 -6.124,2.392 -5.856,2.238 -5.604,2.093 -5.284,2.149 -5.123,2.427 l 0.006,0.008"
         inkscape:connector-curvature="0" />
    </g>
    <g
       transform="matrix(1.25,0,0,-1.25,485.06436,497.04781)"
       id="g3461">
      <path
         id="path3463"
         style="fill:#231f20;fill-opacity:1;fill-rule:evenodd;stroke:none"
         d="m 0,0 0.44,0.762 -2.276,1.315 0.009,0.018 c 0.56,0.011 1.078,0.347 1.404,0.91 C 0.142,3.984 -0.069,5.34 -1.576,6.21 -2.849,6.945 -4.146,6.678 -4.736,5.656 -5.125,4.981 -5.121,4.308 -4.776,3.705 L -4.787,3.688 -5.53,4.06 -5.926,3.376 C -5.513,3.172 -5.074,2.93 -4.538,2.62 L 0,0 z M -3.707,3.157 C -3.802,3.212 -3.9,3.303 -3.986,3.376 -4.481,3.858 -4.56,4.562 -4.259,5.081 c 0.465,0.806 1.433,0.824 2.273,0.338 0.961,-0.554 1.349,-1.402 0.884,-2.207 -0.31,-0.537 -0.944,-0.795 -1.547,-0.62 -0.109,0.029 -0.228,0.085 -0.332,0.145 l -0.726,0.42"
         inkscape:connector-curvature="0" />
    </g>
    <g
       transform="matrix(1.25,0,0,-1.25,485.39437,484.10281)"
       id="g3465">
      <path
         id="path3467"
         style="fill:#231f20;fill-opacity:1;fill-rule:evenodd;stroke:none"
         d="M 0,0 C -0.841,0.485 -1.894,0.678 -2.639,-0.612 -2.945,-1.14 -3.092,-1.736 -3.077,-2.208 l 0.611,-0.122 c -0.029,0.41 0.095,0.882 0.324,1.28 0.486,0.863 1.173,0.593 1.521,0.393 l 0.086,-0.05 c -0.944,-1.614 -0.91,-2.835 0.103,-3.42 0.607,-0.35 1.454,-0.262 1.944,0.586 0.345,0.598 0.315,1.227 0.117,1.642 l 0.014,0.026 0.568,-0.236 0.396,0.685 c -0.31,0.121 -0.676,0.309 -1.039,0.519 L 0,0 z m 0.731,-1.415 c 0.078,-0.045 0.158,-0.104 0.222,-0.174 0.284,-0.327 0.426,-0.882 0.107,-1.436 -0.22,-0.381 -0.635,-0.58 -1.138,-0.29 -0.815,0.47 -0.417,1.499 0.082,2.32 l 0.727,-0.42"
         inkscape:connector-curvature="0" />
    </g>
    <g
       transform="matrix(1.25,0,0,-1.25,489.48937,484.43282)"
       id="g3469">
      <path
         id="path3471"
         style="fill:#231f20;fill-opacity:1;fill-rule:nonzero;stroke:none"
         d="M 0,0 0.44,0.762 -5.708,4.312 -6.147,3.55 0,0"
         inkscape:connector-curvature="0" />
    </g>
    <g
       transform="matrix(1.25,0,0,-1.25,492.30811,479.55031)"
       id="g3473">
      <path
         id="path3475"
         style="fill:#231f20;fill-opacity:1;fill-rule:evenodd;stroke:none"
         d="m 0,0 0.435,0.753 -2.527,1.46 0.409,0.71 c 0.422,0.669 0.91,0.815 1.815,0.523 C 0.95,3.182 1.517,3.027 1.745,3.022 L 2.196,3.801 C 1.905,3.819 1.262,4.005 0.339,4.285 -0.353,4.488 -0.924,4.459 -1.333,4.107 l -0.026,0.016 c 0.142,0.726 -0.085,1.514 -0.846,1.954 -0.46,0.265 -0.959,0.322 -1.374,0.181 -0.539,-0.173 -1,-0.612 -1.466,-1.417 C -5.339,4.33 -5.608,3.746 -5.75,3.32 L 0,0 z m -4.786,3.768 c 0.04,0.15 0.151,0.421 0.361,0.785 0.459,0.797 1.104,1.152 1.858,0.717 0.665,-0.385 0.812,-1.151 0.347,-1.956 L -2.665,2.543 -4.786,3.768"
         inkscape:connector-curvature="0" />
    </g>
    <g
       transform="matrix(1.25,0,0,-1.25,494.64437,468.08156)"
       id="g3477">
      <path
         id="path3479"
         style="fill:#231f20;fill-opacity:1;fill-rule:evenodd;stroke:none"
         d="m 0,0 c -0.84,0.485 -1.895,0.678 -2.639,-0.612 -0.305,-0.529 -0.454,-1.125 -0.438,-1.596 l 0.612,-0.122 c -0.03,0.41 0.092,0.882 0.323,1.28 0.487,0.863 1.173,0.593 1.519,0.393 l 0.088,-0.05 c -0.944,-1.615 -0.909,-2.835 0.104,-3.42 0.605,-0.35 1.453,-0.262 1.944,0.586 0.345,0.598 0.315,1.227 0.116,1.642 l 0.014,0.026 0.568,-0.236 0.396,0.685 C 2.295,-1.303 1.931,-1.115 1.568,-0.905 L 0,0 z M 0.73,-1.415 C 0.808,-1.46 0.889,-1.519 0.953,-1.59 1.237,-1.916 1.38,-2.471 1.06,-3.025 c -0.22,-0.381 -0.637,-0.58 -1.138,-0.29 -0.814,0.47 -0.417,1.499 0.08,2.32 l 0.728,-0.42"
         inkscape:connector-curvature="0" />
    </g>
    <g
       transform="matrix(1.25,0,0,-1.25,493.05062,466.16656)"
       id="g3481">
      <path
         id="path3483"
         style="fill:#231f20;fill-opacity:1;fill-rule:nonzero;stroke:none"
         d="M 0,0 4.753,-0.688 C 4.874,-0.7 4.943,-0.717 4.987,-0.742 5.03,-0.767 5.076,-0.829 5.133,-0.908 5.418,-1.315 5.568,-1.736 5.612,-2.039 5.673,-2.374 5.65,-2.695 5.599,-2.921 l 0.744,-0.174 c 0.074,0.21 0.155,0.649 0.054,1.215 -0.159,0.785 -0.672,1.577 -1.794,2.953 L 2.275,3.941 1.81,3.135 3.789,0.884 C 4.034,0.605 4.303,0.334 4.509,0.111 L 4.499,0.093 C 4.208,0.169 3.819,0.255 3.482,0.311 L 0.481,0.832 0,0"
         inkscape:connector-curvature="0" />
    </g>
    <g
       transform="matrix(1.25,0,0,-1.25,379.41687,516.54656)"
       id="g3485">
      <path
         id="path3487"
         style="fill:#231f20;fill-opacity:1;fill-rule:nonzero;stroke:none"
         d="m 0,0 c -0.526,0 -0.717,0.045 -0.717,0.157 0,0.134 0.168,0.336 0.47,0.649 L 3.191,4.457 C 3.987,5.309 5.208,6.574 5.498,6.776 5.532,6.888 5.51,6.966 5.42,6.989 5.274,6.978 4.95,6.955 4.3,6.955 l -3.181,0 C 0.28,6.955 0.18,7 0.156,7.269 0.089,7.291 -0.023,7.291 -0.068,7.246 -0.269,6.686 -0.549,6.049 -0.84,5.456 -0.818,5.322 -0.616,5.255 -0.515,5.322 -0.112,5.892 0.18,6.183 0.481,6.339 0.817,6.496 1.143,6.518 1.613,6.518 l 1.59,0 c 0.347,0 0.392,-0.056 0.123,-0.346 L -1.366,1.207 c -0.459,-0.481 -1.243,-1.264 -1.502,-1.454 -0.021,-0.089 0,-0.19 0.091,-0.212 0.189,0.011 0.547,0.022 1.12,0.022 l 2.754,0 c 0.392,0 0.774,0 1.154,-0.011 0.38,0.011 0.762,0 1.142,-0.011 0.246,0.279 0.683,1.174 0.84,1.711 C 4.21,1.363 3.987,1.408 3.919,1.341 3.595,0.84 3.191,0.392 2.867,0.224 2.509,0.045 1.847,0.022 1.186,0 L 0,0"
         inkscape:connector-curvature="0" />
    </g>
  </g>
</svg>
