<?xml version="1.0" encoding="UTF-8" standalone="no"?>
<!-- Created with Inkscape (http://www.inkscape.org/) -->

<svg
   xmlns:ns0="http://www.iki.fi/pav/software/textext/"
   xmlns:dc="http://purl.org/dc/elements/1.1/"
   xmlns:cc="http://creativecommons.org/ns#"
   xmlns:rdf="http://www.w3.org/1999/02/22-rdf-syntax-ns#"
   xmlns:svg="http://www.w3.org/2000/svg"
   xmlns="http://www.w3.org/2000/svg"
   xmlns:sodipodi="http://sodipodi.sourceforge.net/DTD/sodipodi-0.dtd"
   xmlns:inkscape="http://www.inkscape.org/namespaces/inkscape"
   width="574.3125"
   height="480.55072"
   id="svg3295"
   version="1.1"
   inkscape:version="0.48.4 r9939"
   sodipodi:docname="epipolar_plane.svg">
  <sodipodi:namedview
     id="base"
     pagecolor="#ffffff"
     bordercolor="#666666"
     borderopacity="1.0"
     inkscape:pageopacity="0.0"
     inkscape:pageshadow="2"
     inkscape:zoom="0.7"
     inkscape:cx="364.03456"
     inkscape:cy="227.62745"
     inkscape:document-units="px"
     inkscape:current-layer="layer1"
     showgrid="false"
     inkscape:window-width="1366"
     inkscape:window-height="744"
     inkscape:window-x="0"
     inkscape:window-y="24"
     inkscape:window-maximized="1"
     fit-margin-top="0"
     fit-margin-left="0"
     fit-margin-right="0"
     fit-margin-bottom="0" />
  <defs
     id="defs3297">
    <clipPath
       clipPathUnits="userSpaceOnUse"
       id="clipPath110">
      <path
         inkscape:connector-curvature="0"
         d="m 0,393.96 479.04,0 L 479.04,0 0,0 0,393.96 z"
         id="path112" />
    </clipPath>
    <clipPath
       clipPathUnits="userSpaceOnUse"
       id="clipPath84">
      <path
         inkscape:connector-curvature="0"
         d="m 0,393.96 479.04,0 L 479.04,0 0,0 0,393.96 z m 230.82,-62.58 11.34,-13.5 -15.78,7.86 16.68,-13.2 4.5,5.7"
         id="path86" />
    </clipPath>
    <clipPath
       clipPathUnits="userSpaceOnUse"
       id="clipPath32">
      <path
         inkscape:connector-curvature="0"
         d="m 0,393.96 479.04,0 L 479.04,0 0,0 0,393.96 z"
         id="path34" />
    </clipPath>
    <clipPath
       clipPathUnits="userSpaceOnUse"
       id="clipPath16">
      <path
         inkscape:connector-curvature="0"
         d="m 0,393.96 479.04,0 L 479.04,0 0,0 0,393.96 z"
         id="path18" />
    </clipPath>
  </defs>
  <metadata
     id="metadata3300">
    <rdf:RDF>
      <cc:Work
         rdf:about="">
        <dc:format>image/svg+xml</dc:format>
        <dc:type
           rdf:resource="http://purl.org/dc/dcmitype/StillImage" />
        <dc:title></dc:title>
      </cc:Work>
    </rdf:RDF>
  </metadata>
  <g
     inkscape:label="Layer 1"
     inkscape:groupmode="layer"
     id="layer1"
     transform="translate(-103.34236,-338.10174)">
    <g
       id="g40"
       transform="matrix(1.25,0,0,-1.25,109.24861,700.2462)">
      <path
         inkscape:connector-curvature="0"
         d="M 0,0 288,270 450,0"
         style="fill:#bfbfbf;fill-opacity:1;fill-rule:evenodd;stroke:none"
         id="path42" />
    </g>
    <g
       id="g44"
       transform="matrix(1.25,0,0,-1.25,671.74861,435.8712)">
      <path
         inkscape:connector-curvature="0"
         d="m 0,0 0,-162 -126,-144 0,180 L 0,0 z"
         style="fill:#ffffff;fill-opacity:1;fill-rule:evenodd;stroke:#000000;stroke-width:0.44999999;stroke-linecap:butt;stroke-linejoin:miter;stroke-miterlimit:10;stroke-opacity:1;stroke-dasharray:none"
         id="path46" />
    </g>
    <g
       id="g48"
       transform="matrix(1.25,0,0,-1.25,131.74861,430.2462)">
      <path
         inkscape:connector-curvature="0"
         d="m 0,0 0,-162 126,-144 0,180 L 0,0 z"
         style="fill:#ffffff;fill-opacity:1;fill-rule:evenodd;stroke:#000000;stroke-width:0.44999999;stroke-linecap:butt;stroke-linejoin:miter;stroke-miterlimit:10;stroke-opacity:1;stroke-dasharray:none"
         id="path50" />
    </g>
    <g
       id="g52"
       transform="matrix(1.25,0,0,-1.25,559.24861,700.2462)">
      <path
         inkscape:connector-curvature="0"
         d="M 0,0 49.5,67.5 90,0 0,0 z"
         style="fill:#bfbfbf;fill-opacity:1;fill-rule:evenodd;stroke:#000000;stroke-width:0.44999999;stroke-linecap:butt;stroke-linejoin:miter;stroke-miterlimit:10;stroke-opacity:1;stroke-dasharray:none"
         id="path54" />
    </g>
    <g
       id="g56"
       transform="matrix(1.25,0,0,-1.25,109.24861,700.2462)">
      <path
         inkscape:connector-curvature="0"
         d="M 0,0 72,67.5 112.5,0 0,0 z"
         style="fill:#bfbfbf;fill-opacity:1;fill-rule:evenodd;stroke:#000000;stroke-width:0.44999999;stroke-linecap:butt;stroke-linejoin:miter;stroke-miterlimit:10;stroke-opacity:1;stroke-dasharray:none"
         id="path58" />
    </g>
    <g
       id="g60"
       transform="matrix(1.25,0,0,-1.25,203.67361,615.8712)">
      <path
         inkscape:connector-curvature="0"
         d="m 0,0 c 0,-1.987 -1.613,-3.6 -3.6,-3.6 -1.987,0 -3.6,1.613 -3.6,3.6 0,1.987 1.613,3.6 3.6,3.6 C -1.613,3.6 0,1.987 0,0 z"
         style="fill:#000000;fill-opacity:1;fill-rule:evenodd;stroke:#000000;stroke-width:0.44999999;stroke-linecap:butt;stroke-linejoin:miter;stroke-miterlimit:10;stroke-opacity:1;stroke-dasharray:none"
         id="path62" />
    </g>
    <g
       id="g64"
       transform="matrix(1.25,0,0,-1.25,625.62361,615.8712)">
      <path
         inkscape:connector-curvature="0"
         d="m 0,0 c 0,-1.987 -1.613,-3.6 -3.6,-3.6 -1.987,0 -3.6,1.613 -3.6,3.6 0,1.987 1.613,3.6 3.6,3.6 C -1.613,3.6 0,1.987 0,0 z"
         style="fill:#000000;fill-opacity:1;fill-rule:evenodd;stroke:#000000;stroke-width:0.44999999;stroke-linecap:butt;stroke-linejoin:miter;stroke-miterlimit:10;stroke-opacity:1;stroke-dasharray:none"
         id="path66" />
    </g>
    <g
       id="g68"
       transform="matrix(1.25,0,0,-1.25,474.87361,362.7462)">
      <path
         inkscape:connector-curvature="0"
         d="M 0,0 C 0,-2.484 -2.016,-4.5 -4.5,-4.5 -6.984,-4.5 -9,-2.484 -9,0 -9,2.484 -6.984,4.5 -4.5,4.5 -2.016,4.5 0,2.484 0,0 z"
         style="fill:#000000;fill-opacity:1;fill-rule:evenodd;stroke:#000000;stroke-width:0.44999999;stroke-linecap:butt;stroke-linejoin:miter;stroke-miterlimit:10;stroke-opacity:1;stroke-dasharray:none"
         id="path70" />
    </g>
    <g
       id="g72"
       transform="matrix(1.25,0,0,-1.25,677.37361,700.2462)">
      <path
         inkscape:connector-curvature="0"
         d="M 0,0 C 0,-2.484 -2.016,-4.5 -4.5,-4.5 -6.984,-4.5 -9,-2.484 -9,0 -9,2.484 -6.984,4.5 -4.5,4.5 -2.016,4.5 0,2.484 0,0 z"
         style="fill:#000000;fill-opacity:1;fill-rule:evenodd;stroke:#000000;stroke-width:0.44999999;stroke-linecap:butt;stroke-linejoin:miter;stroke-miterlimit:10;stroke-opacity:1;stroke-dasharray:none"
         id="path74" />
    </g>
    <g
       id="g76"
       transform="matrix(1.25,0,0,-1.25,114.87361,700.2462)">
      <path
         inkscape:connector-curvature="0"
         d="M 0,0 C 0,-2.484 -2.016,-4.5 -4.5,-4.5 -6.984,-4.5 -9,-2.484 -9,0 -9,2.484 -6.984,4.5 -4.5,4.5 -2.016,4.5 0,2.484 0,0 z"
         style="fill:#000000;fill-opacity:1;fill-rule:evenodd;stroke:#000000;stroke-width:0.44999999;stroke-linecap:butt;stroke-linejoin:miter;stroke-miterlimit:10;stroke-opacity:1;stroke-dasharray:none"
         id="path78" />
    </g>
    <g
       style="font-style:normal;font-variant:normal;font-weight:normal;font-stretch:normal;letter-spacing:normal;word-spacing:normal;text-anchor:start;fill:none;stroke:#000000;stroke-linecap:butt;stroke-linejoin:miter;stroke-miterlimit:10.43299961;stroke-opacity:1;stroke-dasharray:none;stroke-dashoffset:0"
       id="content"
       transform="matrix(2.5284481,0,0,-2.5284481,60.005507,2393.6707)"
       xml:space="preserve"
       stroke-miterlimit="10.433"
       font-style="normal"
       font-variant="normal"
       font-weight="normal"
       font-stretch="normal"
       font-size-adjust="none"
       letter-spacing="normal"
       word-spacing="normal"
       ns0:text="$\\vec{u}^\\prime$"
       ns0:preamble="/home/taihu/Documents/tesis/inkscape_preamble.tex"><path
         style="fill:#000000;stroke-width:0"
         inkscape:connector-curvature="0"
         d="m 227.79,707.84 v -0.77 l 1.76,0.05 v 0.47 c -0.62,0 -0.69,0 -0.69,0.39 v 3.61 l -1.82,-0.07 v -0.47 c 0.62,0 0.69,0 0.69,-0.39 v -1.9 c 0,-0.81 -0.51,-1.34 -1.23,-1.34 -0.77,0 -0.8,0.25 -0.8,0.79 v 3.38 l -1.82,-0.07 v -0.47 c 0.62,0 0.69,0 0.69,-0.39 v -2.31 c 0,-1.07 0.8,-1.28 1.79,-1.28 0.26,0 0.97,0 1.43,0.77 z"
         id="path3475" /><path
         style="fill:#000000;stroke-width:0"
         inkscape:connector-curvature="0"
         d="m 231.82,714.02 0,0.01 0.01,0.01 0,0.01 0.01,0.01 0,0.01 0,0.01 0.01,0.01 0,0.01 0,0.01 0.01,0.01 0,0 0,0.01 0,0.01 0.01,0.01 0,0 0,0.01 0,0.01 0,0 0,0.01 0,0 0,0.01 0.01,0.01 0,0 0,0.01 0,0.01 0,0.01 0,0.01 0,0 c 0,0.22 -0.2,0.39 -0.41,0.39 -0.27,0 -0.35,-0.22 -0.38,-0.33 l -0.92,-3.01 c -0.01,-0.01 -0.04,-0.11 -0.04,-0.11 0,-0.09 0.22,-0.15 0.27,-0.15 0.05,0 0.06,0.01 0.11,0.11 z"
         id="path3477" /></g>    <g
       style="font-style:normal;font-variant:normal;font-weight:normal;font-stretch:normal;letter-spacing:normal;word-spacing:normal;text-anchor:start;fill:none;stroke:#000000;stroke-linecap:butt;stroke-linejoin:miter;stroke-miterlimit:10.43299961;stroke-opacity:1;stroke-dasharray:none;stroke-dashoffset:0"
       ns0:preamble="/home/taihu/Documents/tesis/inkscape_preamble.tex"
       ns0:text="$\\vec{u}$"
       word-spacing="normal"
       letter-spacing="normal"
       font-size-adjust="none"
       font-stretch="normal"
       font-weight="normal"
       font-variant="normal"
       font-style="normal"
       stroke-miterlimit="10.433"
       xml:space="preserve"
       transform="matrix(2.5284481,0,0,-2.5284481,-369.03989,2392.5666)"
       id="g3573"><path
         id="path3575"
         d="m 227.79,707.84 v -0.77 l 1.76,0.05 v 0.47 c -0.62,0 -0.69,0 -0.69,0.39 v 3.61 l -1.82,-0.07 v -0.47 c 0.62,0 0.69,0 0.69,-0.39 v -1.9 c 0,-0.81 -0.51,-1.34 -1.23,-1.34 -0.77,0 -0.8,0.25 -0.8,0.79 v 3.38 l -1.82,-0.07 v -0.47 c 0.62,0 0.69,0 0.69,-0.39 v -2.31 c 0,-1.07 0.8,-1.28 1.79,-1.28 0.26,0 0.97,0 1.43,0.77 z"
         inkscape:connector-curvature="0"
         style="fill:#000000;stroke-width:0" /></g>    <g
       id="g3675"
       transform="matrix(2.5284481,0,0,-2.5284481,-116.18275,2226.8524)"
       xml:space="preserve"
       stroke-miterlimit="10.433"
       font-style="normal"
       font-variant="normal"
       font-weight="normal"
       font-stretch="normal"
       font-size-adjust="none"
       letter-spacing="normal"
       word-spacing="normal"
       ns0:text="$\\vec{\\pi}$"
       ns0:preamble="/home/taihu/Documents/tesis/inkscape_preamble.tex"
       style="font-style:normal;font-variant:normal;font-weight:normal;font-stretch:normal;letter-spacing:normal;word-spacing:normal;text-anchor:start;fill:none;stroke:#000000;stroke-linecap:butt;stroke-linejoin:miter;stroke-miterlimit:10.43299961;stroke-opacity:1;stroke-dasharray:none;stroke-dashoffset:0"><path
         style="fill:#000000;stroke-width:0"
         inkscape:connector-curvature="0"
         d="m 226.54,710.58 h 1.11 c -0.22,-0.92 -0.33,-1.53 -0.33,-2.11 0,-0.68 0.18,-1.43 0.66,-1.43 0.33,0 0.68,0.32 0.68,0.64 0,0.12 -0.03,0.18 -0.11,0.33 -0.46,0.8 -0.46,1.57 -0.46,1.84 0,0.24 0,0.33 0.06,0.73 h 1.23 c 0.19,0 0.35,0 0.5,0.15 0.07,0.07 0.2,0.19 0.2,0.42 0,0.39 -0.35,0.39 -0.53,0.39 h -3.91 c -0.21,0 -0.64,0 -1.16,-0.48 -0.35,-0.32 -0.74,-0.83 -0.74,-0.92 0,-0.14 0.12,-0.14 0.23,-0.14 0.15,0 0.16,0.01 0.25,0.11 0.38,0.47 1.03,0.47 1.22,0.47 h 0.6 c -0.25,-0.78 -0.65,-1.6 -1.19,-2.6 -0.15,-0.3 -0.18,-0.35 -0.18,-0.49 0,-0.27 0.21,-0.44 0.47,-0.44 0.21,0 0.36,0.11 0.43,0.16 0.15,0.15 0.16,0.19 0.21,0.4 z"
         id="path3677" /></g>    <g
       style="font-style:normal;font-variant:normal;font-weight:normal;font-stretch:normal;letter-spacing:normal;word-spacing:normal;text-anchor:start;fill:none;stroke:#000000;stroke-linecap:butt;stroke-linejoin:miter;stroke-miterlimit:10.43299961;stroke-opacity:1;stroke-dasharray:none;stroke-dashoffset:0"
       ns0:preamble="/home/taihu/Documents/tesis/inkscape_preamble.tex"
       ns0:text="$\\vec{x}$"
       word-spacing="normal"
       letter-spacing="normal"
       font-size-adjust="none"
       font-stretch="normal"
       font-weight="normal"
       font-variant="normal"
       font-style="normal"
       stroke-miterlimit="10.433"
       xml:space="preserve"
       transform="matrix(2.5284481,0,0,-2.5284481,-102.30159,2137.1937)"
       id="g3778"><path
         id="path3780"
         d="m 226.87,709.57 1.17,1.29 c 0.13,0.14 0.19,0.21 1.01,0.21 v 0.47 c -0.34,-0.02 -0.86,-0.03 -0.91,-0.03 -0.25,0 -0.75,0.02 -1.03,0.03 v -0.47 c 0.14,0 0.26,-0.02 0.38,-0.09 -0.04,-0.06 -0.04,-0.08 -0.08,-0.12 l -0.83,-0.93 -0.98,1.14 h 0.4 v 0.47 c -0.26,-0.01 -0.89,-0.03 -1.21,-0.03 -0.31,0 -0.76,0.02 -1.09,0.03 v -0.47 h 0.71 l 1.55,-1.83 -1.3,-1.46 c -0.17,-0.19 -0.53,-0.19 -1.01,-0.19 v -0.47 c 0.35,0.03 0.87,0.04 0.92,0.04 0.25,0 0.82,-0.02 1.02,-0.04 v 0.47 c -0.18,0 -0.37,0.05 -0.37,0.11 0,0.01 0,0.02 0.07,0.1 l 0.97,1.08 1.09,-1.29 h -0.39 v -0.47 c 0.26,0.02 0.87,0.04 1.2,0.04 0.32,0 0.76,-0.02 1.09,-0.04 v 0.47 h -0.7 z"
         inkscape:connector-curvature="0"
         style="fill:#000000;stroke-width:0" /></g>  </g>
</svg>
