<?xml version="1.0" encoding="UTF-8" standalone="no"?>
<!-- Created with Inkscape (http://www.inkscape.org/) -->

<svg
   xmlns:ns0="http://www.iki.fi/pav/software/textext/"
   xmlns:dc="http://purl.org/dc/elements/1.1/"
   xmlns:cc="http://creativecommons.org/ns#"
   xmlns:rdf="http://www.w3.org/1999/02/22-rdf-syntax-ns#"
   xmlns:svg="http://www.w3.org/2000/svg"
   xmlns="http://www.w3.org/2000/svg"
   xmlns:sodipodi="http://sodipodi.sourceforge.net/DTD/sodipodi-0.dtd"
   xmlns:inkscape="http://www.inkscape.org/namespaces/inkscape"
   width="574.3125"
   height="529.59375"
   id="svg3162"
   version="1.1"
   inkscape:version="0.48.4 r9939"
   sodipodi:docname="epipolar_line.svg">
  <sodipodi:namedview
     id="base"
     pagecolor="#ffffff"
     bordercolor="#666666"
     borderopacity="1.0"
     inkscape:pageopacity="0.0"
     inkscape:pageshadow="2"
     inkscape:zoom="0.49497475"
     inkscape:cx="100.46456"
     inkscape:cy="182.50273"
     inkscape:document-units="px"
     inkscape:current-layer="layer1"
     showgrid="false"
     inkscape:window-width="1366"
     inkscape:window-height="744"
     inkscape:window-x="0"
     inkscape:window-y="24"
     inkscape:window-maximized="1"
     fit-margin-top="0"
     fit-margin-left="0"
     fit-margin-right="0"
     fit-margin-bottom="0" />
  <defs
     id="defs3164">
    <clipPath
       id="clipPath82"
       clipPathUnits="userSpaceOnUse">
      <path
         id="path84"
         d="m 0.060013,426.06 500.999997,0 0,-426 -500.999997,0 0,426 z M 358.82,52.86 l -16.02,7.56 17.7,-0.54 -20.7,4.92 -1.68,-6.96"
         inkscape:connector-curvature="0" />
    </clipPath>
  </defs>
  <metadata
     id="metadata3167">
    <rdf:RDF>
      <cc:Work
         rdf:about="">
        <dc:format>image/svg+xml</dc:format>
        <dc:type
           rdf:resource="http://purl.org/dc/dcmitype/StillImage" />
        <dc:title />
      </cc:Work>
    </rdf:RDF>
  </metadata>
  <g
     id="layer1"
     inkscape:groupmode="layer"
     inkscape:label="Layer 1"
     transform="translate(-74.955616,-267.56531)">
    <g
       transform="matrix(1.25,0,0,-1.25,86.486866,678.75281)"
       id="g12">
      <path
         id="path14"
         style="fill:#000000;fill-opacity:1;fill-rule:evenodd;stroke:#000000;stroke-width:0.44999999;stroke-linecap:butt;stroke-linejoin:miter;stroke-miterlimit:10;stroke-opacity:1;stroke-dasharray:none"
         d="M 0,0 C 0,-2.484 -2.016,-4.5 -4.5,-4.5 -6.984,-4.5 -9,-2.484 -9,0 -9,2.484 -6.984,4.5 -4.5,4.5 -2.016,4.5 0,2.484 0,0 z"
         inkscape:connector-curvature="0" />
    </g>
    <g
       transform="matrix(1.25,0,0,-1.25,175.43687,594.37781)"
       id="g16">
      <path
         id="path18"
         style="fill:#000000;fill-opacity:1;fill-rule:evenodd;stroke:#000000;stroke-width:0.44999999;stroke-linecap:butt;stroke-linejoin:miter;stroke-miterlimit:10;stroke-opacity:1;stroke-dasharray:none"
         d="m 0,0 c 0,-1.987 -1.613,-3.6 -3.6,-3.6 -1.987,0 -3.6,1.613 -3.6,3.6 0,1.987 1.613,3.6 3.6,3.6 C -1.613,3.6 0,1.987 0,0 z"
         inkscape:connector-curvature="0" />
    </g>
    <g
       transform="matrix(1.25,0,0,-1.25,225.98687,678.75281)"
       id="g20">
      <path
         id="path22"
         style="fill:#000000;fill-opacity:1;fill-rule:evenodd;stroke:#000000;stroke-width:0.44999999;stroke-linecap:butt;stroke-linejoin:miter;stroke-miterlimit:10;stroke-opacity:1;stroke-dasharray:none"
         d="m 0,0 c 0,-1.987 -1.613,-3.6 -3.6,-3.6 -1.987,0 -3.6,1.613 -3.6,3.6 0,1.987 1.613,3.6 3.6,3.6 C -1.613,3.6 0,1.987 0,0 z"
         inkscape:connector-curvature="0" />
    </g>
    <g
       transform="matrix(1.25,0,0,-1.25,648.98687,678.75281)"
       id="g24">
      <path
         id="path26"
         style="fill:#000000;fill-opacity:1;fill-rule:evenodd;stroke:#000000;stroke-width:0.44999999;stroke-linecap:butt;stroke-linejoin:miter;stroke-miterlimit:10;stroke-opacity:1;stroke-dasharray:none"
         d="M 0,0 C 0,-2.484 -2.016,-4.5 -4.5,-4.5 -6.984,-4.5 -9,-2.484 -9,0 -9,2.484 -6.984,4.5 -4.5,4.5 -2.016,4.5 0,2.484 0,0 z"
         inkscape:connector-curvature="0" />
    </g>
    <g
       transform="matrix(1.25,0,0,-1.25,446.48687,341.32781)"
       id="g28">
      <path
         id="path30"
         style="fill:#000000;fill-opacity:1;fill-rule:evenodd;stroke:#000000;stroke-width:0.44999999;stroke-linecap:butt;stroke-linejoin:miter;stroke-miterlimit:10;stroke-opacity:1;stroke-dasharray:none"
         d="M 0,0 C 0,-2.484 -2.016,-4.5 -4.5,-4.5 -6.984,-4.5 -9,-2.484 -9,0 -9,2.484 -6.984,4.5 -4.5,4.5 -2.016,4.5 0,2.484 0,0 z"
         inkscape:connector-curvature="0" />
    </g>
    <g
       transform="matrix(1.25,0,0,-1.25,535.43687,678.75281)"
       id="g32">
      <path
         id="path34"
         style="fill:#000000;fill-opacity:1;fill-rule:evenodd;stroke:#000000;stroke-width:0.44999999;stroke-linecap:butt;stroke-linejoin:miter;stroke-miterlimit:10;stroke-opacity:1;stroke-dasharray:none"
         d="m 0,0 c 0,-1.987 -1.613,-3.6 -3.6,-3.6 -1.987,0 -3.6,1.613 -3.6,3.6 0,1.987 1.613,3.6 3.6,3.6 C -1.613,3.6 0,1.987 0,0 z"
         inkscape:connector-curvature="0" />
    </g>
    <g
       transform="matrix(1.25,0,0,-1.25,401.48687,383.77781)"
       id="g36">
      <path
         id="path38"
         style="fill:#000000;fill-opacity:1;fill-rule:evenodd;stroke:#000000;stroke-width:0.44999999;stroke-linecap:butt;stroke-linejoin:miter;stroke-miterlimit:10;stroke-opacity:1;stroke-dasharray:none"
         d="M 0,0 C 0,-2.484 -2.016,-4.5 -4.5,-4.5 -6.984,-4.5 -9,-2.484 -9,0 -9,2.484 -6.984,4.5 -4.5,4.5 -2.016,4.5 0,2.484 0,0 z"
         inkscape:connector-curvature="0" />
    </g>
    <g
       transform="matrix(1.25,0,0,-1.25,506.63687,284.02781)"
       id="g40">
      <path
         id="path42"
         style="fill:#000000;fill-opacity:1;fill-rule:evenodd;stroke:#000000;stroke-width:0.44999999;stroke-linecap:butt;stroke-linejoin:miter;stroke-miterlimit:10;stroke-opacity:1;stroke-dasharray:none"
         d="M 0,0 C 0,-2.484 -2.016,-4.5 -4.5,-4.5 -6.984,-4.5 -9,-2.484 -9,0 -9,2.484 -6.984,4.5 -4.5,4.5 -2.016,4.5 0,2.484 0,0 z"
         inkscape:connector-curvature="0" />
    </g>
    <g
       transform="matrix(1.25,0,0,-1.25,103.38687,408.75281)"
       id="g44">
      <path
         id="path46"
         style="fill:none;stroke:#000000;stroke-width:0.44999999;stroke-linecap:butt;stroke-linejoin:miter;stroke-miterlimit:10;stroke-opacity:1;stroke-dasharray:none"
         d="m 0,0 0,-162 126,-144 0,180 L 0,0 z"
         inkscape:connector-curvature="0" />
      <g
         transform="translate(432,-4.5)"
         id="g48">
        <path
           id="path50"
           style="fill:none;stroke:#000000;stroke-width:0.44999999;stroke-linecap:butt;stroke-linejoin:miter;stroke-miterlimit:10;stroke-opacity:1;stroke-dasharray:none"
           d="m 0,0 0,-162 -126,-144 0,180 L 0,0 z"
           inkscape:connector-curvature="0" />
        <g
           transform="translate(-450,-211.5)"
           id="g52">
          <path
             id="path54"
             style="fill:none;stroke:#000000;stroke-width:0.44999999;stroke-linecap:butt;stroke-linejoin:miter;stroke-miterlimit:10;stroke-opacity:1;stroke-dasharray:none"
             d="M 0,0 112.5,0"
             inkscape:connector-curvature="0" />
          <g
             transform="translate(144,0)"
             id="g56">
            <path
               id="path58"
               style="fill:none;stroke:#000000;stroke-width:0.44999999;stroke-linecap:butt;stroke-linejoin:miter;stroke-miterlimit:10;stroke-opacity:1;stroke-dasharray:none"
               d="M 0,0 180,0"
               inkscape:connector-curvature="0" />
            <g
               transform="translate(216.9,0)"
               id="g60">
              <path
                 id="path62"
                 style="fill:none;stroke:#000000;stroke-width:0.44999999;stroke-linecap:butt;stroke-linejoin:miter;stroke-miterlimit:10;stroke-opacity:1;stroke-dasharray:none"
                 d="M 0,0 88.2,0"
                 inkscape:connector-curvature="0" />
            </g>
          </g>
        </g>
      </g>
    </g>
    <g
       transform="matrix(1.25,0,0,-1.25,232.76187,538.12781)"
       id="g64">
      <path
         id="path66"
         style="fill:none;stroke:#000000;stroke-width:0.89999998;stroke-linecap:butt;stroke-linejoin:miter;stroke-miterlimit:10;stroke-opacity:1;stroke-dasharray:none"
         d="M 0,0 228.6,216"
         inkscape:connector-curvature="0" />
      <g
         transform="translate(-121.5,-112.5)"
         id="g68">
        <path
           id="path70"
           style="fill:none;stroke:#000000;stroke-width:0.89999998;stroke-linecap:butt;stroke-linejoin:miter;stroke-miterlimit:10;stroke-opacity:1;stroke-dasharray:none"
           d="M 0,0 72,67.5"
           inkscape:connector-curvature="0" />
        <g
           transform="translate(324.9,-47.7)"
           id="g72">
          <path
             id="path74"
             style="fill:none;stroke:#000000;stroke-width:0.89999998;stroke-linecap:butt;stroke-linejoin:miter;stroke-miterlimit:10;stroke-opacity:1;stroke-dasharray:none"
             d="M 0,0 125.1,170.1"
             inkscape:connector-curvature="0" />
        </g>
      </g>
    </g>
    <path
       id="path76"
       style="fill:none;stroke:#000000;stroke-width:1.125;stroke-linecap:butt;stroke-linejoin:miter;stroke-miterlimit:10;stroke-opacity:1;stroke-dasharray:6.75;stroke-dashoffset:0"
       d="m 440.88687,341.25281 101.25,168.75 m 101.25,168.75 -50.625,-84.375"
       inkscape:connector-curvature="0" />
    <g
       id="g3573"
       transform="matrix(2.5284481,0,0,-2.5284481,-402.52133,2360.9931)"
       xml:space="preserve"
       stroke-miterlimit="10.433"
       font-style="normal"
       font-variant="normal"
       font-weight="normal"
       font-stretch="normal"
       font-size-adjust="none"
       letter-spacing="normal"
       word-spacing="normal"
       ns0:text="$\\vec{u}$"
       ns0:preamble="/home/taihu/Documents/tesis/inkscape_preamble.tex"
       style="font-style:normal;font-variant:normal;font-weight:normal;font-stretch:normal;letter-spacing:normal;word-spacing:normal;text-anchor:start;fill:none;stroke:#000000;stroke-linecap:butt;stroke-linejoin:miter;stroke-miterlimit:10.43299961;stroke-opacity:1;stroke-dasharray:none;stroke-dashoffset:0"><path
         style="fill:#000000;stroke-width:0"
         inkscape:connector-curvature="0"
         d="m 227.79,707.84 v -0.77 l 1.76,0.05 v 0.47 c -0.62,0 -0.69,0 -0.69,0.39 v 3.61 l -1.82,-0.07 v -0.47 c 0.62,0 0.69,0 0.69,-0.39 v -1.9 c 0,-0.81 -0.51,-1.34 -1.23,-1.34 -0.77,0 -0.8,0.25 -0.8,0.79 v 3.38 l -1.82,-0.07 v -0.47 c 0.62,0 0.69,0 0.69,-0.39 v -2.31 c 0,-1.07 0.8,-1.28 1.79,-1.28 0.26,0 0.97,0 1.43,0.77 z"
         id="path3575" /></g>    <g
       style="font-style:normal;font-variant:normal;font-weight:normal;font-stretch:normal;letter-spacing:normal;word-spacing:normal;text-anchor:start;fill:none;stroke:#000000;stroke-linecap:butt;stroke-linejoin:miter;stroke-miterlimit:10.43299961;stroke-opacity:1;stroke-dasharray:none;stroke-dashoffset:0"
       ns0:preamble="/home/taihu/Documents/tesis/inkscape_preamble.tex"
       ns0:text="$\\vec{l}^\\prime$"
       word-spacing="normal"
       letter-spacing="normal"
       font-size-adjust="none"
       font-stretch="normal"
       font-weight="normal"
       font-variant="normal"
       font-style="normal"
       stroke-miterlimit="10.433"
       xml:space="preserve"
       transform="matrix(2.5284481,0,0,-2.5284481,30.918926,2360.7957)"
       id="content"><path
         id="path3367"
         d="m 225.66,714.02 -1.76,-0.08 v -0.47 c 0.62,0 0.69,0 0.69,-0.38 v -5.5 h -0.69 v -0.47 c 0.32,0.02 0.8,0.04 1.22,0.04 0.43,0 0.89,-0.02 1.23,-0.04 v 0.47 h -0.69 z"
         inkscape:connector-curvature="0"
         style="fill:#000000;stroke-width:0" /><path
         id="path3369"
         d="m 228.63,714.86 0.01,0.01 0,0.01 0.01,0.01 0,0.01 0.01,0.01 0,0.01 0,0.01 0.01,0.01 0,0.01 0,0.01 0.01,0 0,0.01 0,0.01 0,0.01 0,0 0.01,0.01 0,0.01 0,0 0,0.01 0,0.01 0,0 0,0.01 0,0 0.01,0.01 0,0.01 0,0.01 0,0.01 0,0.01 c 0,0.21 -0.2,0.38 -0.41,0.38 -0.27,0 -0.35,-0.22 -0.39,-0.33 l -0.92,-3.01 c 0,-0.01 -0.03,-0.1 -0.03,-0.11 0,-0.08 0.21,-0.15 0.27,-0.15 0.05,0 0.06,0.01 0.1,0.11 z"
         inkscape:connector-curvature="0"
         style="fill:#000000;stroke-width:0" /></g>    <g
       style="font-style:normal;font-variant:normal;font-weight:normal;font-stretch:normal;letter-spacing:normal;word-spacing:normal;text-anchor:start;fill:none;stroke:#000000;stroke-linecap:butt;stroke-linejoin:miter;stroke-miterlimit:10.43299961;stroke-opacity:1;stroke-dasharray:none;stroke-dashoffset:0"
       ns0:preamble="/home/taihu/Documents/tesis/inkscape_preamble.tex"
       ns0:text="$\\vec{x}$"
       word-spacing="normal"
       letter-spacing="normal"
       font-size-adjust="none"
       font-stretch="normal"
       font-weight="normal"
       font-variant="normal"
       font-style="normal"
       stroke-miterlimit="10.433"
       xml:space="preserve"
       transform="matrix(2.5284481,0,0,-2.5284481,-144.26239,2116.5361)"
       id="g3778"><path
         id="path3780"
         d="m 226.87,709.57 1.17,1.29 c 0.13,0.14 0.19,0.21 1.01,0.21 v 0.47 c -0.34,-0.02 -0.86,-0.03 -0.91,-0.03 -0.25,0 -0.75,0.02 -1.03,0.03 v -0.47 c 0.14,0 0.26,-0.02 0.38,-0.09 -0.04,-0.06 -0.04,-0.08 -0.08,-0.12 l -0.83,-0.93 -0.98,1.14 h 0.4 v 0.47 c -0.26,-0.01 -0.89,-0.03 -1.21,-0.03 -0.31,0 -0.76,0.02 -1.09,0.03 v -0.47 h 0.71 l 1.55,-1.83 -1.3,-1.46 c -0.17,-0.19 -0.53,-0.19 -1.01,-0.19 v -0.47 c 0.35,0.03 0.87,0.04 0.92,0.04 0.25,0 0.82,-0.02 1.02,-0.04 v 0.47 c -0.18,0 -0.37,0.05 -0.37,0.11 0,0.01 0,0.02 0.07,0.1 l 0.97,1.08 1.09,-1.29 h -0.39 v -0.47 c 0.26,0.02 0.87,0.04 1.2,0.04 0.32,0 0.76,-0.02 1.09,-0.04 v 0.47 h -0.7 z"
         inkscape:connector-curvature="0"
         style="fill:#000000;stroke-width:0" /></g>  </g>
</svg>
