<?xml version="1.0" encoding="UTF-8" standalone="no"?>
<!-- Created with Inkscape (http://www.inkscape.org/) -->

<svg
   xmlns:ns0="http://www.iki.fi/pav/software/textext/"
   xmlns:dc="http://purl.org/dc/elements/1.1/"
   xmlns:cc="http://creativecommons.org/ns#"
   xmlns:rdf="http://www.w3.org/1999/02/22-rdf-syntax-ns#"
   xmlns:svg="http://www.w3.org/2000/svg"
   xmlns="http://www.w3.org/2000/svg"
   xmlns:sodipodi="http://sodipodi.sourceforge.net/DTD/sodipodi-0.dtd"
   xmlns:inkscape="http://www.inkscape.org/namespaces/inkscape"
   width="270.3176"
   height="233.85388"
   id="svg2"
   version="1.1"
   inkscape:version="0.48.4 r9939"
   sodipodi:docname="propagation.svg">
  <sodipodi:namedview
     id="base"
     pagecolor="#ffffff"
     bordercolor="#666666"
     borderopacity="1.0"
     inkscape:pageopacity="0.0"
     inkscape:pageshadow="2"
     inkscape:zoom="1.979899"
     inkscape:cx="142.2168"
     inkscape:cy="111.11932"
     inkscape:document-units="px"
     inkscape:current-layer="layer1-1"
     showgrid="false"
     inkscape:window-width="1360"
     inkscape:window-height="744"
     inkscape:window-x="0"
     inkscape:window-y="24"
     inkscape:window-maximized="1"
     fit-margin-top="0"
     fit-margin-left="-0.1"
     fit-margin-right="0"
     fit-margin-bottom="0" />
  <defs
     id="defs4">
    <inkscape:path-effect
       effect="spiro"
       id="path-effect3161"
       is_visible="true" />
    <inkscape:perspective
       id="perspective5724"
       inkscape:persp3d-origin="403.61451 : 322.50312 : 1"
       inkscape:vp_z="775.66175 : 497.89682 : 1"
       inkscape:vp_y="0 : 1000 : 0"
       inkscape:vp_x="31.567267 : 497.89682 : 1"
       sodipodi:type="inkscape:persp3d" />
    <marker
       inkscape:stockid="Arrow2Mend"
       orient="auto"
       refY="0"
       refX="0"
       id="Arrow2Mend"
       style="overflow:visible">
      <path
         inkscape:connector-curvature="0"
         id="path3970"
         style="fill-rule:evenodd;stroke-width:0.625;stroke-linejoin:round"
         d="M 8.7185878,4.0337352 -2.2072895,0.01601326 8.7185884,-4.0017078 c -1.7454984,2.3720609 -1.7354408,5.6174519 -6e-7,8.035443 z"
         transform="scale(-0.6,-0.6)" />
    </marker>
    <marker
       inkscape:isstock="true"
       style="overflow:visible"
       id="Arrow1Mstart"
       refX="0"
       refY="0"
       orient="auto"
       inkscape:stockid="Arrow1Mstart">
      <path
         inkscape:connector-curvature="0"
         transform="matrix(0.4,0,0,0.4,4,0)"
         style="fill:#000000;fill-opacity:1;fill-rule:evenodd;stroke:#000000;stroke-width:1pt;stroke-opacity:1"
         d="M 0,0 5,-5 -12.5,0 5,5 0,0 z"
         id="path4180" />
    </marker>
    <marker
       inkscape:isstock="true"
       style="overflow:visible"
       id="Arrow1Mend"
       refX="0"
       refY="0"
       orient="auto"
       inkscape:stockid="Arrow1Mend">
      <path
         inkscape:connector-curvature="0"
         transform="matrix(-0.4,0,0,-0.4,-4,0)"
         style="fill:#ff0000;fill-opacity:1;fill-rule:evenodd;stroke:#ff0000;stroke-width:1pt;stroke-opacity:1"
         d="M 0,0 5,-5 -12.5,0 5,5 0,0 z"
         id="path4183" />
    </marker>
    <marker
       inkscape:isstock="true"
       style="overflow:visible"
       id="Arrow1Sstart"
       refX="0"
       refY="0"
       orient="auto"
       inkscape:stockid="Arrow1Sstart">
      <path
         inkscape:connector-curvature="0"
         transform="matrix(0.2,0,0,0.2,1.2,0)"
         style="fill:#000000;fill-opacity:1;fill-rule:evenodd;stroke:#000000;stroke-width:1pt;stroke-opacity:1"
         d="M 0,0 5,-5 -12.5,0 5,5 0,0 z"
         id="path4186" />
    </marker>
    <marker
       inkscape:isstock="true"
       style="overflow:visible"
       id="marker5153"
       refX="0"
       refY="0"
       orient="auto"
       inkscape:stockid="Arrow1Mend">
      <path
         inkscape:connector-curvature="0"
         transform="matrix(-0.4,0,0,-0.4,-4,0)"
         style="fill:#000000;fill-opacity:1;fill-rule:evenodd;stroke:#000000;stroke-width:1pt;stroke-opacity:1"
         d="M 0,0 5,-5 -12.5,0 5,5 0,0 z"
         id="path5155" />
    </marker>
    <marker
       inkscape:stockid="Arrow1Send"
       orient="auto"
       refY="0"
       refX="0"
       id="marker5465"
       style="overflow:visible"
       inkscape:isstock="true">
      <path
         id="path5467"
         d="M 0,0 5,-5 -12.5,0 5,5 0,0 z"
         style="fill:#000000;fill-opacity:1;fill-rule:evenodd;stroke:#000000;stroke-width:1pt;stroke-opacity:1"
         transform="matrix(-0.2,0,0,-0.2,-1.2,0)"
         inkscape:connector-curvature="0" />
    </marker>
    <marker
       inkscape:isstock="true"
       style="overflow:visible"
       id="Arrow1Mend-0"
       refX="0"
       refY="0"
       orient="auto"
       inkscape:stockid="Arrow1Mend">
      <path
         inkscape:connector-curvature="0"
         transform="matrix(-0.4,0,0,-0.4,-4,0)"
         style="fill:#ff0000;fill-opacity:1;fill-rule:evenodd;stroke:#ff0000;stroke-width:1pt;stroke-opacity:1"
         d="M 0,0 5,-5 -12.5,0 5,5 0,0 z"
         id="path4183-8" />
    </marker>
    <marker
       inkscape:isstock="true"
       style="overflow:visible"
       id="Arrow1Mend-0g"
       refX="0"
       refY="0"
       orient="auto"
       inkscape:stockid="Arrow1Mend-0g">
      <path
         inkscape:connector-curvature="0"
         transform="matrix(-0.4,0,0,-0.4,-4,0)"
         style="fill:#000000;fill-opacity:1;fill-rule:evenodd;stroke:#000000;stroke-width:1pt;stroke-opacity:1"
         d="M 0,0 5,-5 -12.5,0 5,5 0,0 z"
         id="path5392" />
    </marker>
    <marker
       inkscape:isstock="true"
       style="overflow:visible"
       id="Arrow1Mendo"
       refX="0"
       refY="0"
       orient="auto"
       inkscape:stockid="Arrow1Mendo">
      <path
         inkscape:connector-curvature="0"
         transform="matrix(-0.4,0,0,-0.4,-4,0)"
         style="fill:#0000ff;fill-opacity:1;fill-rule:evenodd;stroke:#0000ff;stroke-width:1pt;stroke-opacity:1"
         d="M 0,0 5,-5 -12.5,0 5,5 0,0 z"
         id="path5494" />
    </marker>
    <marker
       inkscape:isstock="true"
       style="overflow:visible"
       id="Arrow1SstartL"
       refX="0"
       refY="0"
       orient="auto"
       inkscape:stockid="Arrow1SstartL">
      <path
         inkscape:connector-curvature="0"
         transform="matrix(0.2,0,0,0.2,1.2,0)"
         style="fill:#ff0000;fill-opacity:1;fill-rule:evenodd;stroke:#ff0000;stroke-width:1pt;stroke-opacity:1"
         d="M 0,0 5,-5 -12.5,0 5,5 0,0 z"
         id="path5561" />
    </marker>
    <marker
       inkscape:stockid="Arrow1Lstart"
       orient="auto"
       refY="0"
       refX="0"
       id="Arrow1Lstart"
       style="overflow:visible">
      <path
         id="path4955"
         d="M 0,0 5,-5 -12.5,0 5,5 0,0 z"
         style="fill-rule:evenodd;stroke:#000000;stroke-width:1pt;marker-start:none"
         transform="matrix(0.8,0,0,0.8,10,0)"
         inkscape:connector-curvature="0" />
    </marker>
    <marker
       inkscape:stockid="Arrow1Lend"
       orient="auto"
       refY="0"
       refX="0"
       id="Arrow1Lend"
       style="overflow:visible">
      <path
         id="path4958"
         d="M 0,0 5,-5 -12.5,0 5,5 0,0 z"
         style="fill-rule:evenodd;stroke:#000000;stroke-width:1pt;marker-start:none"
         transform="matrix(-0.8,0,0,-0.8,-10,0)"
         inkscape:connector-curvature="0" />
    </marker>
    <marker
       inkscape:stockid="Arrow2MendX"
       orient="auto"
       refY="0"
       refX="0"
       id="Arrow2MendX"
       style="overflow:visible">
      <path
         inkscape:connector-curvature="0"
         id="path5300"
         style="fill:#007800;fill-rule:evenodd;stroke:#007800;stroke-width:0.625;stroke-linejoin:round"
         d="M 8.7185878,4.0337352 -2.2072895,0.01601326 8.7185884,-4.0017078 c -1.7454984,2.3720609 -1.7354408,5.6174519 -6e-7,8.035443 z"
         transform="scale(-0.6,-0.6)" />
    </marker>
    <marker
       inkscape:stockid="Arrow2MendX"
       orient="auto"
       refY="0"
       refX="0"
       id="Arrow2MendX-9"
       style="overflow:visible">
      <path
         inkscape:connector-curvature="0"
         id="path5300-3"
         style="fill:#007800;fill-rule:evenodd;stroke:#007800;stroke-width:0.625;stroke-linejoin:round"
         d="M 8.7185878,4.0337352 -2.2072895,0.01601326 8.7185884,-4.0017078 c -1.7454984,2.3720609 -1.7354408,5.6174519 -6e-7,8.035443 z"
         transform="scale(-0.6,-0.6)" />
    </marker>
    <marker
       inkscape:stockid="Arrow2MendX"
       orient="auto"
       refY="0"
       refX="0"
       id="Arrow2MendX-8"
       style="overflow:visible">
      <path
         inkscape:connector-curvature="0"
         id="path5300-34"
         style="fill:#007800;fill-rule:evenodd;stroke:#007800;stroke-width:0.625;stroke-linejoin:round"
         d="M 8.7185878,4.0337352 -2.2072895,0.01601326 8.7185884,-4.0017078 c -1.7454984,2.3720609 -1.7354408,5.6174519 -6e-7,8.035443 z"
         transform="scale(-0.6,-0.6)" />
    </marker>
    <marker
       inkscape:stockid="Arrow2MendX"
       orient="auto"
       refY="0"
       refX="0"
       id="Arrow2MendX-86"
       style="overflow:visible">
      <path
         inkscape:connector-curvature="0"
         id="path5300-5"
         style="fill:#007800;fill-rule:evenodd;stroke:#007800;stroke-width:0.625;stroke-linejoin:round"
         d="M 8.7185878,4.0337352 -2.2072895,0.01601326 8.7185884,-4.0017078 c -1.7454984,2.3720609 -1.7354408,5.6174519 -6e-7,8.035443 z"
         transform="scale(-0.6,-0.6)" />
    </marker>
    <marker
       inkscape:stockid="Arrow2MendX"
       orient="auto"
       refY="0"
       refX="0"
       id="Arrow2MendX-1"
       style="overflow:visible">
      <path
         inkscape:connector-curvature="0"
         id="path5300-0"
         style="fill:#007800;fill-rule:evenodd;stroke:#007800;stroke-width:0.625;stroke-linejoin:round"
         d="M 8.7185878,4.0337352 -2.2072895,0.01601326 8.7185884,-4.0017078 c -1.7454984,2.3720609 -1.7354408,5.6174519 -6e-7,8.035443 z"
         transform="scale(-0.6,-0.6)" />
    </marker>
    <marker
       inkscape:isstock="true"
       style="overflow:visible"
       id="Arrow1Mend-0g1"
       refX="0"
       refY="0"
       orient="auto"
       inkscape:stockid="Arrow1Mend-0g1">
      <path
         inkscape:connector-curvature="0"
         transform="matrix(-0.4,0,0,-0.4,-4,0)"
         style="fill:#00ff00;fill-opacity:1;fill-rule:evenodd;stroke:#00ff00;stroke-width:1pt;stroke-opacity:1"
         d="M 0,0 5,-5 -12.5,0 5,5 0,0 z"
         id="path4196" />
    </marker>
    <marker
       inkscape:isstock="true"
       style="overflow:visible"
       id="Arrow1Mend-0g1M"
       refX="0"
       refY="0"
       orient="auto"
       inkscape:stockid="Arrow1Mend-0g1M">
      <path
         inkscape:connector-curvature="0"
         transform="matrix(-0.4,0,0,-0.4,-4,0)"
         style="fill:#00a000;fill-opacity:1;fill-rule:evenodd;stroke:#00a000;stroke-width:1pt;stroke-opacity:1"
         d="M 0,0 5,-5 -12.5,0 5,5 0,0 z"
         id="path4353" />
    </marker>
    <marker
       inkscape:isstock="true"
       style="overflow:visible"
       id="Arrow1Mend-0g1M-6"
       refX="0"
       refY="0"
       orient="auto"
       inkscape:stockid="Arrow1Mend-0g1M">
      <path
         inkscape:connector-curvature="0"
         transform="matrix(-0.4,0,0,-0.4,-4,0)"
         style="fill:#00a000;fill-opacity:1;fill-rule:evenodd;stroke:#00a000;stroke-width:1pt;stroke-opacity:1"
         d="M 0,0 5,-5 -12.5,0 5,5 0,0 z"
         id="path4353-1" />
    </marker>
    <marker
       inkscape:isstock="true"
       style="overflow:visible"
       id="Arrow1Mend-0g1M-9"
       refX="0"
       refY="0"
       orient="auto"
       inkscape:stockid="Arrow1Mend-0g1M">
      <path
         inkscape:connector-curvature="0"
         transform="matrix(-0.4,0,0,-0.4,-4,0)"
         style="fill:#00a000;fill-opacity:1;fill-rule:evenodd;stroke:#00a000;stroke-width:1pt;stroke-opacity:1"
         d="M 0,0 5,-5 -12.5,0 5,5 0,0 z"
         id="path4353-4" />
    </marker>
    <marker
       inkscape:isstock="true"
       style="overflow:visible"
       id="Arrow1Mend-0r"
       refX="0"
       refY="0"
       orient="auto"
       inkscape:stockid="Arrow1Mend-0r">
      <path
         inkscape:connector-curvature="0"
         transform="matrix(-0.4,0,0,-0.4,-4,0)"
         style="fill:#00b400;fill-opacity:1;fill-rule:evenodd;stroke:#00b400;stroke-width:1pt;stroke-opacity:1"
         d="M 0,0 5,-5 -12.5,0 5,5 0,0 z"
         id="path4329" />
    </marker>
    <marker
       inkscape:isstock="true"
       style="overflow:visible"
       id="Arrow1Mend-0r-3"
       refX="0"
       refY="0"
       orient="auto"
       inkscape:stockid="Arrow1Mend-0r">
      <path
         inkscape:connector-curvature="0"
         transform="matrix(-0.4,0,0,-0.4,-4,0)"
         style="fill:#00b400;fill-opacity:1;fill-rule:evenodd;stroke:#00b400;stroke-width:1pt;stroke-opacity:1"
         d="M 0,0 5,-5 -12.5,0 5,5 0,0 z"
         id="path4329-7" />
    </marker>
    <marker
       inkscape:isstock="true"
       style="overflow:visible"
       id="Arrow1Mend-0y"
       refX="0"
       refY="0"
       orient="auto"
       inkscape:stockid="Arrow1Mend-0y">
      <path
         inkscape:connector-curvature="0"
         transform="matrix(-0.4,0,0,-0.4,-4,0)"
         style="fill:#00b400;fill-opacity:1;fill-rule:evenodd;stroke:#00b400;stroke-width:1pt;stroke-opacity:1"
         d="M 0,0 5,-5 -12.5,0 5,5 0,0 z"
         id="path4460" />
    </marker>
    <marker
       inkscape:isstock="true"
       style="overflow:visible"
       id="Arrow1Mend-0y-6"
       refX="0"
       refY="0"
       orient="auto"
       inkscape:stockid="Arrow1Mend-0y">
      <path
         inkscape:connector-curvature="0"
         transform="matrix(-0.4,0,0,-0.4,-4,0)"
         style="fill:#00b400;fill-opacity:1;fill-rule:evenodd;stroke:#00b400;stroke-width:1pt;stroke-opacity:1"
         d="M 0,0 5,-5 -12.5,0 5,5 0,0 z"
         id="path4460-2" />
    </marker>
    <marker
       inkscape:isstock="true"
       style="overflow:visible"
       id="Arrow1Mend-0y-5"
       refX="0"
       refY="0"
       orient="auto"
       inkscape:stockid="Arrow1Mend-0y">
      <path
         inkscape:connector-curvature="0"
         transform="matrix(-0.4,0,0,-0.4,-4,0)"
         style="fill:#00b400;fill-opacity:1;fill-rule:evenodd;stroke:#00b400;stroke-width:1pt;stroke-opacity:1"
         d="M 0,0 5,-5 -12.5,0 5,5 0,0 z"
         id="path4460-1" />
    </marker>
    <marker
       inkscape:isstock="true"
       style="overflow:visible"
       id="Arrow1Mend-0y-9"
       refX="0"
       refY="0"
       orient="auto"
       inkscape:stockid="Arrow1Mend-0y">
      <path
         inkscape:connector-curvature="0"
         transform="matrix(-0.4,0,0,-0.4,-4,0)"
         style="fill:#00b400;fill-opacity:1;fill-rule:evenodd;stroke:#00b400;stroke-width:1pt;stroke-opacity:1"
         d="M 0,0 5,-5 -12.5,0 5,5 0,0 z"
         id="path4460-5" />
    </marker>
  </defs>
  <metadata
     id="metadata7">
    <rdf:RDF>
      <cc:Work
         rdf:about="">
        <dc:format>image/svg+xml</dc:format>
        <dc:type
           rdf:resource="http://purl.org/dc/dcmitype/StillImage" />
        <dc:title />
      </cc:Work>
    </rdf:RDF>
  </metadata>
  <g
     transform="translate(-227.61069,-302.52377)"
     inkscape:label="Layer 1"
     inkscape:groupmode="layer"
     id="layer1">
    <g
       transform="translate(7.5552416,232.9402)"
       id="layer1-1"
       inkscape:label="Layer 1">
      <path
         sodipodi:nodetypes="zccccccz"
         inkscape:connector-curvature="0"
         id="path4136"
         d="m 437.03875,204.34695 c 0.20378,-31.08225 -26.15662,-60.45188 -44.46078,-86.68562 -17.00609,-24.418241 -44.01801,-51.009701 -76.55431,-41.028313 -36.61952,9.649837 -60.61821,41.682613 -85.93738,67.372933 -18.69111,25.13657 -4.68185,57.85373 6.53549,83.00881 17.38513,32.72885 45.51993,63.08928 81.73986,73.94774 36.09962,8.76629 58.0976,-23.82745 83.74924,-41.42598 20.43415,-11.21122 34.72409,-24.10731 34.92788,-55.18957 z"
         style="fill:none;stroke:#000000;stroke-width:2;stroke-linecap:butt;stroke-linejoin:miter;stroke-miterlimit:4;stroke-opacity:1;stroke-dasharray:4, 4;stroke-dashoffset:0" />
      <path
         sodipodi:nodetypes="cccccccc"
         inkscape:connector-curvature="0"
         id="path4136-8"
         d="m 437.0362,204.46087 c 0.20378,-31.08226 -26.15662,-60.45189 -44.46078,-86.68563 -17.00608,-24.418238 -43.30372,-49.581126 -75.84003,-39.599733 -36.6195,9.64983 -50.80203,41.498763 -76.12119,67.189093 -18.69112,25.13657 0.073,40.14017 11.29039,65.29525 17.38513,32.72885 19.03624,35.19188 55.25618,46.05034 36.09961,8.76629 21.31061,9.35222 46.96225,-8.2463 20.43414,-11.21123 34.05313,-18.19126 34.25691,-49.27351"
         style="fill:none;stroke:#0000ff;stroke-width:2;stroke-linecap:butt;stroke-linejoin:miter;stroke-miterlimit:4;stroke-opacity:1;stroke-dasharray:none;stroke-dashoffset:0" />
      <g
         style="fill:#960000;fill-opacity:0.82352941;stroke:none"
         inkscape:label="Layer 1"
         id="layer1-3-4-0"
         transform="matrix(0.99924258,-0.03891357,0.03891357,0.99924258,-598.20773,-95.706836)">
        <path
           style="fill:#960000;fill-opacity:0.82352941;stroke:none"
           d="m 980.82307,264.98717 12.342,7.78399 3.2709,-1.88851 -1.1597,-14.24006 -14.4532,8.34458 z"
           id="path4401-2-3"
           inkscape:connector-curvature="0" />
      </g>
      <g
         style="fill:#960000;fill-opacity:0.82352941;stroke:none"
         inkscape:label="Layer 1"
         id="layer1-3-4-0-3"
         transform="matrix(0.99968921,0.0249295,-0.0249295,0.99968921,-559.45318,-125.40389)">
        <path
           style="fill:#960000;fill-opacity:0.82352941;stroke:none"
           d="m 980.82307,264.98717 12.342,7.78399 3.2709,-1.88851 -1.1597,-14.24006 -14.4532,8.34458 z"
           id="path4401-2-3-4"
           inkscape:connector-curvature="0" />
      </g>
      <g
         style="fill:#960000;fill-opacity:0.82352941;stroke:none"
         inkscape:label="Layer 1"
         id="layer1-3-4-0-4"
         transform="matrix(0.98619028,-0.16561621,0.16561621,0.98619028,-644.48645,0.78495845)">
        <path
           style="fill:#960000;fill-opacity:0.82352941;stroke:none"
           d="m 980.82307,264.98717 12.342,7.78399 3.2709,-1.88851 -1.1597,-14.24006 -14.4532,8.34458 z"
           id="path4401-2-3-1"
           inkscape:connector-curvature="0" />
      </g>
      <g
         style="fill:#960000;fill-opacity:0.82352941;stroke:none"
         inkscape:label="Layer 1"
         id="layer1-3-4-0-4-6"
         transform="matrix(0.93981488,-0.34168404,0.34168404,0.93981488,-669.11795,168.45706)">
        <path
           style="fill:#960000;fill-opacity:0.82352941;stroke:none"
           d="m 980.82307,264.98717 12.342,7.78399 3.2709,-1.88851 -1.1597,-14.24006 -14.4532,8.34458 z"
           id="path4401-2-3-1-1"
           inkscape:connector-curvature="0" />
      </g>
      <g
         style="fill:#960000;fill-opacity:0.82352941;stroke:none"
         inkscape:label="Layer 1"
         id="layer1-3-4-0-4-6-8"
         transform="matrix(0.25979941,-0.9656626,0.9656626,0.25979941,-199.30924,967.23917)">
        <path
           style="fill:#960000;fill-opacity:0.82352941;stroke:none"
           d="m 980.82307,264.98717 12.342,7.78399 3.2709,-1.88851 -1.1597,-14.24006 -14.4532,8.34458 z"
           id="path4401-2-3-1-1-7"
           inkscape:connector-curvature="0" />
      </g>
      <g
         style="fill:#960000;fill-opacity:0.82352941;stroke:none"
         inkscape:label="Layer 1"
         id="layer1-3-4-0-4-6-8-2"
         transform="matrix(-0.25783841,-0.96618805,0.96618805,-0.25783841,277.33787,1128.0611)">
        <path
           style="fill:#960000;fill-opacity:0.82352941;stroke:none"
           d="m 980.82307,264.98717 12.342,7.78399 3.2709,-1.88851 -1.1597,-14.24006 -14.4532,8.34458 z"
           id="path4401-2-3-1-1-7-9"
           inkscape:connector-curvature="0" />
      </g>
      <g
         style="fill:#960000;fill-opacity:0.82352941;stroke:none"
         inkscape:label="Layer 1"
         id="layer1-3-4-0-4-6-8-2-1"
         transform="matrix(-0.33264467,-0.94305224,0.94305224,-0.33264467,332.04698,1154.137)">
        <path
           style="fill:#960000;fill-opacity:0.82352941;stroke:none"
           d="m 980.82307,264.98717 12.342,7.78399 3.2709,-1.88851 -1.1597,-14.24006 -14.4532,8.34458 z"
           id="path4401-2-3-1-1-7-9-8"
           inkscape:connector-curvature="0" />
      </g>
      <g
         style="fill:#960000;fill-opacity:0.82352941;stroke:none"
         inkscape:label="Layer 1"
         id="layer1-3-4-0-4-6-8-2-1-4"
         transform="matrix(-0.80398936,-0.59464368,0.59464368,-0.80398936,872.58919,966.48132)">
        <path
           style="fill:#960000;fill-opacity:0.82352941;stroke:none"
           d="m 980.82307,264.98717 12.342,7.78399 3.2709,-1.88851 -1.1597,-14.24006 -14.4532,8.34458 z"
           id="path4401-2-3-1-1-7-9-8-7"
           inkscape:connector-curvature="0" />
      </g>
      <g
         style="fill:#960000;fill-opacity:0.82352941;stroke:none"
         inkscape:label="Layer 1"
         id="layer1-3-4-0-4-6-8-2-1-4-2"
         transform="matrix(-0.99424119,-0.10716558,0.10716558,-0.99424119,1199.9506,565.53471)">
        <path
           style="fill:#960000;fill-opacity:0.82352941;stroke:none"
           d="m 980.82307,264.98717 12.342,7.78399 3.2709,-1.88851 -1.1597,-14.24006 -14.4532,8.34458 z"
           id="path4401-2-3-1-1-7-9-8-7-1"
           inkscape:connector-curvature="0" />
      </g>
      <g
         style="fill:#960000;fill-opacity:0.82352941;stroke:none"
         inkscape:label="Layer 1"
         id="layer1-3-4-0-4-6-8-2-1-4-2-1"
         transform="matrix(-0.99424119,-0.10716558,0.10716558,-0.99424119,1214.5629,592.60654)">
        <path
           style="fill:#960000;fill-opacity:0.82352941;stroke:none"
           d="m 980.82307,264.98717 12.342,7.78399 3.2709,-1.88851 -1.1597,-14.24006 -14.4532,8.34458 z"
           id="path4401-2-3-1-1-7-9-8-7-1-5"
           inkscape:connector-curvature="0" />
      </g>
      <g
         style="fill:#960000;fill-opacity:0.82352941;stroke:none"
         inkscape:label="Layer 1"
         id="layer1-3-4-0-4-6-8-2-1-4-2-1-4"
         transform="matrix(-0.82569752,0.56411312,-0.56411312,-0.82569752,1250.4249,-92.334264)">
        <path
           style="fill:#960000;fill-opacity:0.82352941;stroke:none"
           d="m 980.82307,264.98717 12.342,7.78399 3.2709,-1.88851 -1.1597,-14.24006 -14.4532,8.34458 z"
           id="path4401-2-3-1-1-7-9-8-7-1-5-9"
           inkscape:connector-curvature="0" />
      </g>
      <g
         style="fill:#960000;fill-opacity:0.82352941;stroke:none"
         inkscape:label="Layer 1"
         id="layer1-3-4-0-4-6-8-2-1-4-2-1-4-3"
         transform="matrix(-0.73668393,0.67623723,-0.67623723,-0.73668393,1227.9497,-214.51223)">
        <path
           style="fill:#960000;fill-opacity:0.82352941;stroke:none"
           d="m 980.82307,264.98717 12.342,7.78399 3.2709,-1.88851 -1.1597,-14.24006 -14.4532,8.34458 z"
           id="path4401-2-3-1-1-7-9-8-7-1-5-9-4"
           inkscape:connector-curvature="0" />
      </g>
      <g
         style="fill:#960000;fill-opacity:0.82352941;stroke:none"
         inkscape:label="Layer 1"
         id="layer1-3-4-0-4-6-8-2-1-4-2-1-4-3-0"
         transform="matrix(0.28831112,0.95753679,-0.95753679,0.28831112,321.00028,-777.75156)">
        <path
           style="fill:#960000;fill-opacity:0.82352941;stroke:none"
           d="m 980.82307,264.98717 12.342,7.78399 3.2709,-1.88851 -1.1597,-14.24006 -14.4532,8.34458 z"
           id="path4401-2-3-1-1-7-9-8-7-1-5-9-4-2"
           inkscape:connector-curvature="0" />
      </g>
      <g
         style="fill:#960000;fill-opacity:0.82352941;stroke:none"
         inkscape:label="Layer 1"
         id="layer1-3-4-0-4-6-8-2-1-4-2-1-4-3-0-6"
         transform="matrix(0.55159934,0.83410921,-0.83410921,0.55159934,54.648528,-745.78775)">
        <path
           style="fill:#960000;fill-opacity:0.82352941;stroke:none"
           d="m 980.82307,264.98717 12.342,7.78399 3.2709,-1.88851 -1.1597,-14.24006 -14.4532,8.34458 z"
           id="path4401-2-3-1-1-7-9-8-7-1-5-9-4-2-4"
           inkscape:connector-curvature="0" />
      </g>
      <g
         style="fill:#0000fa;fill-opacity:1;stroke:#ee2763;stroke-opacity:1"
         inkscape:label="Layer 1"
         id="layer1-3-4-0-4-6-8-2-1-4-2-1-4-3-0-6-9"
         transform="matrix(0.86224685,0.50648828,-0.50648828,0.86224685,-332.14029,-536.9178)">
        <path
           style="fill:#0000fa;fill-opacity:1;stroke:#ee2763;stroke-opacity:1"
           d="m 980.82307,264.98717 12.342,7.78399 3.2709,-1.88851 -1.1597,-14.24006 -14.4532,8.34458 z"
           id="path4401-2-3-1-1-7-9-8-7-1-5-9-4-2-4-9"
           inkscape:connector-curvature="0" />
      </g>
      <g
         style="fill:#960000;fill-opacity:0.82352941;stroke:none"
         inkscape:label="Layer 1"
         id="layer1-3-4-0-3-8"
         transform="matrix(0.8532915,0.52143419,-0.52143419,0.8532915,-271.04032,-541.81519)">
        <path
           style="fill:#960000;fill-opacity:0.82352941;stroke:none"
           d="m 980.82307,264.98717 12.342,7.78399 3.2709,-1.88851 -1.1597,-14.24006 -14.4532,8.34458 z"
           id="path4401-2-3-4-4"
           inkscape:connector-curvature="0" />
      </g>
      <g
         style="fill:#0000e5;fill-opacity:1;stroke:#ee2763;stroke-width:1;stroke-miterlimit:4;stroke-opacity:1;stroke-dasharray:none;stroke-dashoffset:0"
         inkscape:label="Layer 1"
         id="layer1-3-4-0-4-6-8-2-1-4-2-1-4-3-0-6-9-7"
         transform="matrix(0.86224685,0.50648828,-0.50648828,0.86224685,-296.91918,-495.75534)">
        <path
           style="fill:#0000e5;fill-opacity:1;stroke:#ee2763;stroke-width:1;stroke-miterlimit:4;stroke-opacity:1;stroke-dasharray:none;stroke-dashoffset:0"
           d="m 984.90715,256.28208 10.60652,10.02081 3.57396,-1.22135 1.61197,-14.19597 -15.79245,5.39651 z"
           id="path4401-2-3-1-1-7-9-8-7-1-5-9-4-2-4-9-4"
           inkscape:connector-curvature="0" />
      </g>
      <path
         style="fill:none;stroke:#00b400;stroke-width:1px;stroke-linecap:butt;stroke-linejoin:miter;stroke-opacity:1;marker-end:url(#Arrow1Mend-0r)"
         d="m 203.48817,167.94983 c -6.27382,-10.70952 -8.78602,-26.60874 7.88624,-28.67731"
         id="path3163"
         inkscape:connector-curvature="0"
         transform="translate(219.95545,69.58357)"
         sodipodi:nodetypes="cc" />
      <path
         inkscape:connector-curvature="0"
         id="path4136-82"
         d="m 328.03125,73.53125 0.0312,2 2.8125,-0.03125 0,-0.03125 1.125,0.0625 0.0937,-2 -1.1875,-0.03125 -0.0312,0 -0.0312,0 z m 7.875,2.34375 0.46875,0.03125 0.0625,0 2.65625,0.46875 0.0625,0 0.59375,0.15625 0.4375,-1.96875 -0.65625,-0.125 -0.0312,-0.03125 -2.8125,-0.46875 -0.0312,0 -0.53125,-0.0625 z m -14,-1.6875 -0.0312,0 -0.0312,0 -1.9375,0.40625 0.40625,1.96875 1.875,-0.40625 0.0625,0 1.9375,-0.28125 -0.28125,-1.96875 z m 21.65625,3.3125 0.875,0.25 0.0625,0.03125 2.5625,0.875 0.0312,0.03125 0.15625,0.0625 0.75,-1.875 -0.1875,-0.0625 -0.0312,-0.03125 -0.0312,0 -2.65625,-0.90625 -0.0312,-0.03125 -0.9375,-0.28125 z m -27.8125,-1.84375 -3.40625,1 -0.0312,0 -0.21875,0.0625 0.625,1.90625 0.1875,-0.0625 0.0312,0 3.34375,-0.96875 0.0312,0 0.1875,-0.0625 -0.53125,-1.9375 z M 305.6875,78.96875 305.65625,79 304.5,79.46875 l 0.78125,1.84375 1.125,-0.46875 0.0312,0 2.53125,-0.9375 -0.71875,-1.875 z m 45.21875,1.3125 1.28125,0.59375 0.0312,0 2.21875,1.15625 0.90625,-1.78125 -2.25,-1.15625 -0.0312,-0.03125 -1.34375,-0.59375 z m -51.59375,1.5 -0.0312,0 -2.125,1.0625 0.90625,1.8125 2.09375,-1.0625 0.0312,0 1.4375,-0.6875 -0.8125,-1.8125 z m 58.5,2.21875 1.75,1.0625 0.0312,0.03125 1.5625,1.0625 1.125,-1.65625 -1.59375,-1.09375 -0.0312,0 -1.78125,-1.125 z m -64.625,1 -0.0312,0 0,0.03125 -2.96875,1.71875 0,0.03125 -0.0937,0.03125 1.09375,1.6875 0.0312,-0.03125 0.0312,0 2.875,-1.71875 0.0312,0 0.40625,-0.21875 L 293.625,84.75 z m 71.15625,3.4375 2.21875,1.75 0.0312,0.03125 0.84375,0.71875 1.28125,-1.53125 -0.875,-0.75 -0.0312,0 0,-0.03125 -2.25,-1.75 z m -79.9375,2.09375 -0.0312,0 -1,0.71875 1.1875,1.625 0.96875,-0.6875 2.3125,-1.5625 -1.125,-1.65625 z m 86.03125,3 0.5625,0.5 0,-0.03125 2.125,2.03125 0.0312,0 0.15625,0.1875 1.40625,-1.4375 -0.1875,-0.1875 -2.15625,-2.03125 -0.0312,-0.03125 -0.5625,-0.5 z m -91.625,1.09375 -1.84375,1.46875 1.21875,1.5625 1.84375,-1.46875 0,0.03125 1.3125,-1 L 280.125,93.625 z m 97.3125,4.40625 1.15625,1.1875 0.0312,0.0312 1.53125,1.6875 1.46875,-1.375 -1.5625,-1.6875 0,-0.03125 -1.1875,-1.1875 z M 273.40625,98.96875 273.375,99 l -2.59375,2.21875 1.28125,1.53125 2.625,-2.25 0,0.0312 0.40625,-0.375 -1.25,-1.53125 z m 108.0625,5.9375 1.65625,1.9375 0.90625,1.09375 1.53125,-1.25 -0.90625,-1.125 L 383,103.59375 z m -115.875,1 -0.0312,0.0312 -0.75,0.71875 1.375,1.4375 0.75,-0.71875 0,0.0312 2.1875,-2.03125 -1.375,-1.46875 z m -6.53125,6.3125 1.40625,1.4375 2.84375,-2.8125 -1.40625,-1.40625 z M 386.5,111.0625 l 0.25,0.3125 1.71875,2.28125 0.40625,0.5625 1.625,-1.15625 -0.40625,-0.59375 -0.0312,0 -1.71875,-2.3125 -0.0312,0 -0.25,-0.3125 z m -133.0625,6.875 1.4375,1.40625 2.78125,-2.875 -1.40625,-1.375 z m 137.78125,-0.46875 0.5625,0.78125 -0.0312,0 1.78125,2.46875 1.625,-1.15625 -1.75,-2.46875 -0.0312,-0.0312 -0.53125,-0.75 z m -142.90625,5.84375 -0.40625,0.4375 1.46875,1.375 0.40625,-0.4375 2.34375,-2.46875 -1.46875,-1.375 z M 395.875,124 l 2.34375,3.21875 1.625,-1.15625 -2.375,-3.25 z m -153.4375,5.59375 1.46875,1.375 2.71875,-2.9375 -1.46875,-1.375 z m 158.15625,0.875 2.34375,3.21875 1.625,-1.1875 -2.375,-3.21875 z m -161.78125,2.96875 -1.84375,1.96875 1.4375,1.375 1.875,-1.96875 0.875,-0.9375 -1.46875,-1.375 z m 166.5,3.46875 1.15625,1.59375 1.1875,1.65625 1.625,-1.1875 -1.1875,-1.65625 -1.15625,-1.59375 z m -171.21875,1.53125 -2.65625,2.75 1.4375,1.375 2.65625,-2.75 0.0312,0 0.0937,-0.125 -1.4375,-1.375 z M 410,143.375 l 0.21875,0.34375 2.0625,2.9375 1.65625,-1.15625 -2.0625,-2.9375 -0.0312,0 0,-0.0312 -0.21875,-0.3125 z m -182.40625,2.4375 0,0.0312 -0.0312,0.0312 -1.09375,1.8125 1.71875,1.03125 1.0625,-1.75 0.0312,-0.0625 1.03125,-1.46875 -1.625,-1.15625 z m 186.96875,4.125 2.21875,3.3125 1.65625,-1.125 -2.21875,-3.3125 z m -190.9375,3.40625 0,0.0312 -0.0312,0.0312 -0.625,1.65625 1.875,0.71875 0.59375,-1.625 0.0312,-0.0312 0.90625,-1.96875 -1.84375,-0.8125 z m 195.3125,3.25 1.96875,3.09375 0,0.0312 0.125,0.25 1.71875,-1.03125 -0.15625,-0.25 0,-0.0312 -1.96875,-3.125 z m -197.75,4.59375 -0.0312,0.0312 0,0.0312 -0.3125,1.6875 1.96875,0.375 0.3125,-1.625 0,-0.0625 0.53125,-2.15625 L 221.71875,159 z m 201.875,2.1875 1,1.75 0.0312,0.0312 0.90625,1.6875 1.78125,-0.9375 -0.9375,-1.71875 -0.0312,-0.0312 -1,-1.78125 z m -203,5.875 0,0.0312 -0.0625,1.78125 2,0.0625 0.0625,-1.71875 0,-0.0312 0.1875,-2.1875 -2,-0.1875 z m 206.8125,1.125 0.125,0.25 1.3125,2.75 0.0312,0.0312 0.25,0.53125 1.8125,-0.84375 -0.25,-0.5625 -0.0312,0 -1.34375,-2.78125 0,-0.0312 -0.15625,-0.25 z m -206.875,4.75 0.125,2.3125 0,0.0312 0.15625,1.6875 L 222.25,179 l -0.125,-1.65625 0,-0.0625 -0.125,-2.25 z m 210.1875,2.4375 0.5625,1.34375 0,0.0312 0.875,2.3125 1.875,-0.71875 -0.875,-2.3125 -0.0312,-0.0312 -0.5625,-1.40625 z m -209.4375,5.65625 0.40625,2.4375 0,0.0312 0.28125,1.5 1.96875,-0.375 -0.28125,-1.46875 0,-0.0312 -0.40625,-2.4375 z m 212.15625,1.75 0.71875,2.34375 0,0.0312 0.375,1.4375 1.9375,-0.5 -0.375,-1.46875 -0.0312,-0.0312 0,-0.0312 -0.71875,-2.34375 z m -210.625,6.15625 0,0.0312 0.0312,0 0.65625,2.71875 0.0312,0.0312 0.3125,1.125 1.90625,-0.53125 -0.3125,-1.125 -0.65625,-2.65625 0,-0.0312 z m 212.59375,1.5 0.0625,0.3125 0.5,2.84375 0,0.0312 0.0937,0.6875 1.96875,-0.25 -0.0937,-0.71875 0,-0.0312 -0.46875,-2.90625 -0.0312,0 0,-0.0312 -0.0625,-0.34375 z m -210.4375,6.28125 0.125,0.375 0,0.0312 0.84375,2.6875 0.0312,0 0.25,0.75 1.875,-0.65625 -0.25,-0.71875 0,-0.0312 -0.84375,-2.625 0,-0.0312 -0.125,-0.375 z m 211.46875,1.5 0.0625,1.0625 0,0.0312 0.0625,2.875 2,-0.0625 -0.0625,-2.90625 0,-0.0312 -0.0625,-1.09375 z m -208.875,6.125 0.28125,0.78125 1.125,2.96875 1.875,-0.71875 -1.125,-2.9375 0,-0.0312 -0.28125,-0.75 z m 208.9375,0.625 0,0.0312 -0.125,2.6875 0,0.0312 -0.0625,0.875 1.96875,0.15625 0.0937,-0.875 0,-0.0312 0.125,-2.78125 0,-0.0312 0.0312,-0.3125 -2,-0.0625 z m -206.03125,6.875 1.5,3.59375 0,0.0312 0.0312,0.0937 1.84375,-0.8125 -0.0312,-0.0625 -1.5,-3.625 z m 205.375,1.03125 0.0312,0 -0.375,2.40625 0,0.0312 -0.21875,1.125 1.96875,0.34375 0.21875,-1.125 0,-0.0312 0.375,-2.46875 0,-0.0312 0.0312,-0.34375 -1.96875,-0.25 z m -202.25,6.34375 0.5,1.21875 0.0312,0 1.0625,2.4375 1.84375,-0.78125 -1.09375,-2.46875 -0.5,-1.1875 z m 200.34375,2.8125 0,0.0312 -0.625,2 1.90625,0.59375 0.625,-2.03125 0.0312,-0.0312 0.46875,-1.8125 -1.90625,-0.53125 z M 236.4375,228.75 l 0.96875,1.8125 0.96875,1.71875 1.75,-1 -0.96875,-1.6875 -0.96875,-1.78125 z m 194.8125,1.46875 -0.0312,0.0312 -0.8125,1.8125 -0.0312,0.0312 -0.6875,1.34375 1.78125,0.90625 0.71875,-1.375 0,-0.0312 0.875,-1.90625 0.0312,-0.0312 0.125,-0.34375 -1.84375,-0.75 z m -190.84375,5.53125 0.53125,0.90625 1.5625,2.53125 1.6875,-1.0625 -1.53125,-2.5 -0.53125,-0.90625 z m 187.0625,1.4375 -0.0312,0.0625 -1.0625,1.53125 -0.0312,0.0312 -0.875,1.1875 1.59375,1.1875 0.90625,-1.1875 0,-0.0312 1.125,-1.625 0.0312,-0.0312 0.28125,-0.4375 -1.6875,-1.0625 z m -182.8125,5.375 0.0625,0.0937 0,0.0312 1.96875,2.9375 0.21875,0.28125 1.625,-1.125 -0.1875,-0.28125 -1.96875,-2.9375 -0.0312,-0.0937 z m 178.0625,0.6875 -0.0312,0.0312 -1.28125,1.34375 -0.0312,0.0312 -1.1875,1.15625 1.375,1.40625 1.21875,-1.15625 0.0312,0 0,-0.0312 1.34375,-1.40625 0.0312,0 0,-0.0312 0.25,-0.28125 -1.5,-1.3125 z m -173.5,5.96875 1.59375,2.21875 0.0312,0 0,0.0312 0.75,0.96875 1.59375,-1.1875 -0.75,-1 -1.625,-2.21875 z m 167.875,-0.6875 -0.0312,0.0312 -1.5,1.1875 -0.0312,0.0312 -1.40625,1.0625 1.21875,1.59375 1.40625,-1.09375 0.0312,0 1.5625,-1.25 0.0312,-0.0312 0.15625,-0.125 -1.28125,-1.53125 z m -8.15625,5.84375 -0.0312,0 -1.34375,0.84375 1.03125,1.6875 1.40625,-0.84375 0.0312,0 L 412,254.75 l -1.09375,-1.6875 z m -154.90625,1.25 1.1875,1.46875 0,0.0312 1.34375,1.625 1.5625,-1.25 -1.34375,-1.625 -0.0312,-0.0312 -1.125,-1.46875 z m 147.59375,3.03125 -0.0625,0.0312 -0.0312,0.0312 -0.875,0.625 1.125,1.625 0.8125,-0.5625 0.0312,0 0.0625,-0.0625 2.4375,-1.375 -0.96875,-1.71875 z m -142.46875,3.15625 0.65625,0.78125 0.0312,0 2,2.25 1.46875,-1.34375 -1.96875,-2.21875 -0.0312,-0.0312 -0.625,-0.71875 z m 137.59375,0.375 -0.0312,0 0,0.0312 -2.34375,1.8125 -0.0312,0.0312 -0.15625,0.125 1.25,1.5625 0.15625,-0.125 2.34375,-1.8125 0.0312,-0.0312 0.625,-0.46875 -1.21875,-1.59375 z m -132.15625,5.59375 0.0625,0.0937 0.0312,0 2.46875,2.53125 0.0312,0.0312 0.21875,0.21875 1.40625,-1.4375 -0.21875,-0.21875 -2.46875,-2.5 -0.0312,-0.0312 -0.0625,-0.0625 z m 123.40625,1.5 1.28125,1.53125 3.09375,-2.5625 -1.3125,-1.53125 z m -5.375,4.625 -0.6875,0.59375 1.28125,1.53125 0.71875,-0.59375 2.3125,-2.03125 -1.28125,-1.5 z m -112.3125,-0.46875 2.03125,1.90625 0.0312,0 0.90625,0.8125 1.34375,-1.5 -0.90625,-0.78125 -0.0312,-0.0312 -2,-1.875 z m 107.625,4.5 -2.09375,1.75 1.3125,1.53125 2.09375,-1.75 0.96875,-0.84375 -1.3125,-1.5 z M 276.34375,278.78125 277.75,280 l 0.0312,0 1.65625,1.34375 1.25,-1.5625 -1.65625,-1.34375 0,0.0312 -1.4062,-1.2187 z m 6.3125,5 0.71875,0.5625 0.0312,0 0,0.0312 2.5,1.78125 1.15625,-1.625 -2.46875,-1.78125 -0.0312,-0.0312 -0.71875,-0.53125 z m 88.1875,0.0625 -1.15625,0.90625 1.25,1.5625 1.15625,-0.90625 1.96875,-1.59375 -1.25,-1.5625 z m -81.5625,4.5625 2.9375,1.875 0.0312,0 0.4375,0.28125 1.03125,-1.71875 -0.4375,-0.25 -0.0312,-0.0312 -2.90625,-1.84375 z m 76.75,-0.84375 -0.0312,0 -2.40625,1.75 -0.0312,0 -0.21875,0.1875 1.125,1.625 0.25,-0.15625 0.0312,-0.0312 2.4375,-1.75 0.0312,-0.0312 0.53125,-0.375 -1.21875,-1.59375 z m -69.84375,5 2.1875,1.21875 0.0312,0.0312 1.3125,0.65625 0.90625,-1.78125 -1.28125,-0.65625 -0.0312,0 -2.1875,-1.21875 z m 62.4375,0 -0.0312,0.0312 -1.96875,1.15625 1.03125,1.71875 1.96875,-1.15625 0.0312,-0.0312 1.4375,-0.90625 -1.0625,-1.6875 z m -55.28125,3.6875 1.40625,0.65625 0.0312,0.0312 2.25,0.96875 0.78125,-1.84375 -2.21875,-0.96875 -0.0312,0 -1.375,-0.65625 z m 47.5625,0.46875 -0.0312,0 -1.28125,0.5625 0.8125,1.84375 1.3125,-0.5625 0,-0.0312 0.0312,0 2.3125,-1.125 -0.875,-1.8125 z m -40.15625,2.6875 0.5625,0.21875 0.0312,0.0312 3.21875,1.125 0.65625,-1.875 -3.1875,-1.125 -0.0312,0 0,-0.0312 -0.5,-0.1875 z m 34.8125,-0.5625 -2.71875,0.84375 -0.0625,0.0312 -0.5625,0.125 0.46875,1.9375 0.625,-0.15625 0.0312,0 0.0312,0 2.78125,-0.875 0.0312,0 0.0312,0 0.40625,-0.15625 -0.6875,-1.875 z M 318.46875,302 l 1.34375,0.3125 0.0312,0 1.65625,0.34375 0.0312,0 0.9375,0.15625 0.3125,-2 -0.875,-0.125 -0.0312,0 -1.625,-0.3125 -0.0312,0 -1.28125,-0.3125 z m 8.0625,1.28125 1.5625,0.0937 0.0312,0 1.5625,0.0625 0.0312,0 0.875,0 0,-2 -0.84375,0 -0.0312,0 -1.5,-0.0625 -0.0312,0 -1.53125,-0.0937 z"
         style="font-size:medium;font-style:normal;font-variant:normal;font-weight:normal;font-stretch:normal;text-indent:0;text-align:start;text-decoration:none;line-height:normal;letter-spacing:normal;word-spacing:normal;text-transform:none;direction:ltr;block-progression:tb;writing-mode:lr-tb;text-anchor:start;baseline-shift:baseline;color:#000000;fill:#000000;fill-opacity:1;stroke:none;stroke-width:2;marker:none;visibility:visible;display:inline;overflow:visible;enable-background:accumulate;font-family:Sans;-inkscape-font-specification:Sans" />
      <path
         sodipodi:nodetypes="zsccccscsscz"
         inkscape:connector-curvature="0"
         id="path4700"
         d="m 436.34279,197.29155 c -0.68586,-10.78734 -4.50117,-18.26697 -8.51887,-27.11954 -9.0554,-19.95254 -23.40677,-38.1358 -35.5865,-54.77977 -16.33669,-22.365703 -43.68005,-46.721947 -74.93562,-37.579571 -35.17805,8.838695 -53.00181,44.250971 -77.32433,67.781821 -17.95537,23.02365 -4.49756,45.48986 6.27823,68.53045 11.3211,20.32124 22.15716,38.93127 42.17137,52.37038 9.51061,6.38617 20.95874,8.58593 32.16672,11.78968 6.35302,1.47096 11.26748,0.91108 16.47217,0.11644 12.57962,-1.92062 22.43226,-3.67085 34.97231,-11.49356 10.59264,-6.60789 37.6496,-15.17972 46.86617,-21.20864 19.70348,-10.06762 18.12421,-37.62036 17.43835,-48.40769 z"
         style="fill:none;stroke:#007800;stroke-width:1.87604654;stroke-linecap:butt;stroke-linejoin:miter;stroke-miterlimit:4;stroke-opacity:1;stroke-dasharray:3.75209324, 3.75209324;stroke-dashoffset:0" />
      <g
         transform="matrix(0.11084618,0.99383758,-0.99383758,0.11084618,563.2892,-765.40017)"
         id="layer1-3-4-0-4-6-8-2-1-4-2-1-4-3-0-6-9-4-3-5-0"
         inkscape:label="Layer 1"
         style="fill:#007800;fill-opacity:1;stroke:none">
        <path
           inkscape:connector-curvature="0"
           id="path4401-2-3-1-1-7-9-8-7-1-5-9-4-2-4-9-2-0-9-6"
           d="m 980.82307,264.98717 12.342,7.78399 3.2709,-1.88851 -1.1597,-14.24006 -14.4532,8.34458 z"
           style="fill:#007800;fill-opacity:1;stroke:none" />
      </g>
      <g
         transform="matrix(-0.02434042,0.99970373,-0.99970373,-0.02434042,662.80631,-717.93993)"
         id="layer1-3-4-0-4-6-8-2-1-4-2-1-4-3-0-6-9-4-3-5-8"
         inkscape:label="Layer 1"
         style="fill:#007800;fill-opacity:1;stroke:none">
        <path
           inkscape:connector-curvature="0"
           id="path4401-2-3-1-1-7-9-8-7-1-5-9-4-2-4-9-2-0-9-0"
           d="m 980.82307,264.98717 12.342,7.78399 3.2709,-1.88851 -1.1597,-14.24006 -14.4532,8.34458 z"
           style="fill:#007800;fill-opacity:1;stroke:none" />
      </g>
      <g
         transform="matrix(-0.26586582,0.96401005,-0.96401005,-0.26586582,853.2566,-607.19106)"
         id="layer1-3-4-0-4-6-8-2-1-4-2-1-4-3-0-6-9-4-3-5-01"
         inkscape:label="Layer 1"
         style="fill:#007800;fill-opacity:1;stroke:none">
        <path
           inkscape:connector-curvature="0"
           id="path4401-2-3-1-1-7-9-8-7-1-5-9-4-2-4-9-2-0-9-1"
           d="m 980.82307,264.98717 12.342,7.78399 3.2709,-1.88851 -1.1597,-14.24006 -14.4532,8.34458 z"
           style="fill:#007800;fill-opacity:1;stroke:none" />
      </g>
      <g
         transform="matrix(-0.94735832,0.32017531,-0.32017531,-0.94735832,1303.5914,193.75542)"
         id="layer1-3-4-0-4-6-8-2-1-4-2-1-4-3-0-6-9-4-3-5-01-7"
         inkscape:label="Layer 1"
         style="fill:#007800;fill-opacity:1;stroke:none">
        <path
           inkscape:connector-curvature="0"
           id="path4401-2-3-1-1-7-9-8-7-1-5-9-4-2-4-9-2-0-9-1-5"
           d="m 980.82307,264.98717 12.342,7.78399 3.2709,-1.88851 -1.1597,-14.24006 -14.4532,8.34458 z"
           style="fill:#007800;fill-opacity:1;stroke:none" />
      </g>
      <g
         transform="matrix(-0.99995508,0.00947967,-0.00947967,-0.99995508,1246.1013,480.87727)"
         id="layer1-3-4-0-4-6-8-2-1-4-2-1-4-3-0-6-9-4-3-5-01-7-0"
         inkscape:label="Layer 1"
         style="fill:#007800;fill-opacity:1;stroke:none">
        <path
           inkscape:connector-curvature="0"
           id="path4401-2-3-1-1-7-9-8-7-1-5-9-4-2-4-9-2-0-9-1-5-0"
           d="m 980.82307,264.98717 12.342,7.78399 3.2709,-1.88851 -1.1597,-14.24006 -14.4532,8.34458 z"
           style="fill:#007800;fill-opacity:1;stroke:none" />
      </g>
      <g
         transform="matrix(-0.99090291,-0.13457873,0.13457873,-0.99090291,1184.9749,593.34954)"
         id="layer1-3-4-0-4-6-8-2-1-4-2-1-4-3-0-6-9-4-3-5-01-7-1"
         inkscape:label="Layer 1"
         style="fill:#007800;fill-opacity:1;stroke:none">
        <path
           inkscape:connector-curvature="0"
           id="path4401-2-3-1-1-7-9-8-7-1-5-9-4-2-4-9-2-0-9-1-5-3"
           d="m 980.82307,264.98717 12.342,7.78399 3.2709,-1.88851 -1.1597,-14.24006 -14.4532,8.34458 z"
           style="fill:#007800;fill-opacity:1;stroke:none" />
      </g>
      <g
         transform="matrix(-0.8048727,-0.59344751,0.59344751,-0.8048727,871.99287,966.171)"
         id="layer1-3-4-0-4-6-8-2-1-4-2-1-4-3-0-6-9-4-3-5-01-7-1-4"
         inkscape:label="Layer 1"
         style="fill:#007800;fill-opacity:1;stroke:none">
        <path
           inkscape:connector-curvature="0"
           id="path4401-2-3-1-1-7-9-8-7-1-5-9-4-2-4-9-2-0-9-1-5-3-7"
           d="m 980.82307,264.98717 12.342,7.78399 3.2709,-1.88851 -1.1597,-14.24006 -14.4532,8.34458 z"
           style="fill:#007800;fill-opacity:1;stroke:none" />
      </g>
      <path
         transform="translate(219.95545,69.58357)"
         inkscape:connector-curvature="0"
         id="path3274"
         d="m 159.6041,167.17799 18.18275,11.36421"
         style="fill:none;stroke:#00b400;stroke-width:1px;stroke-linecap:butt;stroke-linejoin:miter;stroke-opacity:1;marker-end:url(#Arrow1Mend-0y)" />
      <path
         inkscape:connector-curvature="0"
         id="path3274-0"
         d="m 347.94582,255.68819 16.16244,12.12182"
         style="fill:none;stroke:#00b400;stroke-width:1px;stroke-linecap:butt;stroke-linejoin:miter;stroke-opacity:1;marker-end:url(#Arrow1Mend-0y)"
         sodipodi:nodetypes="cc" />
      <path
         inkscape:connector-curvature="0"
         id="path3274-0-9"
         d="m 308.82641,261.08276 14.64721,15.15228"
         style="fill:none;stroke:#00b400;stroke-width:1px;stroke-linecap:butt;stroke-linejoin:miter;stroke-opacity:1;marker-end:url(#Arrow1Mend-0y)"
         sodipodi:nodetypes="cc" />
    </g>
  </g>
  <g
     style="font-style:normal;font-variant:normal;font-weight:normal;font-stretch:normal;letter-spacing:normal;word-spacing:normal;text-anchor:start;fill:none;stroke:#000000;stroke-linecap:butt;stroke-linejoin:miter;stroke-miterlimit:10.43299961;stroke-opacity:1;stroke-dasharray:none;stroke-dashoffset:0"
     ns0:preamble=""
     ns0:text="$K_{actual}$"
     word-spacing="normal"
     letter-spacing="normal"
     font-size-adjust="none"
     font-stretch="normal"
     font-weight="normal"
     font-variant="normal"
     font-style="normal"
     stroke-miterlimit="10.433"
     xml:space="preserve"
     transform="matrix(1.1471854,0,0,-1.1471854,-120.60405,925.64333)"
     id="content"><path
       id="path5257"
       d="m 228.5,711.14 -0.01,0 0,0 0,0.01 0,0 0,0.01 0,0 0,0 -0.01,0.01 0,0 0,0.01 0,0 0,0.01 -0.01,0.01 0,0.01 -0.01,0.01 0,0.01 0,0 0,0.01 -0.01,0 0,0.01 0,0 0,0.01 0,0 0,0 0,0.01 0,0 0,0 0,0.01 c 0,0.01 0.18,0.15 0.29,0.23 l 1.74,1.34 c 0.93,0.68 1.32,0.72 1.62,0.75 0.08,0.01 0.18,0.02 0.18,0.2 0,0.04 -0.03,0.11 -0.11,0.11 -0.22,0 -0.47,-0.03 -0.71,-0.03 -0.36,0 -0.75,0.03 -1.1,0.03 -0.07,0 -0.19,0 -0.19,-0.2 0,-0.07 0.05,-0.1 0.12,-0.11 0.22,-0.02 0.31,-0.07 0.31,-0.21 0,-0.18 -0.3,-0.4 -0.36,-0.45 l -3.88,-2.98 0.79,3.19 c 0.09,0.35 0.11,0.45 0.84,0.45 0.25,0 0.34,0 0.34,0.2 0,0.09 -0.08,0.11 -0.14,0.11 -0.28,0 -1,-0.03 -1.28,-0.03 -0.28,0 -0.99,0.03 -1.28,0.03 -0.07,0 -0.2,0 -0.2,-0.19 0,-0.12 0.09,-0.12 0.29,-0.12 0.13,0 0.31,-0.01 0.43,-0.02 0.16,-0.02 0.22,-0.05 0.22,-0.16 0,-0.04 -0.01,-0.07 -0.04,-0.19 l -1.34,-5.33 c -0.09,-0.39 -0.11,-0.47 -0.9,-0.47 -0.17,0 -0.28,0 -0.28,-0.19 0,-0.12 0.12,-0.12 0.15,-0.12 0.28,0 0.98,0.04 1.26,0.04 0.21,0 0.43,-0.01 0.64,-0.01 0.22,0 0.44,-0.03 0.65,-0.03 0.07,0 0.2,0 0.2,0.2 0,0.11 -0.09,0.11 -0.28,0.11 -0.37,0 -0.65,0 -0.65,0.18 0,0.07 0.06,0.29 0.09,0.44 0.14,0.52 0.27,1.04 0.4,1.56 l 1.48,1.15 1.15,-2.67 c 0.12,-0.27 0.12,-0.29 0.12,-0.35 0,-0.3 -0.42,-0.31 -0.51,-0.31 -0.11,0 -0.22,0 -0.22,-0.2 0,-0.11 0.12,-0.11 0.14,-0.11 0.39,0 0.81,0.04 1.21,0.04 0.22,0 0.76,-0.04 0.98,-0.04 0.04,0 0.17,0 0.17,0.2 0,0.11 -0.11,0.11 -0.19,0.11 -0.41,0.01 -0.54,0.1 -0.69,0.45 z"
       inkscape:connector-curvature="0"
       style="fill:#000000;stroke-width:0" /><path
       id="path5259"
       d="m 234.83,708.29 -0.01,0.02 -0.02,0.02 -0.01,0.02 -0.02,0.02 -0.01,0.02 -0.02,0.02 -0.02,0.02 -0.01,0.02 -0.02,0.02 -0.02,0.01 -0.02,0.02 -0.02,0.02 -0.02,0.01 -0.02,0.02 -0.02,0.01 -0.03,0.02 -0.02,0.01 -0.02,0.02 -0.03,0.01 -0.02,0.01 -0.02,0.01 -0.03,0.01 -0.03,0.01 -0.02,0.01 -0.03,0 -0.03,0.01 -0.03,0.01 -0.02,0 -0.03,0 -0.03,0.01 -0.03,0 -0.03,0 v -0.2 c 0.48,0 0.61,-0.53 0.61,-0.6 0,-0.03 -0.01,-0.08 -0.02,-0.1 l -0.32,-1.3 c -0.05,-0.2 -0.21,-0.33 -0.36,-0.47 -0.06,-0.05 -0.34,-0.27 -0.64,-0.27 -0.26,0 -0.51,0.18 -0.51,0.67 0,0.37 0.2,1.13 0.36,1.41 0.32,0.56 0.68,0.66 0.88,0.66 v 0.2 c -0.9,0 -1.8,-0.98 -1.8,-1.98 0,-0.68 0.45,-1.16 1.05,-1.16 0.38,0 0.71,0.22 0.99,0.49 0.13,-0.42 0.54,-0.49 0.72,-0.49 0.25,0 0.42,0.15 0.55,0.37 0.15,0.27 0.24,0.67 0.24,0.69 0,0.1 -0.09,0.1 -0.11,0.1 -0.1,0 -0.11,-0.03 -0.16,-0.22 -0.08,-0.33 -0.21,-0.74 -0.5,-0.74 -0.18,0 -0.23,0.15 -0.23,0.34 0,0.12 0.05,0.37 0.1,0.55 0.05,0.18 0.12,0.47 0.15,0.62 l 0.14,0.53 c 0.05,0.18 0.13,0.51 0.13,0.54 0,0.16 -0.13,0.23 -0.24,0.23 -0.12,0 -0.28,-0.09 -0.32,-0.28 z"
       inkscape:connector-curvature="0"
       style="fill:#000000;stroke-width:0" /><path
       id="path5261"
       d="m 239.26,708.29 -0.02,0 -0.02,-0.01 -0.02,0 -0.02,-0.01 -0.02,-0.01 -0.02,0 -0.02,-0.01 -0.02,-0.01 -0.01,-0.01 -0.02,-0.01 -0.01,-0.01 -0.02,-0.02 -0.01,-0.01 -0.01,-0.01 -0.02,-0.01 -0.01,-0.02 -0.01,-0.01 -0.01,-0.02 -0.01,-0.01 0,-0.02 -0.01,-0.01 -0.01,-0.02 0,-0.01 -0.01,-0.02 0,-0.01 -0.01,-0.02 0,-0.01 -0.01,-0.02 0,-0.01 0,-0.02 0,-0.01 0,-0.01 c 0,-0.19 0.15,-0.26 0.27,-0.26 0.16,0 0.4,0.11 0.4,0.44 0,0.48 -0.54,0.61 -0.92,0.61 -1.05,0 -2.01,-0.96 -2.01,-1.93 0,-0.6 0.41,-1.21 1.28,-1.21 1.18,0 1.73,0.69 1.73,0.79 0,0.04 -0.06,0.12 -0.12,0.12 -0.04,0 -0.05,-0.02 -0.11,-0.07 -0.54,-0.64 -1.36,-0.64 -1.48,-0.64 -0.5,0 -0.73,0.34 -0.73,0.77 0,0.2 0.1,0.96 0.46,1.44 0.27,0.34 0.63,0.53 0.98,0.53 0.1,0 0.43,-0.01 0.6,-0.21 z"
       inkscape:connector-curvature="0"
       style="fill:#000000;stroke-width:0" /><path
       id="path5263"
       d="m 241.49,708.38 h 0.71 c 0.13,0 0.22,0 0.22,0.15 0,0.1 -0.09,0.1 -0.21,0.1 h -0.66 l 0.26,1.03 c 0.01,0.03 0.02,0.07 0.02,0.1 0,0.12 -0.1,0.22 -0.24,0.22 -0.17,0 -0.28,-0.12 -0.33,-0.3 -0.04,-0.18 0.05,0.16 -0.26,-1.05 h -0.71 c -0.13,0 -0.22,0 -0.22,-0.16 0,-0.09 0.08,-0.09 0.21,-0.09 h 0.66 l -0.41,-1.64 c -0.04,-0.18 -0.11,-0.43 -0.11,-0.52 0,-0.41 0.35,-0.66 0.75,-0.66 0.77,0 1.21,0.97 1.21,1.06 0,0.1 -0.09,0.1 -0.11,0.1 -0.09,0 -0.09,-0.02 -0.15,-0.14 -0.19,-0.43 -0.55,-0.82 -0.93,-0.82 -0.15,0 -0.24,0.09 -0.24,0.34 0,0.07 0.02,0.21 0.04,0.28 z"
       inkscape:connector-curvature="0"
       style="fill:#000000;stroke-width:0" /><path
       id="path5265"
       d="m 245.73,706.76 0,-0.02 -0.01,-0.01 0,-0.01 0,-0.02 -0.01,-0.02 0,-0.01 -0.01,-0.03 -0.01,-0.04 -0.01,-0.03 0,-0.04 -0.01,-0.01 0,-0.02 -0.01,-0.01 0,-0.02 0,-0.01 -0.01,-0.02 0,-0.01 -0.01,-0.01 0,-0.01 0,-0.02 -0.01,-0.01 0,0 0,-0.01 0,-0.01 0,0 -0.01,0 0,-0.01 0,0 0,0 0,0 0,0 0,0 c -0.13,-0.22 -0.41,-0.59 -0.84,-0.59 -0.48,0 -0.48,0.45 -0.48,0.57 0,0.41 0.19,0.91 0.39,1.41 0.05,0.14 0.09,0.25 0.09,0.36 0,0.36 -0.3,0.6 -0.66,0.6 -0.69,0 -1.01,-0.96 -1.01,-1.07 0,-0.09 0.1,-0.09 0.12,-0.09 0.1,0 0.11,0.04 0.13,0.11 0.16,0.57 0.47,0.85 0.74,0.85 0.12,0 0.17,-0.07 0.17,-0.24 0,-0.16 -0.05,-0.31 -0.12,-0.47 -0.38,-0.96 -0.38,-1.16 -0.38,-1.34 0,-0.12 0,-0.44 0.26,-0.67 0.2,-0.16 0.48,-0.22 0.72,-0.22 0.44,0 0.67,0.24 0.9,0.46 0.16,-0.44 0.62,-0.46 0.71,-0.46 0.23,0 0.41,0.14 0.55,0.37 0.15,0.27 0.25,0.67 0.25,0.69 0,0.1 -0.1,0.1 -0.12,0.1 -0.1,0 -0.11,-0.03 -0.15,-0.22 -0.09,-0.33 -0.22,-0.74 -0.51,-0.74 -0.18,0 -0.23,0.16 -0.23,0.34 0,0.12 0.05,0.37 0.1,0.55 0.05,0.18 0.12,0.47 0.16,0.62 l 0.16,0.62 c 0.04,0.18 0.11,0.48 0.11,0.52 0,0.13 -0.11,0.22 -0.22,0.22 -0.26,0 -0.31,-0.2 -0.37,-0.43 z"
       inkscape:connector-curvature="0"
       style="fill:#000000;stroke-width:0" /><path
       id="path5267"
       d="m 250.43,708.29 -0.01,0.02 -0.01,0.02 -0.02,0.02 -0.02,0.02 -0.01,0.02 -0.02,0.02 -0.02,0.02 -0.01,0.02 -0.02,0.02 -0.02,0.01 -0.02,0.02 -0.02,0.02 -0.02,0.01 -0.02,0.02 -0.02,0.01 -0.02,0.02 -0.03,0.01 -0.02,0.02 -0.02,0.01 -0.03,0.01 -0.02,0.01 -0.03,0.01 -0.02,0.01 -0.03,0.01 -0.03,0 -0.03,0.01 -0.02,0.01 -0.03,0 -0.03,0 -0.03,0.01 -0.03,0 -0.03,0 v -0.2 c 0.48,0 0.62,-0.53 0.62,-0.6 0,-0.03 -0.02,-0.08 -0.02,-0.1 l -0.33,-1.3 c -0.05,-0.2 -0.2,-0.33 -0.36,-0.47 -0.06,-0.05 -0.34,-0.27 -0.64,-0.27 -0.26,0 -0.51,0.18 -0.51,0.67 0,0.37 0.21,1.13 0.37,1.41 0.32,0.56 0.67,0.66 0.87,0.66 v 0.2 c -0.9,0 -1.8,-0.98 -1.8,-1.98 0,-0.68 0.45,-1.16 1.05,-1.16 0.38,0 0.71,0.22 0.99,0.49 0.13,-0.42 0.54,-0.49 0.72,-0.49 0.25,0 0.42,0.15 0.55,0.37 0.15,0.27 0.24,0.67 0.24,0.69 0,0.1 -0.09,0.1 -0.11,0.1 -0.1,0 -0.1,-0.03 -0.15,-0.22 -0.09,-0.33 -0.22,-0.74 -0.51,-0.74 -0.18,0 -0.23,0.15 -0.23,0.34 0,0.12 0.05,0.37 0.1,0.55 0.05,0.18 0.12,0.47 0.16,0.62 l 0.14,0.53 c 0.04,0.18 0.12,0.51 0.12,0.54 0,0.16 -0.12,0.23 -0.24,0.23 -0.11,0 -0.27,-0.09 -0.32,-0.28 z"
       inkscape:connector-curvature="0"
       style="fill:#000000;stroke-width:0" /><path
       id="path5269"
       d="m 253.78,710.25 0,0 0,0 0,0 0,0 0,0 0,0 0,0.01 0,0 0,0 0.01,0 0,0.01 0,0 0,0 0,0.01 0,0 0,0.01 0,0 0,0.01 0.01,0.01 0,0 0,0.01 0,0 0,0 0,0.01 0,0 0,0.01 0,0 0.01,0 0,0.01 0,0 0,0 0,0 0,0 0,0 0,0.01 0,0 0,0 0,0 0,0 0,0 0,0 c 0,0.03 -0.03,0.1 -0.11,0.1 -0.14,0 -0.72,-0.06 -0.9,-0.07 -0.04,-0.01 -0.14,-0.02 -0.14,-0.16 0,-0.1 0.1,-0.1 0.17,-0.1 0.34,0 0.34,-0.05 0.34,-0.1 0,-0.05 -0.02,-0.1 -0.03,-0.16 l -0.86,-3.43 c -0.02,-0.07 -0.03,-0.15 -0.03,-0.22 0,-0.44 0.4,-0.66 0.73,-0.66 0.17,0 0.37,0.06 0.56,0.37 0.14,0.26 0.24,0.67 0.24,0.69 0,0.1 -0.09,0.1 -0.11,0.1 -0.1,0 -0.11,-0.05 -0.14,-0.17 -0.09,-0.35 -0.22,-0.79 -0.52,-0.79 -0.19,0 -0.24,0.17 -0.24,0.34 0,0.07 0.02,0.2 0.04,0.28 z"
       inkscape:connector-curvature="0"
       style="fill:#000000;stroke-width:0" /></g>  <g
     id="g5650"
     transform="matrix(1.2975639,0,0,-1.2975639,-69.851766,1058.352)"
     xml:space="preserve"
     stroke-miterlimit="10.433"
     font-style="normal"
     font-variant="normal"
     font-weight="normal"
     font-stretch="normal"
     font-size-adjust="none"
     letter-spacing="normal"
     word-spacing="normal"
     ns0:text="$K_{anterior}$"
     ns0:preamble=""
     style="font-style:normal;font-variant:normal;font-weight:normal;font-stretch:normal;letter-spacing:normal;word-spacing:normal;text-anchor:start;fill:none;stroke:#000000;stroke-linecap:butt;stroke-linejoin:miter;stroke-miterlimit:10.43299961;stroke-opacity:1;stroke-dasharray:none;stroke-dashoffset:0"><path
       style="fill:#000000;stroke-width:0"
       inkscape:connector-curvature="0"
       d="m 228.5,711.14 -0.01,0 0,0 0,0.01 0,0 0,0.01 0,0 0,0 -0.01,0.01 0,0 0,0.01 0,0 0,0.01 -0.01,0.01 0,0.01 -0.01,0.01 0,0.01 0,0 0,0.01 -0.01,0 0,0.01 0,0 0,0.01 0,0 0,0 0,0.01 0,0 0,0 0,0.01 c 0,0.01 0.18,0.15 0.29,0.23 l 1.74,1.34 c 0.93,0.68 1.32,0.72 1.62,0.75 0.08,0.01 0.18,0.02 0.18,0.2 0,0.04 -0.03,0.11 -0.11,0.11 -0.22,0 -0.47,-0.03 -0.71,-0.03 -0.36,0 -0.75,0.03 -1.1,0.03 -0.07,0 -0.19,0 -0.19,-0.2 0,-0.07 0.05,-0.1 0.12,-0.11 0.22,-0.02 0.31,-0.07 0.31,-0.21 0,-0.18 -0.3,-0.4 -0.36,-0.45 l -3.88,-2.98 0.79,3.19 c 0.09,0.35 0.11,0.45 0.84,0.45 0.25,0 0.34,0 0.34,0.2 0,0.09 -0.08,0.11 -0.14,0.11 -0.28,0 -1,-0.03 -1.28,-0.03 -0.28,0 -0.99,0.03 -1.28,0.03 -0.07,0 -0.2,0 -0.2,-0.19 0,-0.12 0.09,-0.12 0.29,-0.12 0.13,0 0.31,-0.01 0.43,-0.02 0.16,-0.02 0.22,-0.05 0.22,-0.16 0,-0.04 -0.01,-0.07 -0.04,-0.19 l -1.34,-5.33 c -0.09,-0.39 -0.11,-0.47 -0.9,-0.47 -0.17,0 -0.28,0 -0.28,-0.19 0,-0.12 0.12,-0.12 0.15,-0.12 0.28,0 0.98,0.04 1.26,0.04 0.21,0 0.43,-0.01 0.64,-0.01 0.22,0 0.44,-0.03 0.65,-0.03 0.07,0 0.2,0 0.2,0.2 0,0.11 -0.09,0.11 -0.28,0.11 -0.37,0 -0.65,0 -0.65,0.18 0,0.07 0.06,0.29 0.09,0.44 0.14,0.52 0.27,1.04 0.4,1.56 l 1.48,1.15 1.15,-2.67 c 0.12,-0.27 0.12,-0.29 0.12,-0.35 0,-0.3 -0.42,-0.31 -0.51,-0.31 -0.11,0 -0.22,0 -0.22,-0.2 0,-0.11 0.12,-0.11 0.14,-0.11 0.39,0 0.81,0.04 1.21,0.04 0.22,0 0.76,-0.04 0.98,-0.04 0.04,0 0.17,0 0.17,0.2 0,0.11 -0.11,0.11 -0.19,0.11 -0.41,0.01 -0.54,0.1 -0.69,0.45 z"
       id="path5652" /><path
       style="fill:#000000;stroke-width:0"
       inkscape:connector-curvature="0"
       d="m 234.83,708.29 -0.01,0.02 -0.02,0.02 -0.01,0.02 -0.02,0.02 -0.01,0.02 -0.02,0.02 -0.02,0.02 -0.01,0.02 -0.02,0.02 -0.02,0.01 -0.02,0.02 -0.02,0.02 -0.02,0.01 -0.02,0.02 -0.02,0.01 -0.03,0.02 -0.02,0.01 -0.02,0.02 -0.03,0.01 -0.02,0.01 -0.02,0.01 -0.03,0.01 -0.03,0.01 -0.02,0.01 -0.03,0 -0.03,0.01 -0.03,0.01 -0.02,0 -0.03,0 -0.03,0.01 -0.03,0 -0.03,0 v -0.2 c 0.48,0 0.61,-0.53 0.61,-0.6 0,-0.03 -0.01,-0.08 -0.02,-0.1 l -0.32,-1.3 c -0.05,-0.2 -0.21,-0.33 -0.36,-0.47 -0.06,-0.05 -0.34,-0.27 -0.64,-0.27 -0.26,0 -0.51,0.18 -0.51,0.67 0,0.37 0.2,1.13 0.36,1.41 0.32,0.56 0.68,0.66 0.88,0.66 v 0.2 c -0.9,0 -1.8,-0.98 -1.8,-1.98 0,-0.68 0.45,-1.16 1.05,-1.16 0.38,0 0.71,0.22 0.99,0.49 0.13,-0.42 0.54,-0.49 0.72,-0.49 0.25,0 0.42,0.15 0.55,0.37 0.15,0.27 0.24,0.67 0.24,0.69 0,0.1 -0.09,0.1 -0.11,0.1 -0.1,0 -0.11,-0.03 -0.16,-0.22 -0.08,-0.33 -0.21,-0.74 -0.5,-0.74 -0.18,0 -0.23,0.15 -0.23,0.34 0,0.12 0.05,0.37 0.1,0.55 0.05,0.18 0.12,0.47 0.15,0.62 l 0.14,0.53 c 0.05,0.18 0.13,0.51 0.13,0.54 0,0.16 -0.13,0.23 -0.24,0.23 -0.12,0 -0.28,-0.09 -0.32,-0.28 z"
       id="path5654" /><path
       style="fill:#000000;stroke-width:0"
       inkscape:connector-curvature="0"
       d="m 237.06,706.07 0,-0.01 0,-0.01 0,-0.01 -0.01,-0.01 0,-0.01 0,-0.01 -0.01,-0.01 0,-0.01 0,-0.02 -0.01,-0.03 -0.01,-0.02 0,-0.02 0,-0.01 -0.01,-0.01 0,-0.01 0,-0.01 0,-0.01 0,-0.01 -0.01,-0.01 0,-0.01 0,0 0,-0.01 0,-0.01 0,0 0,-0.01 0,0 0,0 0,0 0,0 -0.01,-0.01 c 0,-0.15 0.13,-0.22 0.24,-0.22 0.13,0 0.24,0.09 0.27,0.15 0.04,0.07 0.09,0.29 0.13,0.44 0.03,0.13 0.11,0.45 0.15,0.62 0.04,0.15 0.09,0.31 0.12,0.47 0.08,0.28 0.09,0.34 0.29,0.62 0.2,0.28 0.52,0.64 1.05,0.64 0.4,0 0.41,-0.35 0.41,-0.48 0,-0.42 -0.3,-1.19 -0.41,-1.49 -0.08,-0.19 -0.11,-0.25 -0.11,-0.37 0,-0.37 0.31,-0.6 0.66,-0.6 0.7,0 1.01,0.96 1.01,1.06 0,0.1 -0.09,0.1 -0.11,0.1 -0.1,0 -0.11,-0.05 -0.14,-0.12 -0.16,-0.56 -0.46,-0.84 -0.73,-0.84 -0.15,0 -0.18,0.09 -0.18,0.24 0,0.16 0.04,0.25 0.16,0.56 0.08,0.22 0.37,0.96 0.37,1.35 0,0.67 -0.54,0.79 -0.91,0.79 -0.57,0 -0.96,-0.36 -1.17,-0.63 -0.05,0.47 -0.46,0.63 -0.75,0.63 -0.3,0 -0.46,-0.22 -0.55,-0.38 -0.15,-0.25 -0.25,-0.65 -0.25,-0.69 0,-0.09 0.1,-0.09 0.12,-0.09 0.1,0 0.1,0.02 0.15,0.21 0.11,0.41 0.24,0.75 0.51,0.75 0.18,0 0.23,-0.15 0.23,-0.34 0,-0.13 -0.06,-0.39 -0.11,-0.57 -0.05,-0.19 -0.12,-0.48 -0.15,-0.63 z"
       id="path5656" /><path
       style="fill:#000000;stroke-width:0"
       inkscape:connector-curvature="0"
       d="m 242.85,708.38 h 0.71 c 0.14,0 0.23,0 0.23,0.15 0,0.1 -0.09,0.1 -0.21,0.1 h -0.66 l 0.25,1.03 c 0.01,0.03 0.02,0.07 0.02,0.1 0,0.12 -0.09,0.22 -0.23,0.22 -0.18,0 -0.28,-0.12 -0.33,-0.3 -0.05,-0.18 0.04,0.16 -0.26,-1.05 h -0.72 c -0.13,0 -0.22,0 -0.22,-0.16 0,-0.09 0.09,-0.09 0.21,-0.09 h 0.66 l -0.41,-1.64 c -0.04,-0.18 -0.1,-0.43 -0.1,-0.52 0,-0.41 0.34,-0.66 0.74,-0.66 0.78,0 1.21,0.97 1.21,1.06 0,0.1 -0.09,0.1 -0.11,0.1 -0.08,0 -0.09,-0.02 -0.14,-0.14 -0.2,-0.43 -0.55,-0.82 -0.94,-0.82 -0.14,0 -0.24,0.09 -0.24,0.34 0,0.07 0.03,0.21 0.04,0.28 z"
       id="path5658" /><path
       style="fill:#000000;stroke-width:0"
       inkscape:connector-curvature="0"
       d="m 245.71,707.22 0.02,0 0.02,0 0.02,0 0.03,0 0.02,0 0.03,0 0.03,0 0.03,0 0.04,0 0.03,0 0.03,0.01 0.04,0 0.04,0 0.03,0 0.08,0.01 0.08,0.01 0.08,0.01 0.08,0.01 0.08,0.01 0.08,0.02 0.04,0.01 0.04,0.01 0.04,0.01 0.04,0.01 0.04,0.01 0.03,0.01 c 0.52,0.18 0.61,0.52 0.61,0.73 0,0.38 -0.38,0.61 -0.86,0.61 v -0.2 c 0.31,0 0.56,-0.15 0.56,-0.41 0,-0.68 -1.17,-0.68 -1.47,-0.68 h -0.34 c 0.28,1.01 1.05,1.09 1.25,1.09 v 0.2 c -0.84,0 -1.96,-0.64 -1.96,-1.83 0,-0.7 0.43,-1.31 1.25,-1.31 1.18,0 1.73,0.69 1.73,0.79 0,0.04 -0.07,0.12 -0.12,0.12 -0.04,0 -0.06,-0.02 -0.11,-0.07 -0.55,-0.64 -1.36,-0.64 -1.49,-0.64 -0.41,0 -0.69,0.27 -0.69,0.84 0,0.1 0,0.23 0.08,0.62 z"
       id="path5660" /><path
       style="fill:#000000;stroke-width:0"
       inkscape:connector-curvature="0"
       d="m 249.57,707.04 0,0 0,0 0,0.01 0,0 0,0.01 0,0 0,0.01 0.01,0.01 0,0 0,0.01 0,0.01 0,0.01 0.01,0.01 0,0.01 0.01,0.03 0,0.02 0.01,0.03 0.01,0.03 0,0.03 0.01,0.03 0.01,0.03 0.01,0.06 0.02,0.06 0.01,0.03 0.01,0.03 0,0.03 0.01,0.03 0.01,0.02 0,0.03 0.01,0.02 0,0.01 0.01,0.01 0,0.01 0,0.01 0,0.01 0.01,0.01 0,0.01 0,0 0,0.01 0,0 0,0.01 0.01,0 0,0.01 0,0 c 0.01,0.05 0.21,0.4 0.44,0.57 0.07,0.05 0.26,0.19 0.56,0.19 0.07,0 0.24,0 0.38,-0.09 -0.22,-0.07 -0.3,-0.26 -0.3,-0.39 0,-0.15 0.12,-0.25 0.27,-0.25 0.16,0 0.39,0.13 0.39,0.42 0,0.36 -0.38,0.51 -0.73,0.51 -0.36,0 -0.68,-0.15 -0.99,-0.5 -0.12,0.43 -0.54,0.5 -0.71,0.5 -0.26,0 -0.43,-0.16 -0.55,-0.36 -0.16,-0.27 -0.25,-0.67 -0.25,-0.71 0,-0.09 0.09,-0.09 0.12,-0.09 0.09,0 0.1,0.02 0.15,0.21 0.1,0.43 0.23,0.75 0.51,0.75 0.18,0 0.23,-0.15 0.23,-0.34 0,-0.13 -0.07,-0.39 -0.12,-0.57 -0.04,-0.19 -0.11,-0.48 -0.15,-0.63 l -0.22,-0.89 c -0.03,-0.09 -0.07,-0.27 -0.07,-0.29 0,-0.15 0.13,-0.22 0.24,-0.22 0.1,0 0.24,0.06 0.29,0.2 0.02,0.04 0.1,0.35 0.14,0.52 z"
       id="path5662" /><path
       style="fill:#000000;stroke-width:0"
       inkscape:connector-curvature="0"
       d="m 254.1,709.98 0,0.01 0,0.01 0,0.01 0,0.01 -0.01,0.01 0,0.01 0,0.01 -0.01,0.02 0,0.01 0,0.01 -0.01,0.01 -0.01,0.01 0,0.01 -0.01,0.01 -0.01,0.01 -0.01,0.01 0,0.01 -0.01,0.01 -0.01,0.01 -0.01,0.01 -0.02,0 -0.01,0.01 -0.01,0.01 -0.01,0.01 -0.02,0 -0.01,0.01 -0.01,0 -0.02,0 -0.02,0.01 -0.01,0 -0.02,0 -0.02,0 c -0.19,0 -0.39,-0.18 -0.39,-0.38 0,-0.12 0.09,-0.27 0.28,-0.27 0.2,0 0.39,0.2 0.39,0.39 z"
       id="path5664" /><path
       style="fill:#000000;stroke-width:0"
       inkscape:connector-curvature="0"
       d="m 252.68,706.45 -0.01,-0.02 0,-0.02 -0.01,-0.03 -0.01,-0.02 0,-0.02 -0.01,-0.01 0,-0.02 -0.01,-0.02 0,-0.02 0,-0.02 -0.01,-0.01 0,-0.01 0,-0.01 0,-0.01 0,-0.01 0,-0.02 0,-0.01 0,-0.01 0,-0.01 c 0,-0.32 0.28,-0.59 0.66,-0.59 0.7,0 1,0.96 1,1.06 0,0.1 -0.09,0.1 -0.11,0.1 -0.1,0 -0.1,-0.05 -0.13,-0.12 -0.16,-0.56 -0.47,-0.84 -0.74,-0.84 -0.14,0 -0.17,0.09 -0.17,0.24 0,0.16 0.04,0.29 0.11,0.45 0.07,0.18 0.14,0.37 0.22,0.55 0.06,0.17 0.31,0.8 0.34,0.88 0.02,0.07 0.04,0.16 0.04,0.23 0,0.32 -0.28,0.59 -0.66,0.59 -0.69,0 -1.01,-0.95 -1.01,-1.07 0,-0.09 0.1,-0.09 0.12,-0.09 0.1,0 0.1,0.04 0.12,0.11 0.19,0.6 0.49,0.85 0.75,0.85 0.11,0 0.18,-0.05 0.18,-0.24 0,-0.16 -0.05,-0.27 -0.22,-0.7 z"
       id="path5666" /><path
       style="fill:#000000;stroke-width:0"
       inkscape:connector-curvature="0"
       d="m 258.36,707.48 0,0.07 -0.01,0.07 0,0.07 -0.02,0.06 -0.01,0.07 -0.02,0.06 -0.02,0.06 -0.02,0.06 -0.03,0.05 -0.02,0.06 -0.03,0.05 -0.04,0.05 -0.03,0.04 -0.04,0.05 -0.04,0.04 -0.04,0.04 -0.05,0.04 -0.04,0.03 -0.05,0.04 -0.05,0.03 -0.05,0.03 -0.05,0.02 -0.06,0.03 -0.05,0.02 -0.06,0.02 -0.06,0.01 -0.06,0.02 -0.06,0.01 -0.06,0.01 -0.06,0 -0.07,0.01 -0.06,0 c -1.03,0 -2,-0.97 -2,-1.92 0,-0.7 0.5,-1.22 1.26,-1.22 l 0.01,0.2 c -0.35,0 -0.7,0.22 -0.7,0.77 0,0.28 0.13,0.96 0.41,1.36 0.3,0.43 0.7,0.61 1.01,0.61 0.38,0 0.7,-0.25 0.7,-0.77 0,-0.17 -0.08,-0.85 -0.39,-1.34 -0.26,-0.41 -0.68,-0.63 -1.03,-0.63 h 0 l -0.01,-0.2 c 1,0 2,0.92 2,1.92 z"
       id="path5668" /><path
       style="fill:#000000;stroke-width:0"
       inkscape:connector-curvature="0"
       d="m 260.23,707.04 0,0 0,0 0,0.01 0.01,0 0,0.01 0,0 0,0.01 0,0.01 0,0 0.01,0.01 0,0.01 0,0.01 0,0.01 0.01,0.01 0,0.03 0.01,0.02 0,0.03 0.01,0.03 0.01,0.03 0.01,0.03 0,0.03 0.02,0.06 0.02,0.06 0,0.03 0.01,0.03 0.01,0.03 0.01,0.03 0,0.02 0.01,0.03 0.01,0.02 0,0.01 0,0.01 0,0.01 0.01,0.01 0,0.01 0,0.01 0,0.01 0.01,0 0,0.01 0,0 0,0.01 0,0 0,0.01 0,0 c 0.02,0.05 0.22,0.4 0.44,0.57 0.08,0.05 0.27,0.19 0.57,0.19 0.07,0 0.24,0 0.38,-0.09 -0.22,-0.07 -0.31,-0.26 -0.31,-0.39 0,-0.15 0.12,-0.25 0.28,-0.25 0.16,0 0.39,0.13 0.39,0.42 0,0.36 -0.38,0.51 -0.74,0.51 -0.36,0 -0.67,-0.15 -0.98,-0.5 -0.12,0.43 -0.55,0.5 -0.72,0.5 -0.25,0 -0.43,-0.16 -0.54,-0.36 -0.16,-0.27 -0.26,-0.67 -0.26,-0.71 0,-0.09 0.1,-0.09 0.12,-0.09 0.1,0 0.11,0.02 0.16,0.21 0.1,0.43 0.23,0.75 0.5,0.75 0.18,0 0.23,-0.15 0.23,-0.34 0,-0.13 -0.06,-0.39 -0.11,-0.57 -0.05,-0.19 -0.12,-0.48 -0.15,-0.63 l -0.22,-0.89 c -0.03,-0.09 -0.07,-0.27 -0.07,-0.29 0,-0.15 0.12,-0.22 0.23,-0.22 0.11,0 0.25,0.06 0.3,0.2 0.02,0.04 0.09,0.35 0.13,0.52 z"
       id="path5670" /></g></svg>
